
<svg width="18" height="12" viewBox="0 0 18 12" fill="none" xmlns="http://www.w3.org/2000/svg">
<path d="M15.1875 0H9V1.28564L7.70231 1.90909H9V3.81818H7.70231L9 4.47136V5.72727H8.946L5.34375 3.99573V5.72727H3.65625V3.99573L0.0658125 5.72727H0V9C0 10.6568 0.948656 12 2.8125 12H15.1875C17.0513 12 18 10.6568 18 9V3C18 1.34318 17.0513 0 15.1875 0Z" fill="#2B3990"/>
<path d="M9.00021 0.639232V0.632141L6.42114 1.90905L9.00021 0.639232Z" fill="#4189DD"/>
<path d="M0 3.81818V4.48145L1.31794 3.81818H0Z" fill="#2B3990"/>
<path d="M0.340336 1.43997C0.265526 1.59117 0.203631 1.74806 0.155273 1.90906H1.3174L0.340336 1.43997" fill="#2B3990"/>
<path d="M9 0.00272733V0H5.34375V1.827L9 0.00272733Z" fill="#2B3990"/>
<path d="M3.65633 1.827V0H2.81258C2.07571 0 1.48424 0.212182 1.03564 0.568636L3.65633 1.827Z" fill="#2B3990"/>
<path d="M9 2.18182V1.90909H7.70231L9 1.28564V0.639273L6.42094 1.90909H5.5665L9 0.209182V0.00272734L5.34375 1.827V0H5.0625V2.18182H9Z" fill="white"/>
<path d="M5.0625 5.72741H5.34375V3.99587L8.946 5.72741H9V5.10559L6.42094 3.81832H7.27566L9 4.68287V4.4715L7.70231 3.81832H9V3.54559H5.0625V5.72741Z" fill="white"/>
<path d="M3.65625 3.99587V5.72741H3.9375V3.54559H0V3.81832H1.31794L0 4.48159V5.10832L2.59931 3.81832H3.45431L0 5.53105V5.72741H0.0658125L3.65625 3.99587Z" fill="white"/>
<path d="M1.03547 0.568881C0.887537 0.686426 0.755631 0.81979 0.639193 0.96679L2.59922 1.90934H1.74451L0.424037 1.28152C0.394665 1.33361 0.366902 1.38654 0.340787 1.44024L1.31785 1.90934H0.155725C0.128725 1.99824 0.105381 2.08906 0.0856934 2.18206H3.93741V0.000244141H3.65616V1.82724L1.03547 0.568881Z" fill="white"/>
<path d="M3.9375 5.72727H5.0625V3.54545H9V2.27264L5.0625 2.45455V0H3.9375V2.45455L0.064125 2.29336C0.0216383 2.52666 0.000182308 2.7631 0 3L0 3.54545H3.9375V5.72727Z" fill="#FF0000"/>
<path d="M5.0625 2.45455L9 2.27264V2.18182H5.0625V2.45455Z" fill="#FF0000"/>
<path d="M0.0644531 2.29337L3.93783 2.45455V2.18182H0.0861094C0.0779531 2.21864 0.0712031 2.25573 0.0644531 2.29337" fill="#FF0000"/>
<path d="M2.59881 1.90911L0.636809 0.96875C0.558167 1.06794 0.486834 1.17238 0.42334 1.2813L1.74409 1.90911H2.59881Z" fill="#FF0000"/>
<path d="M0.639346 0.966461L0.637939 0.968643L2.59966 1.90901L0.639346 0.966461Z" fill="#FF0000"/>
<path d="M6.42084 1.90923L8.99991 0.63232V0.20932L5.56641 1.90923H6.42084Z" fill="#FF0000"/>
<path d="M6.42114 3.81818L9.00021 5.09509V4.68272L7.27586 3.81818H6.42114Z" fill="#FF0000"/>
<path d="M9.00021 5.10545V5.09508L6.42114 3.81818L9.00021 5.10545Z" fill="#FF0000"/>
<path d="M2.59931 3.81818L0 5.11445V5.5309L3.45431 3.81818H2.59931Z" fill="#FF0000"/>
<path d="M0 5.10818V5.11445L2.59931 3.81818L0 5.10818Z" fill="#FF0000"/>
<path d="M4.14732 8.27994L4.50086 7.23294L4.84651 8.27994L5.8967 7.88721L5.27598 8.79812L6.25304 9.35721L5.12242 9.45267L5.27626 10.5422L4.50114 9.74721L3.72123 10.5422L3.87198 9.45267L2.74951 9.36267L3.71814 8.80085L3.09404 7.88721L4.14732 8.27994Z" fill="white"/>
<path d="M13.206 8.64725L13.3446 8.23352L13.4819 8.64725L13.8959 8.49261L13.6518 8.85261L14.0376 9.07352L13.5921 9.1117L13.6518 9.54125L13.3446 9.22734L13.0381 9.54125L13.0969 9.1117L12.6533 9.07352L13.0353 8.85261L12.7906 8.49261L13.206 8.64725Z" fill="white"/>
<path d="M10.8278 5.00653L10.9673 4.59308L11.104 5.00653L11.5188 4.85162L11.273 5.2119L11.6595 5.43281L11.2128 5.47099L11.273 5.90081L10.9673 5.58662L10.6591 5.90081L10.719 5.47099L10.2751 5.4339L10.6582 5.2119L10.4124 4.85162L10.8278 5.00653Z" fill="white"/>
<path d="M15.3226 4.39633L15.4616 3.9826L15.5982 4.39633L16.0131 4.24115L15.767 4.60142L16.1551 4.82233L15.7071 4.8597L15.767 5.29006L15.4616 4.97724L15.1533 5.29006L15.2129 4.8597L14.7686 4.82342L15.1522 4.60251L14.9055 4.24115L15.3226 4.39633Z" fill="white"/>
<path d="M14.3663 6.16458L14.4338 5.95813L14.503 6.16458L14.7095 6.08713L14.588 6.26713L14.7798 6.37758L14.5579 6.39613L14.588 6.61077L14.4338 6.45449L14.2811 6.61077L14.3109 6.39613L14.0879 6.37813L14.2805 6.26767L14.1582 6.08713L14.3663 6.16458Z" fill="white"/>
<path d="M13.206 2.49549L13.3446 2.08203L13.4819 2.49549L13.8959 2.34058L13.6518 2.70085L14.0376 2.92176L13.5921 2.95912L13.6518 3.38976L13.3446 3.07558L13.0381 3.38976L13.0969 2.95912L12.6533 2.92285L13.0353 2.70194L12.7906 2.34058L13.206 2.49549Z" fill="white"/>
</svg>