<svg width="18" height="12" viewBox="0 0 18 12" fill="none" xmlns="http://www.w3.org/2000/svg">
<path d="M18 10.1538C18 10.6435 17.7893 11.1131 17.4142 11.4593C17.0391 11.8055 16.5304 12 16 12H2C1.46957 12 0.960859 11.8055 0.585786 11.4593C0.210714 11.1131 0 10.6435 0 10.1538V1.84615C0 1.35652 0.210714 0.886947 0.585786 0.540726C0.960859 0.194505 1.46957 0 2 0H16C16.5304 0 17.0391 0.194505 17.4142 0.540726C17.7893 0.886947 18 1.35652 18 1.84615V10.1538Z" fill="#009B3A"/>
<path d="M16.364 5.99999L8.99999 9.70799L1.63599 5.99999L8.99999 2.29166L16.364 5.99999Z" fill="#FEDF01"/>
<path d="M8.98803 8.12732C10.7714 8.12732 12.217 7.16354 12.217 5.97466C12.217 4.78577 10.7714 3.82199 8.98803 3.82199C7.20471 3.82199 5.75903 4.78577 5.75903 5.97466C5.75903 7.16354 7.20471 8.12732 8.98803 8.12732Z" fill="#002776"/>
<path d="M6.13849 4.96232C5.97078 5.17301 5.85721 5.40094 5.80249 5.63665C7.79999 5.53998 10.511 6.26698 11.6745 7.16832C11.8755 6.96698 12.0245 6.74165 12.116 6.50032C10.68 5.56432 8.15749 4.95698 6.13849 4.96232V4.96232Z" fill="#CBE9D4"/>
<path d="M6 6.07767H6.5V6.411H6V6.07767ZM6.5 6.74433H7V7.07767H6.5V6.74433Z" fill="#88C9F9"/>
<path d="M7.5 6.07768H8V6.41101H7.5V6.07768ZM8.5 6.41101H9V6.74434H8.5V6.41101ZM10.5 7.07768H11V7.41101H10.5V7.07768ZM9 7.41101H9.5V7.74434H9V7.41101ZM10.5 5.41101H11V5.74434H10.5V5.41101Z" fill="#55ACEE"/>
<path d="M9.5 6.74432H10V7.07766H9.5V6.74432Z" fill="#3B88C3"/>
</svg>
