<svg width="18" height="12" viewBox="0 0 18 12" fill="none" xmlns="http://www.w3.org/2000/svg">
<path d="M17.4327 0.314752C11.8121 -0.873545 6.19147 1.7721 0.567345 0.580597C0.25372 0.516538 0 0.679889 0 0.964952V11.035C0 11.3201 0.25372 11.618 0.567345 11.6852C6.18794 12.8735 11.8085 10.2279 17.4327 11.4194C17.7463 11.4867 18 11.3233 18 11.0383V0.968155C18 0.679889 17.7463 0.382014 17.4327 0.314752Z" fill="#0B67B2"/>
<path d="M18 0.794921C18 0.500138 17.7463 0.192106 17.4327 0.12255C17.3974 0.115926 17.3587 0.10599 17.3234 0.0993652L11.0615 3.68314V0C9.68716 0.155672 8.31284 0.367651 6.93853 0.523323V3.64339L1.58575 0.57963C1.24746 0.53326 0.909162 0.473641 0.567345 0.397461C0.25372 0.331217 0 0.500138 0 0.794921V1.48385L4.51057 4.06404H0V7.93928H4.71848L0 10.6387V11.2084C0 11.5032 0.25372 11.8112 0.567345 11.8808C0.673062 11.9039 0.778778 11.9238 0.880971 11.9437L6.935 8.47585V12C8.30932 11.8443 9.68363 11.6323 11.0579 11.4767V8.43279L16.2345 11.4005C16.6327 11.4502 17.0309 11.5164 17.4291 11.6059C17.7428 11.6754 17.9965 11.5065 17.9965 11.2117V10.6023L13.3485 7.94259H17.9965V4.06735H13.5564L17.9965 1.52691C18 1.2785 18 1.03671 18 0.794921V0.794921Z" fill="#FF473E"/>
<path d="M14.5501 8.22161L18 10.1832V10.9534L13.1969 8.22161H11.3892L17.1789 11.5162C16.594 11.401 16.0055 11.3286 15.4205 11.2858L11.3786 8.98848V11.4109C11.1672 11.4339 10.9558 11.4569 10.7443 11.4833V7.63247H18V8.2249H14.5501V8.22161ZM6.62138 12C6.83281 11.977 7.04424 11.9539 7.25568 11.9276V7.62918H0V8.22161H3.52036L0 10.2227V10.9929L4.87353 8.22161H6.62138V8.25453L0.412294 11.7861C0.461629 11.8091 0.514487 11.8289 0.567345 11.842C0.845732 11.9013 1.12412 11.9539 1.40251 11.9967L6.62138 9.02798V12V12ZM0 3.77839V4.37082H7.25568V0.520022C7.04424 0.546352 6.83281 0.569391 6.62138 0.59243V3.0938L2.42091 0.704334C1.8148 0.654964 1.20869 0.572682 0.602584 0.441031L6.46985 3.77839H4.6621L0 1.12562V1.89578L3.31245 3.77839H0ZM11.3786 0C11.1672 0.0230389 10.9558 0.046078 10.7443 0.0724083V4.37082H18V3.77839H14.758L18 1.93527V1.16511L13.4049 3.77839H11.5971L17.7181 0.296215C17.6335 0.230389 17.5384 0.18102 17.4327 0.157981C17.2247 0.111904 17.0204 0.0756996 16.8125 0.0394955L11.3786 3.13001V0Z" fill="#E8E8E8"/>
</svg>
