<svg width="18" height="12" viewBox="0 0 18 12" fill="none" xmlns="http://www.w3.org/2000/svg">
<path d="M4.5 0H13.5V12H4.5V0Z" fill="#E6E7E8"/>
<path d="M2.8125 0C0.948656 0 0 1.34318 0 3V9C0 10.6568 0.948656 12 2.8125 12H4.5V0H2.8125Z" fill="#EC1C24"/>
<path d="M15.1875 0H13.5V12H15.1875C17.0513 12 18 10.6568 18 9V3C18 1.34318 17.0513 0 15.1875 0Z" fill="#EC1C24"/>
<path fill-rule="evenodd" clip-rule="evenodd" d="M12.4482 5.90209C12.3196 5.84563 12.298 5.80581 12.3362 5.66809C12.4316 5.32363 12.5297 4.98054 12.6262 4.63663C12.6344 4.60854 12.6417 4.57963 12.6526 4.53845C12.5334 4.56163 12.422 4.58236 12.3106 4.60581C12.0854 4.65218 11.8615 4.69936 11.6368 4.74545C11.49 4.77518 11.4227 4.73536 11.3811 4.59463C11.342 4.46154 11.3035 4.32818 11.2408 4.176C11.2264 4.1989 11.216 4.22536 11.1977 4.24472C10.9404 4.52645 10.6816 4.80736 10.4226 5.08909C10.3425 5.17472 10.2533 5.21209 10.1903 5.17827C10.0978 5.12754 10.1011 5.03781 10.1163 4.95409C10.1847 4.58836 10.2556 4.22345 10.3259 3.85772C10.3773 3.59236 10.4288 3.32836 10.4817 3.05181C10.455 3.06163 10.437 3.06654 10.4209 3.07418C10.2752 3.14727 10.1312 3.22172 9.98527 3.29318C9.80639 3.38018 9.71639 3.35154 9.62302 3.18381C9.4253 2.82845 9.22927 2.47254 9.03211 2.1169C9.02199 2.09945 9.01524 2.08199 8.99977 2.05963L8.96743 2.1169C8.77083 2.47254 8.57452 2.82845 8.37708 3.18381C8.28343 3.35154 8.19315 3.38045 8.01427 3.29318C7.8683 3.22172 7.7243 3.14727 7.57861 3.07418C7.56258 3.06654 7.54458 3.06163 7.51786 3.05181C7.57074 3.32836 7.62221 3.59236 7.67368 3.85772C7.74399 4.22236 7.81514 4.58727 7.88293 4.95409C7.89868 5.03809 7.90177 5.12781 7.80924 5.17827C7.74596 5.21209 7.65708 5.17472 7.57721 5.08909C7.31789 4.80736 7.05914 4.52645 6.8018 4.24472C6.78352 4.22536 6.77283 4.1989 6.75877 4.176C6.69605 4.32845 6.65752 4.46154 6.61843 4.59463C6.5768 4.73536 6.50902 4.77518 6.36277 4.74545C6.13805 4.69936 5.91389 4.65218 5.68889 4.60581C5.57752 4.58236 5.46614 4.56163 5.34689 4.53845C5.35786 4.57963 5.36489 4.60881 5.37333 4.63663C5.4698 4.98054 5.56796 5.32391 5.6633 5.66809C5.70155 5.80609 5.6799 5.84563 5.55136 5.90209C5.4324 5.95445 5.31371 6.00981 5.18799 6.06681C5.21049 6.08645 5.22314 6.09818 5.23721 6.10936C5.53646 6.34554 5.83571 6.58091 6.13552 6.81709C6.42549 7.04563 6.71433 7.27391 7.00458 7.50163C7.10611 7.581 7.13958 7.67754 7.09768 7.79809C7.07405 7.869 7.05296 7.93991 7.03102 8.01109C7.00458 8.09482 6.97871 8.17909 6.94946 8.27482C7.23718 8.23527 7.50886 8.19845 7.78252 8.16163C8.10343 8.11881 8.42405 8.07491 8.7458 8.03563C8.85605 8.02172 8.93789 8.10327 8.93339 8.20936C8.90921 8.772 8.85324 9.40718 8.8493 9.94009H9.15024C9.1463 9.40718 9.09061 8.77227 9.06643 8.20936C9.06136 8.10327 9.14349 8.02172 9.25374 8.03563C9.57549 8.07491 9.89611 8.11881 10.217 8.16163C10.4907 8.19845 10.7624 8.23554 11.0501 8.27482C11.0208 8.17909 10.995 8.09482 10.9685 8.01109C10.9466 7.93963 10.9255 7.869 10.9019 7.79809C10.86 7.67754 10.8934 7.581 10.995 7.50163C11.2855 7.27391 11.5741 7.04563 11.864 6.81709C12.1638 6.58118 12.4631 6.34554 12.7623 6.10936C12.7764 6.09818 12.7891 6.08645 12.8116 6.06681C12.6856 6.00954 12.5674 5.95445 12.4482 5.90209" fill="#EC1C24"/>
</svg>
