<svg width="18" height="12" viewBox="0 0 18 12" fill="none" xmlns="http://www.w3.org/2000/svg">
<path d="M0 10C0 10.5304 0.210714 11.0391 0.585786 11.4142C0.960859 11.7893 1.46957 12 2 12H16C16.5304 12 17.0391 11.7893 17.4142 11.4142C17.7893 11.0391 18 10.5304 18 10V8H0V10Z" fill="#138808"/>
<path d="M0 4H18V8H0V4Z" fill="#EEEEEE"/>
<path d="M18 4V2C18 1.46957 17.7893 0.960859 17.4142 0.585786C17.0391 0.210714 16.5304 0 16 0H2C1.46957 0 0.960859 0.210714 0.585786 0.585786C0.210714 0.960859 0 1.46957 0 2L0 4H18Z" fill="#FF9933"/>
<path d="M9 8C10.1046 8 11 7.32843 11 6.5C11 5.67157 10.1046 5 9 5C7.89543 5 7 5.67157 7 6.5C7 7.32843 7.89543 8 9 8Z" fill="#000080"/>
<path d="M9.5 7C10.3284 7 11 6.55228 11 6C11 5.44772 10.3284 5 9.5 5C8.67157 5 8 5.44772 8 6C8 6.55228 8.67157 7 9.5 7Z" fill="#EEEEEE"/>
<path d="M9.5 5L9.573 5.75467L10.0735 5.07633L9.7085 5.792L10.5605 5.29267L9.812 5.861L10.8855 5.61733L9.868 5.95133L11 6L9.868 6.04867L10.8855 6.38233L9.812 6.139L10.5605 6.707L9.7085 6.208L10.0735 6.92367L9.573 6.24533L9.5 7L9.427 6.24533L8.926 6.92367L9.2915 6.208L8.439 6.707L9.188 6.139L8.1145 6.38233L9.132 6.04867L8 6L9.132 5.95133L8.1145 5.61733L9.188 5.861L8.439 5.29267L9.2915 5.792L8.926 5.07633L9.427 5.75467L9.5 5Z" fill="#6666B3"/>
<path d="M9.5 7C9.77614 7 10 6.77614 10 6.5C10 6.22386 9.77614 6 9.5 6C9.22386 6 9 6.22386 9 6.5C9 6.77614 9.22386 7 9.5 7Z" fill="#000080"/>
</svg>