
<svg width="18" height="12" viewBox="0 0 18 12" fill="none" xmlns="http://www.w3.org/2000/svg">
<path d="M18 9C18 10.6568 17.0513 12 15.1875 12H2.8125C0.948656 12 0 10.6568 0 9V3C0 1.34318 0.948656 0 2.8125 0H15.1875C17.0513 0 18 1.34318 18 3V9Z" fill="#E6E7E8"/>
<path d="M9.71013 5.08538C10.0203 4.95311 10.3387 4.94656 10.6661 5.0652C11.0095 5.19038 11.2452 5.38838 11.3726 5.66029C11.5006 5.93274 11.5158 6.26929 11.419 6.67047C11.646 5.96765 11.6198 5.31829 11.34 4.72292C11.061 4.12838 10.5862 3.70838 9.91544 3.46538C9.26153 3.22701 8.60988 3.2491 7.96103 3.52838C7.31191 3.8082 6.86669 4.26147 6.62481 4.88629C6.49431 5.22583 6.49881 5.55283 6.64113 5.86729C6.78288 6.18201 7.02306 6.40047 7.36141 6.52347C7.68906 6.64211 8.00772 6.63583 8.31878 6.50574C8.63013 6.37483 8.85569 6.15229 8.99632 5.83565L9.03091 5.75629C9.1735 5.44129 9.40019 5.21738 9.71013 5.08538" fill="#EC1C24"/>
<path d="M8.33378 6.47148C8.02328 6.60403 7.70462 6.61057 7.37837 6.49221C7.03469 6.3673 6.79872 6.16875 6.67131 5.89657C6.54391 5.62466 6.52844 5.28812 6.62434 4.88721C6.39794 5.58948 6.42466 6.23857 6.70394 6.83366C6.9835 7.4293 7.45797 7.84821 8.12819 8.09175C8.78238 8.3293 9.43403 8.30748 10.0834 8.02903C10.7317 7.74893 11.1775 7.29621 11.4185 6.67112C11.5502 6.33157 11.5457 6.0043 11.4033 5.69039C11.261 5.37566 11.0208 5.15693 10.6819 5.03393C10.3554 4.91503 10.0368 4.9213 9.72569 5.05166C9.41463 5.1823 9.18878 5.40566 9.04816 5.72121L9.01328 5.80084C8.87097 6.11503 8.64372 6.33921 8.33378 6.47148" fill="#1B75BB"/>
<path d="M6.7613 1.48659C6.7793 1.50435 6.78939 1.52824 6.78939 1.55314C6.78939 1.57804 6.7793 1.60193 6.7613 1.61969L5.04624 3.28223C5.03728 3.29095 5.02664 3.29788 5.01493 3.30261C5.00321 3.30734 4.99065 3.30979 4.97796 3.30982C4.96526 3.30984 4.95269 3.30744 4.94095 3.30276C4.92922 3.29807 4.91855 3.29119 4.90955 3.2825C4.90056 3.27382 4.89342 3.2635 4.88854 3.25214C4.88366 3.24078 4.88113 3.2286 4.8811 3.21629C4.88108 3.20398 4.88355 3.19179 4.88838 3.18041C4.89322 3.16903 4.90032 3.15868 4.90927 3.14996L6.62405 1.48687C6.63303 1.47808 6.6437 1.47109 6.65547 1.46632C6.66724 1.46154 6.67986 1.45907 6.69262 1.45905C6.70538 1.45902 6.71801 1.46144 6.7298 1.46617C6.74159 1.4709 6.75229 1.47784 6.7613 1.48659" fill="#231F20"/>
<path d="M7.07053 1.78636C7.07957 1.79506 7.08674 1.8054 7.09164 1.8168C7.09653 1.8282 7.09905 1.84042 7.09905 1.85277C7.09905 1.86512 7.09653 1.87734 7.09164 1.88874C7.08674 1.90014 7.07957 1.91048 7.07053 1.91918L5.35659 3.582C5.33835 3.59958 5.31368 3.60946 5.28796 3.60946C5.26225 3.60946 5.23757 3.59958 5.21934 3.582C5.21019 3.57333 5.20292 3.56298 5.19795 3.55156C5.19299 3.54013 5.19043 3.52785 5.19043 3.51545C5.19043 3.50305 5.19299 3.49078 5.19795 3.47935C5.20292 3.46792 5.21019 3.45757 5.21934 3.44891L6.93412 1.78636C6.95221 1.76882 6.97674 1.75897 7.00232 1.75897C7.0279 1.75897 7.05244 1.76882 7.07053 1.78636" fill="#231F20"/>
<path d="M7.3914 2.09755C7.40055 2.10621 7.40782 2.11656 7.41279 2.12799C7.41775 2.13942 7.42031 2.15169 7.42031 2.16409C7.42031 2.17649 7.41775 2.18877 7.41279 2.2002C7.40782 2.21163 7.40055 2.22198 7.3914 2.23064L5.67634 3.89373C5.66742 3.90248 5.6568 3.90942 5.64509 3.91416C5.63338 3.9189 5.62082 3.92135 5.60814 3.92135C5.59545 3.92135 5.58289 3.9189 5.57118 3.91416C5.55947 3.90942 5.54885 3.90248 5.53993 3.89373C5.52171 3.87604 5.51147 3.85205 5.51147 3.82705C5.51147 3.80204 5.52171 3.77806 5.53993 3.76037L7.25443 2.09755C7.2634 2.08878 7.27407 2.08183 7.28582 2.07708C7.29758 2.07233 7.31018 2.06989 7.32292 2.06989C7.33565 2.06989 7.34826 2.07233 7.36001 2.07708C7.37176 2.08183 7.38243 2.08878 7.3914 2.09755" fill="#231F20"/>
<path d="M12.0965 2.35797C12.137 2.32715 12.1752 2.29361 12.214 2.26034L11.4164 1.48661C11.4074 1.47787 11.3967 1.47094 11.3849 1.46621C11.3731 1.46148 11.3605 1.45905 11.3478 1.45905C11.335 1.45905 11.3224 1.46148 11.3106 1.46621C11.2989 1.47094 11.2882 1.47787 11.2792 1.48661C11.2701 1.49535 11.263 1.50572 11.2581 1.51714C11.2532 1.52856 11.2507 1.5408 11.2507 1.55315C11.2507 1.56551 11.2532 1.57775 11.2581 1.58917C11.263 1.60059 11.2701 1.61096 11.2792 1.6197L12.0709 2.38715C12.0773 2.37589 12.086 2.36597 12.0965 2.35797Z" fill="#231F20"/>
<path d="M13.1317 3.14965L12.3574 2.39856C12.3093 2.44029 12.2604 2.48201 12.2095 2.52074L12.9944 3.28192C13.0129 3.29743 13.0368 3.30559 13.0613 3.30477C13.0857 3.30394 13.1089 3.29419 13.1263 3.27747C13.1436 3.26075 13.1538 3.23829 13.1548 3.21459C13.1558 3.19089 13.1476 3.16769 13.1317 3.14965Z" fill="#231F20"/>
<path d="M12.8224 3.58097C12.8042 3.59854 12.7796 3.60841 12.7539 3.60841C12.7283 3.60841 12.7037 3.59854 12.6855 3.58097L10.9704 1.91815C10.9608 1.90955 10.9531 1.89915 10.9477 1.88759C10.9424 1.87602 10.9395 1.86353 10.9392 1.85085C10.939 1.83818 10.9414 1.82558 10.9463 1.81382C10.9512 1.80207 10.9584 1.79139 10.9677 1.78243C10.977 1.77348 10.988 1.76643 11.0001 1.76171C11.0122 1.75699 11.0252 1.75469 11.0383 1.75497C11.0514 1.75524 11.0643 1.75807 11.0762 1.76328C11.0881 1.7685 11.0988 1.776 11.1077 1.78533L12.8224 3.44788C12.8314 3.45662 12.8386 3.46699 12.8435 3.47841C12.8484 3.48983 12.8509 3.50207 12.8509 3.51442C12.8509 3.52678 12.8484 3.53902 12.8435 3.55044C12.8386 3.56186 12.8314 3.57223 12.8224 3.58097" fill="#231F20"/>
<path d="M11.4304 2.97924C11.4804 2.9416 11.5224 2.89633 11.5612 2.84751L10.7874 2.09751C10.7786 2.0882 10.7679 2.08072 10.7559 2.07552C10.744 2.07033 10.7311 2.06752 10.718 2.06728C10.705 2.06703 10.692 2.06935 10.6799 2.0741C10.6677 2.07884 10.6567 2.08591 10.6475 2.09489C10.6383 2.10386 10.631 2.11455 10.6261 2.12632C10.6212 2.13809 10.6189 2.15069 10.6192 2.16336C10.6194 2.17604 10.6224 2.18853 10.6277 2.20008C10.6331 2.21164 10.6409 2.22202 10.6505 2.2306L11.4276 2.9836C11.4273 2.98333 11.4287 2.98142 11.4304 2.97924Z" fill="#231F20"/>
<path d="M12.5015 3.7604L11.7044 2.98749C11.6634 3.03658 11.6175 3.08103 11.5686 3.12112L12.3645 3.89349C12.3735 3.90235 12.3841 3.9094 12.3959 3.91421C12.4076 3.91902 12.4203 3.9215 12.433 3.9215C12.4458 3.9215 12.4584 3.91902 12.4702 3.91421C12.482 3.9094 12.4926 3.90235 12.5015 3.89349C12.5105 3.88475 12.5177 3.87438 12.5226 3.86296C12.5274 3.85154 12.5299 3.8393 12.5299 3.82694C12.5299 3.81458 12.5274 3.80234 12.5226 3.79093C12.5177 3.77951 12.5105 3.76913 12.5015 3.7604" fill="#231F20"/>
<path d="M12.082 9.18488L11.3125 9.9316C11.2944 9.94924 11.2842 9.97312 11.2842 9.99801C11.2842 10.0229 11.2944 10.0468 11.3125 10.0644C11.3214 10.0732 11.3321 10.0801 11.3439 10.0849C11.3556 10.0896 11.3682 10.0921 11.381 10.0921C11.3937 10.0921 11.4063 10.0896 11.4181 10.0849C11.4298 10.0801 11.4405 10.0732 11.4494 10.0644L12.2136 9.32287C12.17 9.27651 12.1264 9.23069 12.082 9.18488Z" fill="#231F20"/>
<path d="M13.1644 8.26914C13.146 8.25165 13.1212 8.24191 13.0955 8.24207C13.0697 8.24222 13.045 8.25225 13.0269 8.26996L12.2256 9.04641C12.2697 9.09305 12.3136 9.13859 12.3575 9.18441L13.1644 8.4025C13.1823 8.38464 13.1923 8.36072 13.1923 8.33582C13.1923 8.31092 13.1823 8.28701 13.1644 8.26914" fill="#231F20"/>
<path d="M11.7812 8.87811L11.0029 9.63193C10.9849 9.64968 10.9749 9.67358 10.9749 9.69848C10.9749 9.72337 10.9849 9.74727 11.0029 9.76502C11.0212 9.78271 11.046 9.79264 11.0718 9.79264C11.0977 9.79264 11.1225 9.78271 11.1408 9.76502L11.9148 9.01393C11.8698 8.96811 11.8262 8.92229 11.7812 8.87811" fill="#231F20"/>
<path d="M12.8549 7.96906C12.846 7.96032 12.8354 7.95338 12.8237 7.94864C12.812 7.94391 12.7995 7.94147 12.7868 7.94147C12.7741 7.94147 12.7616 7.94391 12.7499 7.94864C12.7382 7.95338 12.7276 7.96032 12.7187 7.96906L11.925 8.73815C11.9706 8.78288 12.0139 8.82842 12.0592 8.87397L12.8551 8.10188C12.8643 8.09322 12.8715 8.08288 12.8764 8.07146C12.8814 8.06005 12.8839 8.04779 12.8839 8.03541C12.8839 8.02303 12.8813 8.01079 12.8763 7.99939C12.8713 7.98799 12.864 7.97768 12.8549 7.96906" fill="#231F20"/>
<path d="M11.4469 8.57971L10.6819 9.32071C10.664 9.33853 10.6541 9.3624 10.6541 9.38726C10.6541 9.41211 10.664 9.43598 10.6819 9.4538C10.7002 9.47149 10.725 9.48142 10.7508 9.48142C10.7767 9.48142 10.8014 9.47149 10.8197 9.4538L11.5898 8.70598C11.5425 8.66398 11.497 8.61926 11.4469 8.57971Z" fill="#231F20"/>
<path d="M11.735 8.56638L12.5341 7.79047C12.5432 7.78182 12.5505 7.77148 12.5555 7.76005C12.5605 7.74862 12.5631 7.73633 12.5631 7.72392C12.5631 7.71151 12.5605 7.69923 12.5555 7.6878C12.5505 7.67636 12.5432 7.66602 12.5341 7.65738C12.5251 7.64863 12.5145 7.64168 12.5028 7.63694C12.4911 7.6322 12.4785 7.62976 12.4659 7.62976C12.4532 7.62976 12.4406 7.6322 12.4289 7.63694C12.4172 7.64168 12.4066 7.64863 12.3977 7.65738L11.5913 8.43929C11.6417 8.47992 11.6872 8.52383 11.735 8.56638" fill="#231F20"/>
<path d="M5.976 9.19309C5.9355 9.22364 5.89753 9.25745 5.85815 9.29073L6.65634 10.0645C6.66529 10.0732 6.67593 10.0802 6.68766 10.0849C6.69939 10.0897 6.71198 10.0921 6.72469 10.0921C6.7374 10.0921 6.74998 10.0897 6.76171 10.0849C6.77344 10.0802 6.78409 10.0732 6.79303 10.0645C6.8021 10.0558 6.80931 10.0454 6.81422 10.034C6.81914 10.0226 6.82167 10.0104 6.82167 9.99805C6.82167 9.98569 6.81914 9.97345 6.81422 9.96205C6.80931 9.95065 6.8021 9.94031 6.79303 9.93164L6.00187 9.16364C5.99511 9.17486 5.98635 9.18483 5.976 9.19309" fill="#231F20"/>
<path d="M4.94177 8.40139L5.71578 9.15248C5.76415 9.11102 5.81224 9.06902 5.86343 9.03057L5.07846 8.26912C5.06002 8.25334 5.03607 8.24498 5.01149 8.24571C4.98691 8.24645 4.96354 8.25623 4.94613 8.27308C4.92873 8.28992 4.91859 8.31256 4.91778 8.3364C4.91697 8.36023 4.92555 8.38347 4.94177 8.40139" fill="#231F20"/>
<path d="M7.10161 9.63279L6.32002 8.87488C6.27699 8.91333 6.23452 8.95288 6.18952 8.98888C6.18361 8.99379 6.17771 8.9957 6.17236 8.9987L6.96408 9.76588C6.97309 9.77463 6.9838 9.78158 6.99558 9.78633C7.00736 9.79108 7.01999 9.79352 7.03275 9.79354C7.04551 9.79355 7.05814 9.79113 7.06993 9.7864C7.08173 9.78168 7.09244 9.77475 7.10147 9.76601C7.1105 9.75727 7.11767 9.7469 7.12256 9.73547C7.12746 9.72405 7.12998 9.7118 7.13 9.69943C7.13001 9.68706 7.12751 9.6748 7.12264 9.66337C7.11777 9.65194 7.11063 9.64154 7.10161 9.63279" fill="#231F20"/>
<path d="M6.04138 8.85356C6.08807 8.81511 6.13194 8.77475 6.17694 8.73438L5.38719 7.96911C5.37834 7.95978 5.36764 7.95228 5.35572 7.94706C5.34381 7.94184 5.33093 7.93901 5.31785 7.93874C5.30478 7.93847 5.29179 7.94077 5.27965 7.94549C5.26752 7.95021 5.25649 7.95726 5.24724 7.96621C5.23799 7.97517 5.23069 7.98584 5.2258 7.9976C5.22091 8.00936 5.21852 8.02195 5.21877 8.03463C5.21902 8.0473 5.22191 8.0598 5.22727 8.07136C5.23263 8.08293 5.24034 8.09333 5.24994 8.10193L6.03407 8.86229C6.03744 8.85929 6.03829 8.85684 6.04138 8.85356" fill="#231F20"/>
<path d="M5.57208 7.65812C5.58096 7.64926 5.59159 7.64222 5.60333 7.63741C5.61506 7.6326 5.62768 7.63013 5.64042 7.63013C5.65316 7.63013 5.66578 7.6326 5.67751 7.63741C5.68925 7.64222 5.69988 7.64926 5.70876 7.65812L7.42383 9.32066C7.44196 9.33834 7.45214 9.36227 7.45214 9.38721C7.45214 9.41215 7.44196 9.43607 7.42383 9.45375C7.41485 9.46256 7.40417 9.46955 7.39239 9.47432C7.38061 9.4791 7.36797 9.48155 7.3552 9.48155C7.34244 9.48155 7.3298 9.4791 7.31802 9.47432C7.30624 9.46955 7.29555 9.46256 7.28658 9.45375L5.57208 7.79066C5.56294 7.78205 5.55568 7.77174 5.55072 7.76036C5.54577 7.74898 5.54321 7.73675 5.54321 7.72439C5.54321 7.71203 5.54577 7.6998 5.55072 7.68842C5.55568 7.67704 5.56294 7.66673 5.57208 7.65812" fill="#231F20"/>
<path d="M4.9376 8.26634C4.94661 8.2576 4.95731 8.25067 4.96909 8.24594C4.98086 8.2412 4.99348 8.23877 5.00623 8.23877C5.01897 8.23877 5.0316 8.2412 5.04337 8.24594C5.05514 8.25067 5.06584 8.2576 5.07485 8.26634L6.78907 9.92889C6.79808 9.93762 6.80523 9.948 6.81011 9.95942C6.81499 9.97084 6.8175 9.98307 6.8175 9.99543C6.8175 10.0078 6.81499 10.02 6.81011 10.0314C6.80523 10.0429 6.79808 10.0532 6.78907 10.062C6.78006 10.0707 6.76936 10.0776 6.75759 10.0824C6.74581 10.0871 6.73319 10.0895 6.72045 10.0895C6.7077 10.0895 6.69508 10.0871 6.68331 10.0824C6.67153 10.0776 6.66083 10.0707 6.65182 10.062L4.9376 8.39943C4.92852 8.39073 4.92131 8.38037 4.91639 8.36895C4.91147 8.35752 4.90894 8.34527 4.90894 8.33289C4.90894 8.32051 4.91147 8.30825 4.91639 8.29683C4.92131 8.2854 4.92852 8.27504 4.9376 8.26634" fill="#231F20"/>
<path d="M6.64299 8.57178C6.59364 8.61005 6.54967 8.65443 6.51221 8.70378L7.28564 9.45378C7.30384 9.47143 7.32853 9.48134 7.35427 9.48134C7.38001 9.48134 7.40469 9.47143 7.42289 9.45378C7.44109 9.43613 7.45132 9.41219 7.45132 9.38723C7.45132 9.36227 7.44109 9.33834 7.42289 9.32069L6.6458 8.56769L6.64299 8.57178Z" fill="#231F20"/>
<path d="M5.57208 7.79066L6.3683 8.56357C6.40964 8.51448 6.45492 8.4703 6.5047 8.42994L5.70876 7.65812C5.69988 7.64926 5.68925 7.64222 5.67751 7.63741C5.66578 7.6326 5.65316 7.63013 5.64042 7.63013C5.62768 7.63013 5.61506 7.6326 5.60333 7.63741C5.59159 7.64222 5.58096 7.64926 5.57208 7.65812C5.56294 7.66673 5.55568 7.67704 5.55072 7.68842C5.54577 7.6998 5.54321 7.71203 5.54321 7.72439C5.54321 7.73675 5.54577 7.74898 5.55072 7.76036C5.55568 7.77174 5.56294 7.78205 5.57208 7.79066" fill="#231F20"/>
</svg>