<svg width="20" height="20" viewBox="0 0 20 20" fill="none" xmlns="http://www.w3.org/2000/svg">
<path d="M16.5625 8.75C16.5625 13.4375 10 17.8125 10 17.8125C10 17.8125 3.4375 13.4375 3.4375 8.75C3.4375 7.00952 4.1289 5.34032 5.35961 4.10961C6.59032 2.8789 8.25952 2.1875 10 2.1875C11.7405 2.1875 13.4097 2.8789 14.6404 4.10961C15.8711 5.34032 16.5625 7.00952 16.5625 8.75V8.75Z" stroke="#EB3800" stroke-width="1.5" stroke-linecap="round" stroke-linejoin="round"/>
<path d="M10 10.3125C10.8629 10.3125 11.5625 9.61294 11.5625 8.75C11.5625 7.88706 10.8629 7.1875 10 7.1875C9.13706 7.1875 8.4375 7.88706 8.4375 8.75C8.4375 9.61294 9.13706 10.3125 10 10.3125Z" fill="#EB3800" stroke="#EB3800" stroke-width="1.5" stroke-linecap="round" stroke-linejoin="round"/>
</svg>
