<svg width="15" height="9" viewBox="0 0 15 9" fill="none" xmlns="http://www.w3.org/2000/svg">
<path opacity="0.6" d="M0.5 1.35062C0.5 0.976388 0.920441 0.5 1.67673 0.5H8.02018C8.77646 0.5 9.1969 0.976388 9.1969 1.35062V7.64938C9.1969 8.02361 8.77646 8.5 8.02018 8.5H1.67673C0.920442 8.5 0.5 8.02361 0.5 7.64938V1.35062ZM14.5 1.35062V8.00983C14.5 8.02222 14.4914 8.09714 14.3397 8.15395C14.1934 8.20876 14.0225 8.19417 13.9022 8.11254L11.669 6.59652V2.76394L13.9022 1.24792C14.0225 1.16629 14.1934 1.1517 14.3397 1.20651C14.4914 1.26332 14.5 1.33824 14.5 1.35062Z" stroke="#373737" stroke-linecap="round" stroke-linejoin="round"/>
</svg>
