<svg width="13" height="15" viewBox="0 0 13 15" fill="none" xmlns="http://www.w3.org/2000/svg">
<path opacity="0.6" d="M12 14V14.5C12.1848 14.5 12.3545 14.3981 12.4414 14.2349C12.5282 14.0718 12.518 13.8741 12.4148 13.7208L12 14ZM12 1H12.5C12.5 0.723858 12.2761 0.5 12 0.5V1ZM12 11.1892L12.4148 11.4684C12.4703 11.3859 12.5 11.2887 12.5 11.1892H12ZM4.54839 3.66216C4.27224 3.66216 4.04839 3.88602 4.04839 4.16216C4.04839 4.4383 4.27224 4.66216 4.54839 4.66216V3.66216ZM9.16129 4.66216C9.43743 4.66216 9.66129 4.4383 9.66129 4.16216C9.66129 3.88602 9.43743 3.66216 9.16129 3.66216V4.66216ZM4.54839 5.77027C4.27224 5.77027 4.04839 5.99413 4.04839 6.27027C4.04839 6.54641 4.27224 6.77027 4.54839 6.77027V5.77027ZM9.16129 6.77027C9.43743 6.77027 9.66129 6.54641 9.66129 6.27027C9.66129 5.99413 9.43743 5.77027 9.16129 5.77027V6.77027ZM2.40541 14.5H12V13.5H2.40541V14.5ZM4 1.5H12V0.5H4V1.5ZM0.5 4V11.1892H1.5V4H0.5ZM4.54839 4.66216H9.16129V3.66216H4.54839V4.66216ZM11.5 1V11.1892H12.5V1H11.5ZM11.5852 10.9099C11.2057 11.4737 10.9677 12.0122 10.9677 12.5946C10.9677 13.177 11.2057 13.7155 11.5852 14.2792L12.4148 13.7208C12.0847 13.2305 11.9677 12.8906 11.9677 12.5946C11.9677 12.2986 12.0847 11.9587 12.4148 11.4684L11.5852 10.9099ZM2.41935 11.6892H12V10.6892H2.41935V11.6892ZM0.5 11.1892V12.5946H1.5V11.1892H0.5ZM2.41935 10.6892C1.90364 10.6892 1.42854 10.9396 1.09175 11.2731C0.755259 11.6063 0.5 12.0789 0.5 12.5946H1.5C1.5 12.4076 1.59958 12.1775 1.79535 11.9837C1.99082 11.7901 2.22539 11.6892 2.41935 11.6892V10.6892ZM4.54839 6.77027H9.16129V5.77027H4.54839V6.77027ZM2.40541 13.5C1.90536 13.5 1.5 13.0946 1.5 12.5946H0.5C0.5 13.6469 1.35308 14.5 2.40541 14.5V13.5ZM4 0.5C2.067 0.5 0.5 2.067 0.5 4H1.5C1.5 2.61929 2.61929 1.5 4 1.5V0.5Z" fill="#373737"/>
</svg>
