<svg width="17" height="18" viewBox="0 0 17 18" fill="none" xmlns="http://www.w3.org/2000/svg">
<g opacity="0.6">
<path d="M3.99927 14C2.17801 12.6823 1 10.5848 1 8.22222C1 4.2335 4.35786 1 8.5 1C12.6421 1 16 4.2335 16 8.22222C16 10.5848 14.822 12.6823 13.0007 14" stroke="#373737" stroke-linecap="round"/>
<path d="M5.5 17C5.5 17.2761 5.72386 17.5 6 17.5C6.27614 17.5 6.5 17.2761 6.5 17H5.5ZM7.5 8.20833C7.5 8.8263 7.31283 9.18914 7.07778 9.40294C6.83416 9.62453 6.46862 9.75 6 9.75V10.75C6.63595 10.75 7.27041 10.5795 7.75065 10.1427C8.23945 9.6981 8.5 9.04012 8.5 8.20833H7.5ZM6 9.75C5.53138 9.75 5.16584 9.62453 4.92222 9.40294C4.68717 9.18914 4.5 8.8263 4.5 8.20833H3.5C3.5 9.04012 3.76055 9.6981 4.24935 10.1427C4.72959 10.5795 5.36405 10.75 6 10.75V9.75ZM4.5 8.20833C4.5 7.57466 4.69899 6.85914 5.01775 6.31232C5.35226 5.7385 5.72164 5.5 6 5.5V4.5C5.17379 4.5 4.54317 5.1408 4.15382 5.8087C3.74873 6.50361 3.5 7.39226 3.5 8.20833H4.5ZM6 5.5C6.27836 5.5 6.64774 5.7385 6.98225 6.31232C7.30101 6.85914 7.5 7.57466 7.5 8.20833H8.5C8.5 7.39226 8.25127 6.50361 7.84618 5.8087C7.45683 5.1408 6.82621 4.5 6 4.5V5.5ZM5.5 10.25V17H6.5V10.25H5.5Z" fill="#373737"/>
<path d="M13.5 5C13.5 4.72386 13.2761 4.5 13 4.5C12.7239 4.5 12.5 4.72386 12.5 5H13.5ZM8.5 5C8.5 4.72386 8.27614 4.5 8 4.5C7.72386 4.5 7.5 4.72386 7.5 5H8.5ZM10 17C10 17.2761 10.2239 17.5 10.5 17.5C10.7761 17.5 11 17.2761 11 17H10ZM10 6.875C10 7.15114 10.2239 7.375 10.5 7.375C10.7761 7.375 11 7.15114 11 6.875H10ZM11 5C11 4.72386 10.7761 4.5 10.5 4.5C10.2239 4.5 10 4.72386 10 5H11ZM12.5 5V7.55263H13.5V5H12.5ZM8.5 7.55263V5H7.5V7.55263H8.5ZM10 10.0526V17H11V10.0526H10ZM11 6.875V5H10V6.875H11ZM7.5 7.55263C7.5 9.20949 8.84315 10.5526 10.5 10.5526V9.55263C9.39543 9.55263 8.5 8.6572 8.5 7.55263H7.5ZM12.5 7.55263C12.5 8.6572 11.6046 9.55263 10.5 9.55263V10.5526C12.1569 10.5526 13.5 9.20949 13.5 7.55263H12.5Z" fill="#373737"/>
</g>
</svg>
