<svg width="16" height="14" viewBox="0 0 16 14" fill="none" xmlns="http://www.w3.org/2000/svg">
<g opacity="0.6">
<path d="M1 0.5C0.723858 0.5 0.5 0.723858 0.5 1C0.5 1.27614 0.723858 1.5 1 1.5V0.5ZM2.70732 1L3.18049 0.838428C3.11138 0.63603 2.92119 0.5 2.70732 0.5V1ZM5.78049 10L5.30731 10.1616C5.37642 10.364 5.56662 10.5 5.78049 10.5V10ZM13.2927 10V10.5C13.5161 10.5 13.7124 10.3518 13.7736 10.1368L13.2927 10ZM15 4L15.4809 4.13684C15.5238 3.98603 15.4935 3.82382 15.399 3.69869C15.3045 3.57356 15.1568 3.5 15 3.5V4ZM1 1.5H2.70732V0.5H1V1.5ZM5.78049 10.5H13.2927V9.5H5.78049V10.5ZM13.7736 10.1368L15.4809 4.13684L14.5191 3.86316L12.8118 9.86316L13.7736 10.1368ZM2.23414 1.16157L3.25853 4.16157L4.20488 3.83843L3.18049 0.838428L2.23414 1.16157ZM3.25853 4.16157L5.30731 10.1616L6.25366 9.83843L4.20488 3.83843L3.25853 4.16157ZM15 3.5H3.73171V4.5H15V3.5Z" fill="#373737"/>
<circle cx="7" cy="13" r="1" fill="#373737"/>
<circle cx="12" cy="13" r="1" fill="#373737"/>
</g>
</svg>
