<svg width="23" height="23" viewBox="0 0 23 23" fill="none" xmlns="http://www.w3.org/2000/svg">
<path d="M11.5713 0.000340396C11.4311 -0.00145587 11.3054 0.00393289 11.1832 0.0147104C11.1778 0.0147104 11.1742 0.0147104 11.1688 0.0147104C10.3926 0.102726 9.72959 0.594898 9.14204 1.2649C8.55449 1.9349 8.02624 2.80428 7.56087 3.76527C6.63014 5.68726 5.93119 7.96849 5.5341 9.70007C4.96452 12.1088 3.68161 13.2531 2.44363 14.4565C1.20564 15.66 0 16.9713 0 19.4142C0 20.2818 0.463571 21.011 1.13557 21.5266C1.80757 22.0421 2.6844 22.3995 3.66544 22.6331C5.62753 23.1001 7.9903 23.0965 9.83201 22.7624V22.7768C14.3365 21.999 19.0441 19.4932 21.4464 16.3821C22.6467 14.8266 23.2756 13.0806 22.8839 11.3383C22.5029 9.6408 21.1535 8.04034 18.7009 6.66801C18.1008 3.90897 16.7281 2.1738 15.2511 1.19305C13.9251 0.312888 12.547 0.00932161 11.5713 0.000340396ZM11.5713 0.920019C12.3493 0.932593 13.5801 1.18946 14.7336 1.95466C16.0579 2.83482 17.321 4.36522 17.8529 7.04163C17.878 7.17635 17.9625 7.29131 18.0828 7.35777C20.5175 8.67621 21.6764 10.1294 21.9926 11.5394C22.3089 12.9495 21.8058 14.4062 20.7133 15.8217C18.5267 18.6544 13.9538 21.117 9.67389 21.8571C9.67389 21.8625 9.67389 21.8661 9.67389 21.8714C7.97413 22.1804 5.67964 22.157 3.88106 21.7277C2.98087 21.514 2.21184 21.2032 1.69617 20.8081C1.18049 20.4129 0.919954 19.9728 0.919954 19.4142C0.919954 17.2587 1.86866 16.3049 3.09047 15.1176C4.31228 13.9302 5.79823 12.5651 6.4253 9.91562C6.80982 8.24511 7.50876 5.99442 8.39458 4.16763C8.83659 3.25514 9.32891 2.44324 9.83201 1.86844C10.3297 1.29903 10.8166 0.988277 11.2551 0.934389C11.2587 0.934389 11.2658 0.934389 11.2694 0.934389C11.3611 0.927204 11.4599 0.918223 11.5713 0.920019ZM11.5569 2.29954C11.4383 2.29954 11.3323 2.30313 11.2263 2.31391C10.5292 2.37678 9.99551 2.85997 9.58764 3.47787C9.17977 4.09578 8.85276 4.88973 8.58145 5.74833C8.03882 7.46554 7.69204 9.46836 7.37401 10.8497C6.89786 12.8399 5.65628 14.3613 4.49915 15.5918C3.92059 16.2061 3.35639 16.7521 2.93235 17.2587C2.51191 17.7616 2.18309 18.2484 2.21364 18.8394C2.21364 18.8466 2.22801 18.8466 2.22801 18.8538C2.24778 19.1376 2.39871 19.3836 2.58737 19.5435C2.78142 19.707 3.00961 19.8291 3.27734 19.9315C3.81278 20.1381 4.50095 20.271 5.27536 20.3626C6.82419 20.5458 8.71261 20.5207 10.2489 20.2333V20.2476C14.0005 19.61 17.7648 17.7904 19.6928 15.4481C20.6558 14.2769 21.1661 12.9154 20.8427 11.5538C20.5301 10.2354 19.4502 9.01032 17.551 7.9182C17.0659 5.59565 15.9195 4.11734 14.6761 3.29106C13.5549 2.54562 12.3924 2.29594 11.5569 2.29954ZM11.5569 3.21922C12.1876 3.22101 13.2064 3.42039 14.1587 4.05267C15.2457 4.77477 16.2861 6.03932 16.7029 8.27745C16.7245 8.41755 16.8089 8.5397 16.9329 8.60796C18.8213 9.65158 19.7089 10.7473 19.9515 11.7694C20.1941 12.7914 19.8221 13.8296 18.9741 14.8589C17.2797 16.9192 13.652 18.7226 10.0907 19.328C10.0854 19.3333 10.0818 19.3369 10.0764 19.3423C8.66949 19.6064 6.84216 19.6297 5.39036 19.4573C4.66445 19.3711 4.023 19.2292 3.60794 19.0693C3.40131 18.9885 3.25038 18.9005 3.17672 18.8394C3.14617 18.8142 3.13719 18.8053 3.13359 18.7963C3.13359 18.7819 3.1318 18.7747 3.13359 18.7819C3.1318 18.6166 3.28452 18.2861 3.65107 17.8479C4.0266 17.3988 4.56563 16.8563 5.16037 16.224C6.34984 14.9595 7.72977 13.3051 8.26521 11.0652C8.59223 9.64259 8.95697 7.65056 9.47265 6.02136C9.72959 5.20766 10.0225 4.49096 10.3495 3.99519C10.6765 3.49943 10.9981 3.26233 11.3126 3.23359C11.3862 3.2264 11.4671 3.21922 11.5569 3.21922ZM12.5631 5.07294C11.8336 5.04061 11.1113 5.4753 10.7663 6.20817C10.3046 7.18892 10.5777 8.41396 11.4994 8.96721C11.5048 8.96721 11.5084 8.96721 11.5138 8.96721C12.4373 9.45938 13.5693 9.01211 14.0293 8.03316C14.4911 7.05241 14.218 5.82737 13.2962 5.27412C13.2908 5.26873 13.2872 5.26514 13.2818 5.25975C13.0518 5.13761 12.8057 5.08372 12.5631 5.07294ZM12.4913 5.97825C12.608 5.98544 12.7248 6.02136 12.8362 6.07884C13.2818 6.36085 13.4669 7.0542 13.1956 7.6308C12.9207 8.21637 12.4014 8.40678 11.945 8.16249C11.4994 7.88048 11.3287 7.17275 11.6 6.59616C11.7384 6.30337 11.9253 6.12375 12.1463 6.03573C12.2541 5.99262 12.3745 5.97107 12.4913 5.97825ZM16.976 10.9503C16.9365 10.9592 16.897 10.9736 16.861 10.9934L9.63077 13.6949C9.3918 13.7865 9.27321 14.0524 9.36484 14.2913C9.45648 14.5302 9.7224 14.6487 9.96138 14.5571L17.1773 11.8556C17.418 11.8035 17.5762 11.57 17.533 11.3275C17.4899 11.0832 17.2635 10.9179 17.0191 10.9503C17.0048 10.9503 16.9904 10.9503 16.976 10.9503ZM16.976 13.3932C16.9365 13.3985 16.8988 13.4075 16.861 13.4219L8.07835 16.6839C7.91484 16.7342 7.79266 16.8689 7.76031 17.0359C7.72797 17.2048 7.79086 17.3754 7.92382 17.4814C8.05678 17.5892 8.23826 17.6143 8.39458 17.5461L17.1773 14.2841C17.3965 14.2069 17.524 13.9769 17.4719 13.7488C17.4216 13.5225 17.2078 13.3698 16.976 13.3932Z" fill="#1CBD8D"/>
</svg>
