<svg width="21" height="24" viewBox="0 0 21 24" fill="none" xmlns="http://www.w3.org/2000/svg">
<path d="M4.97368 1.95887e-08C4.83774 -3.59195e-05 4.70655 0.0493819 4.6052 0.138806C4.50384 0.22823 4.43944 0.351386 4.42429 0.48473L3.92671 4.90909H2.76316C2.44079 4.90909 2.18295 5.05136 1.9925 5.23935C1.80204 5.42733 1.65789 5.68182 1.65789 6V7.20277C0.718739 7.45395 0 8.27426 0 9.27273V22.3636C0 23.2612 0.748565 24 1.65789 24H9.39474C9.82424 24 10.2042 23.8136 10.5 23.5451C10.7958 23.8136 11.1758 24 11.6053 24H19.3421C20.2514 24 21 23.2612 21 22.3636V9.27273C21 8.29003 20.2994 7.45533 19.3421 7.20277V6C19.3421 5.68182 19.198 5.42733 19.0075 5.23935C18.817 5.05136 18.5592 4.90909 18.2368 4.90909H17.0733L16.5757 0.48473C16.5606 0.351386 16.4962 0.22823 16.3948 0.138806C16.2934 0.0493819 16.1623 -3.59195e-05 16.0263 1.95887e-08H14.9211C14.7851 -3.59195e-05 14.6539 0.0493819 14.5526 0.138806C14.4512 0.22823 14.3868 0.351386 14.3717 0.48473L13.8741 4.90909H12.7105C12.3882 4.90909 12.1303 5.05136 11.9399 5.23935C11.7494 5.42733 11.6053 5.68182 11.6053 6V7.20277C11.169 7.31944 10.7914 7.54538 10.5032 7.87713C10.2179 7.54528 9.83755 7.31959 9.39474 7.20277V6C9.39474 5.68182 9.25059 5.42733 9.06013 5.23935C8.86968 5.05136 8.61184 4.90909 8.28947 4.90909H7.12593L6.62834 0.48473C6.61319 0.351386 6.54879 0.22823 6.44743 0.138806C6.34608 0.0493819 6.21489 -3.59195e-05 6.07895 1.95887e-08H4.97368ZM5.46803 1.09091H5.5846L6.08219 5.51527C6.09733 5.64861 6.16174 5.77177 6.26309 5.86119C6.36444 5.95062 6.49563 6.00004 6.63158 6H8.28947V7.09091H2.76316V6H4.42105C4.557 6.00004 4.68819 5.95062 4.78954 5.86119C4.89089 5.77177 4.9553 5.64861 4.97045 5.51527L5.46803 1.09091ZM15.4154 1.09091H15.532L16.0296 5.51527C16.0447 5.64861 16.1091 5.77177 16.2105 5.86119C16.3118 5.95062 16.443 6.00004 16.5789 6H18.2368V7.09091H12.7105V6H14.3684C14.5044 6.00004 14.6356 5.95062 14.7369 5.86119C14.8383 5.77177 14.9027 5.64861 14.9178 5.51527L15.4154 1.09091ZM2.21053 8.18182H8.8421C9.47817 8.18182 9.94737 8.69545 9.94737 9.27273V22.3636C9.94737 22.6661 9.7012 22.9091 9.39474 22.9091H1.65789C1.35144 22.9091 1.10526 22.6661 1.10526 22.3636V19.0909H7.18421C7.33077 19.0909 7.47133 19.0334 7.57496 18.9311C7.6786 18.8288 7.73683 18.6901 7.73684 18.5455V12.5455C7.73683 12.4008 7.6786 12.2621 7.57496 12.1598C7.47133 12.0575 7.33077 12 7.18421 12H1.10526V9.27273C1.10526 8.71818 1.64868 8.18182 2.21053 8.18182ZM12.1579 8.18182H18.7895C19.4255 8.18182 19.8947 8.69545 19.8947 9.27273V22.3636C19.8947 22.6661 19.6486 22.9091 19.3421 22.9091H11.6053C11.2988 22.9091 11.0526 22.6661 11.0526 22.3636V19.0909H17.1316C17.2781 19.0909 17.4187 19.0334 17.5223 18.9311C17.626 18.8288 17.6842 18.6901 17.6842 18.5455V12.5455C17.6842 12.4008 17.626 12.2621 17.5223 12.1598C17.4187 12.0575 17.2781 12 17.1316 12H11.0526V9.27273C11.0526 8.71818 11.5961 8.18182 12.1579 8.18182ZM1.10526 13.0909H6.63158V18H1.10526V13.0909ZM11.0526 13.0909H16.5789V18H11.0526V13.0909Z" fill="#1CBD8D"/>
</svg>
