<svg width="24" height="24" viewBox="0 0 24 24" fill="none" xmlns="http://www.w3.org/2000/svg">
<path d="M4.10092 0.00207793C4.08115 0.00567168 4.06139 0.0110623 4.04342 0.0164529C3.82959 0.0649687 3.67865 0.257234 3.68404 0.476453C3.68404 1.95887 4.35248 3.34786 5.33717 4.60208C5.17904 4.68473 5.00295 4.78177 4.81967 4.9327C4.24826 5.40169 3.68404 6.26958 3.68404 7.6927C3.68404 9.71059 5.40186 11.6512 8.06842 12.6233C10.735 13.5954 14.4078 13.6062 18.5047 11.7465C18.6394 11.68 18.7347 11.5524 18.758 11.4032C18.7814 11.2541 18.7293 11.1032 18.6197 10.999C18.4256 10.8193 18.1417 10.3682 17.8147 9.7627C17.4876 9.15716 17.1013 8.39708 16.5928 7.56333C15.5776 5.89583 14.0808 3.93544 11.619 2.30208C10.6415 1.65341 9.73412 1.39645 8.94529 1.41083C8.15646 1.4252 7.48623 1.71809 6.97592 2.12958C6.46561 2.54106 6.10084 3.05137 5.86904 3.53833C5.84568 3.58684 5.82771 3.63536 5.81154 3.68208C5.07123 2.63989 4.60404 1.54739 4.60404 0.476453C4.60943 0.343484 4.55553 0.215906 4.46029 0.126062C4.36326 0.0344217 4.23209 -0.0105002 4.10092 0.00207793ZM8.97404 2.30208C9.55264 2.29309 10.2534 2.49255 11.1159 3.06395C13.4393 4.60567 14.8283 6.43848 15.8022 8.0377C16.2891 8.83731 16.6737 9.57403 17.0097 10.194C17.2127 10.5677 17.4176 10.8049 17.6134 11.0852C13.9226 12.6287 10.6937 12.6018 8.38467 11.7608C5.96967 10.8804 4.60404 9.16973 4.60404 7.6927C4.60404 6.49419 5.01193 5.95153 5.39467 5.63708C5.58693 5.48075 5.78279 5.3927 5.92654 5.3352C5.93912 5.32981 5.94451 5.32622 5.95529 5.32083C6.33803 5.7395 6.74771 6.1438 7.17717 6.52833C9.08365 8.23536 11.3621 9.61536 12.8984 10.4527C13.044 10.5551 13.2344 10.5641 13.3908 10.4779C13.5453 10.3898 13.6351 10.2209 13.6226 10.043C13.61 9.86512 13.495 9.71239 13.3297 9.6477C11.8293 8.83012 9.61373 7.48067 7.79529 5.8527C7.33529 5.44122 6.90404 5.01536 6.51592 4.57333C6.53748 4.42778 6.57521 4.20856 6.70279 3.94083C6.88248 3.56348 7.16998 3.15559 7.55092 2.84833C7.93186 2.54106 8.39545 2.31106 8.97404 2.30208ZM18.3897 8.1527C18.1669 8.17606 17.9926 8.35755 17.9782 8.58036C17.9638 8.80497 18.1129 9.00802 18.3322 9.05833C19.5666 9.37278 20.5513 9.76809 21.1928 10.1796C21.8343 10.5911 22.084 10.9846 22.084 11.2865C22.084 11.5578 21.9008 11.8848 21.4084 12.2496C20.9161 12.6143 20.147 12.9809 19.1803 13.2846C17.2487 13.8919 14.5246 14.2765 11.504 14.2765C8.4835 14.2765 5.75943 13.8919 3.82779 13.2846C2.86107 12.9809 2.09201 12.6143 1.59967 12.2496C1.10732 11.8848 0.924043 11.5578 0.924043 11.2865C0.924043 11.0672 1.04623 10.7995 1.38404 10.4958C1.72186 10.1922 2.25553 9.87591 2.93654 9.5902C3.10545 9.53989 3.22943 9.39973 3.25998 9.22723C3.28873 9.05473 3.21865 8.88044 3.0767 8.77622C2.93475 8.6738 2.74607 8.66122 2.59154 8.74208C1.84764 9.05473 1.22053 9.41051 0.765918 9.8202C0.311309 10.2299 0.00404299 10.724 0.00404299 11.2865C0.00404299 11.326 0.000449236 11.3619 0.00404299 11.4015C-0.00134766 11.4392 -0.00134766 11.4787 0.00404299 11.5165C0.00404299 14.1794 0.945605 16.4022 1.93029 17.9996C2.91498 19.597 3.98771 20.6033 4.14404 20.7596C5.1485 21.764 7.54193 23.0165 11.504 23.0165C15.4536 23.0165 17.7266 21.7784 18.8353 20.774H18.8497C19.103 20.5493 20.1165 19.5898 21.0922 17.9996C22.0715 16.4022 23.004 14.1776 23.004 11.5165C23.0022 11.4877 22.9969 11.459 22.9897 11.4302C22.9951 11.3817 23.004 11.3368 23.004 11.2865C23.004 10.53 22.4686 9.89927 21.6959 9.40333C20.9233 8.90739 19.8577 8.4977 18.5622 8.16708C18.5208 8.1563 18.4759 8.15091 18.4328 8.1527C18.4184 8.1527 18.404 8.1527 18.3897 8.1527ZM1.03904 12.9827C1.04443 12.9863 1.04803 12.9935 1.05342 12.9971C1.67514 13.4571 2.52506 13.838 3.55467 14.1615C5.61389 14.8083 8.40623 15.1965 11.504 15.1965C14.6019 15.1965 17.3942 14.8083 19.4534 14.1615C20.483 13.838 21.333 13.4571 21.9547 12.9971C21.9601 12.9935 21.9637 12.9863 21.969 12.9827C21.7121 14.7832 21.0275 16.3267 20.3015 17.5108C19.3833 19.0058 18.3987 19.951 18.2315 20.0983C17.3133 20.9321 15.2739 22.0965 11.504 22.0965C7.73779 22.0965 5.53303 20.8548 4.79092 20.1127C4.58068 19.9025 3.64451 19.0076 2.72092 17.5108C1.98959 16.3267 1.29959 14.7832 1.03904 12.9827Z" fill="#1CBD8D"/>
</svg>
