<svg width="20" height="19" viewBox="0 0 20 19" fill="none" xmlns="http://www.w3.org/2000/svg">
<path d="M2.07031 9.2529V16.7529C2.07031 17.3052 2.51803 17.7529 3.07031 17.7529H9.82031M2.07031 9.2529H9.82031M2.07031 9.2529H1.07031V5.7529H9.82031M17.5703 9.2529V16.7529C17.5703 17.3052 17.1226 17.7529 16.5703 17.7529H9.82031M17.5703 9.2529H9.82031M17.5703 9.2529H18.5703V5.7529H9.82031M9.82031 9.2529V17.7529M9.82031 9.2529V5.7529M9.82031 5.7529L11.0268 2.30572C11.3409 1.40829 12.2552 0.867055 13.1931 1.02337L13.2369 1.03067C14.0346 1.16361 14.6596 1.78865 14.7925 2.58628C14.9508 3.5357 14.3712 4.45265 13.4457 4.71707L9.82031 5.7529ZM9.82031 5.7529L8.21801 2.19223C7.8363 1.34399 6.93095 0.859461 6.01344 1.01238L5.8865 1.03354C5.09916 1.16476 4.48217 1.78174 4.35095 2.56909C4.19203 3.52257 4.78674 4.4398 5.72207 4.68379L9.82031 5.7529Z" stroke="#8B8B8B" stroke-linejoin="round"/>
</svg>
