<svg width="20" height="20" viewBox="0 0 20 20" fill="none" xmlns="http://www.w3.org/2000/svg">
<path d="M9.75391 18.5078C8.9116 18.5078 8.09707 18.3888 7.32622 18.1668M9.75391 18.5078C10.5962 18.5078 11.4107 18.3888 12.1816 18.1668M9.75391 18.5078V1M9.75391 1C8.9116 1 8.09707 1.11896 7.32622 1.34101M9.75391 1C10.5962 1 11.4107 1.11896 12.1816 1.34101M7.32622 1.34101C4.191 2.24411 1.77819 4.85236 1.15659 8.09698M7.32622 1.34101C7.32622 1.34101 4.75945 4.14875 4.75945 9.75391C4.75945 15.3591 7.32622 18.1668 7.32622 18.1668M7.32622 18.1668C4.191 17.2637 1.77819 14.6555 1.15659 11.4108M12.1816 1.34101C15.3168 2.24411 17.7296 4.85236 18.3512 8.09698M12.1816 1.34101C12.1816 1.34101 14.7432 3.6942 14.7432 9.75391C14.7432 15.8136 12.1816 18.1668 12.1816 18.1668M12.1816 18.1668C15.3168 17.2637 17.7296 14.6555 18.3512 11.4108M1.15659 8.09698C1.05381 8.6335 1 9.18742 1 9.75391C1 10.3204 1.05381 10.8743 1.15659 11.4108M1.15659 8.09698C1.15659 8.09698 3.71558 6.16757 9.75391 6.16757C15.7922 6.16757 18.3512 8.09698 18.3512 8.09698M18.3512 8.09698C18.454 8.6335 18.5078 9.18742 18.5078 9.75391C18.5078 10.3204 18.454 10.8743 18.3512 11.4108M1.15659 11.4108C1.15659 11.4108 3.36593 12.9334 9.75391 12.9334C16.1419 12.9334 18.3512 11.4108 18.3512 11.4108" stroke="#8B8B8B" stroke-linecap="round" stroke-linejoin="round"/>
</svg>
