<svg viewBox="0 0 29 29" xmlns="http://www.w3.org/2000/svg">
    <path d="M9.28023 1.74023C5.12163 1.74023 1.74023 5.12163 1.74023 9.28023V19.7202C1.74023 23.8788 5.12163 27.2602 9.28023 27.2602H19.7202C23.8788 27.2602 27.2602 23.8788 27.2602 19.7202V9.28023C27.2602 5.12163 23.8788 1.74023 19.7202 1.74023H9.28023ZM21.4602 6.38023C22.0982 6.38023 22.6202 6.90223 22.6202 7.54023C22.6202 8.17823 22.0982 8.70023 21.4602 8.70023C20.8222 8.70023 20.3002 8.17823 20.3002 7.54023C20.3002 6.90223 20.8222 6.38023 21.4602 6.38023ZM14.5002 8.12023C18.0208 8.12023 20.8802 10.9796 20.8802 14.5002C20.8802 18.0208 18.0208 20.8802 14.5002 20.8802C10.9796 20.8802 8.12023 18.0208 8.12023 14.5002C8.12023 10.9796 10.9796 8.12023 14.5002 8.12023ZM14.5002 9.28023C11.6234 9.28023 9.28023 11.6234 9.28023 14.5002C9.28023 17.377 11.6234 19.7202 14.5002 19.7202C17.377 19.7202 19.7202 17.377 19.7202 14.5002C19.7202 11.6234 17.377 9.28023 14.5002 9.28023Z"/>
</svg>
