<svg width="24" height="23" viewBox="0 0 24 23" fill="none" xmlns="http://www.w3.org/2000/svg">
<path d="M12.1462 0.000340396C12.0061 -0.00145587 11.8803 0.00393289 11.7581 0.0147104C11.7528 0.0147104 11.7492 0.0147104 11.7438 0.0147104C10.9676 0.102726 10.3045 0.594898 9.71699 1.2649C9.12945 1.9349 8.60119 2.80428 8.13582 3.76527C7.20509 5.68726 6.50614 7.96849 6.10905 9.70007C5.53947 12.1088 4.25656 13.2531 3.01858 14.4565C1.78059 15.66 0.574951 16.9713 0.574951 19.4142C0.574951 20.2818 1.03852 21.011 1.71052 21.5266C2.38252 22.0421 3.25935 22.3995 4.24039 22.6331C6.20248 23.1001 8.56525 23.0965 10.407 22.7624V22.7768C14.9115 21.999 19.6191 19.4932 22.0214 16.3821C23.2216 14.8266 23.8505 13.0806 23.4588 11.3383C23.0779 9.6408 21.7285 8.04034 19.2759 6.66801C18.6758 3.90897 17.303 2.1738 15.8261 1.19305C14.5 0.312888 13.1219 0.00932161 12.1462 0.000340396ZM12.1462 0.920019C12.9243 0.932593 14.1551 1.18946 15.3086 1.95466C16.6328 2.83482 17.896 4.36522 18.4278 7.04163C18.453 7.17635 18.5374 7.29131 18.6578 7.35777C21.0924 8.67621 22.2514 10.1294 22.5676 11.5394C22.8838 12.9495 22.3807 14.4062 21.2883 15.8217C19.1016 18.6544 14.5288 21.117 10.2488 21.8571C10.2488 21.8625 10.2488 21.8661 10.2488 21.8714C8.54908 22.1804 6.25459 22.157 4.45601 21.7277C3.55582 21.514 2.78679 21.2032 2.27112 20.8081C1.75544 20.4129 1.49491 19.9728 1.49491 19.4142C1.49491 17.2587 2.44361 16.3049 3.66542 15.1176C4.88724 13.9302 6.37318 12.5651 7.00025 9.91562C7.38477 8.24511 8.08372 5.99442 8.96953 4.16763C9.41154 3.25514 9.90386 2.44324 10.407 1.86844C10.9047 1.29903 11.3916 0.988277 11.83 0.934389C11.8336 0.934389 11.8408 0.934389 11.8444 0.934389C11.936 0.927204 12.0348 0.918223 12.1462 0.920019ZM12.1319 2.29954C12.0133 2.29954 11.9073 2.30313 11.8013 2.31391C11.1041 2.37678 10.5705 2.85997 10.1626 3.47787C9.75473 4.09578 9.42771 4.88973 9.1564 5.74833C8.61377 7.46554 8.26699 9.46836 7.94896 10.8497C7.47281 12.8399 6.23123 14.3613 5.0741 15.5918C4.49554 16.2061 3.93135 16.7521 3.5073 17.2587C3.08686 17.7616 2.75805 18.2484 2.78859 18.8394C2.78859 18.8466 2.80296 18.8466 2.80296 18.8538C2.82273 19.1376 2.97366 19.3836 3.16232 19.5435C3.35637 19.707 3.58457 19.8291 3.85229 19.9315C4.38773 20.1381 5.0759 20.271 5.85031 20.3626C7.39914 20.5458 9.28756 20.5207 10.8238 20.2333V20.2476C14.5755 19.61 18.3398 17.7904 20.2677 15.4481C21.2308 14.2769 21.7411 12.9154 21.4177 11.5538C21.105 10.2354 20.0251 9.01032 18.1259 7.9182C17.6408 5.59565 16.4945 4.11734 15.2511 3.29106C14.1299 2.54562 12.9674 2.29594 12.1319 2.29954ZM12.1319 3.21922C12.7625 3.22101 13.7813 3.42039 14.7336 4.05267C15.8207 4.77477 16.861 6.03932 17.2779 8.27745C17.2994 8.41755 17.3839 8.5397 17.5079 8.60796C19.3963 9.65158 20.2839 10.7473 20.5265 11.7694C20.769 12.7914 20.3971 13.8296 19.549 14.8589C17.8546 16.9192 14.2269 18.7226 10.6657 19.328C10.6603 19.3333 10.6567 19.3369 10.6513 19.3423C9.24444 19.6064 7.41711 19.6297 5.96531 19.4573C5.23941 19.3711 4.59795 19.2292 4.1829 19.0693C3.97627 18.9885 3.82534 18.9005 3.75167 18.8394C3.72112 18.8142 3.71214 18.8053 3.70854 18.7963C3.70854 18.7819 3.70675 18.7747 3.70854 18.7819C3.70675 18.6166 3.85947 18.2861 4.22602 17.8479C4.60155 17.3988 5.14058 16.8563 5.73532 16.224C6.92479 14.9595 8.30472 13.3051 8.84016 11.0652C9.16718 9.64259 9.53192 7.65056 10.0476 6.02136C10.3045 5.20766 10.5974 4.49096 10.9244 3.99519C11.2514 3.49943 11.5731 3.26233 11.8875 3.23359C11.9612 3.2264 12.042 3.21922 12.1319 3.21922ZM13.1381 5.07294C12.4086 5.04061 11.6863 5.4753 11.3413 6.20817C10.8795 7.18892 11.1526 8.41396 12.0744 8.96721C12.0798 8.96721 12.0834 8.96721 12.0887 8.96721C13.0123 9.45938 14.1443 9.01211 14.6042 8.03316C15.066 7.05241 14.7929 5.82737 13.8712 5.27412C13.8658 5.26873 13.8622 5.26514 13.8568 5.25975C13.6268 5.13761 13.3806 5.08372 13.1381 5.07294ZM13.0662 5.97825C13.183 5.98544 13.2998 6.02136 13.4112 6.07884C13.8568 6.36085 14.0419 7.0542 13.7705 7.6308C13.4956 8.21637 12.9764 8.40678 12.52 8.16249C12.0744 7.88048 11.9037 7.17275 12.175 6.59616C12.3133 6.30337 12.5002 6.12375 12.7212 6.03573C12.829 5.99262 12.9494 5.97107 13.0662 5.97825ZM17.551 10.9503C17.5114 10.9592 17.4719 10.9736 17.436 10.9934L10.2057 13.6949C9.96675 13.7865 9.84816 14.0524 9.93979 14.2913C10.0314 14.5302 10.2974 14.6487 10.5363 14.5571L17.7522 11.8556C17.993 11.8035 18.1511 11.57 18.108 11.3275C18.0649 11.0832 17.8385 10.9179 17.5941 10.9503C17.5797 10.9503 17.5654 10.9503 17.551 10.9503ZM17.551 13.3932C17.5114 13.3985 17.4737 13.4075 17.436 13.4219L8.6533 16.6839C8.48979 16.7342 8.36761 16.8689 8.33527 17.0359C8.30292 17.2048 8.36581 17.3754 8.49877 17.4814C8.63173 17.5892 8.81321 17.6143 8.96953 17.5461L17.7522 14.2841C17.9714 14.2069 18.099 13.9769 18.0469 13.7488C17.9966 13.5225 17.7828 13.3698 17.551 13.3932Z" fill="#1CBD8D"/>
</svg>
