<svg width="24" height="23" viewBox="0 0 24 23" fill="none" xmlns="http://www.w3.org/2000/svg">
<path d="M6.56146 17.8022C8.08167 20.4181 13.3386 23.619 18.9939 21.8037C23.3747 20.3975 23.7887 16.8 22.0251 15.2116C20.1499 13.5227 18.479 14.7043 14.9103 12.656M6.56146 17.8022C4.78031 18.032 3.31785 17.3926 2.34039 16.3636M6.56146 17.8022C7.61084 17.6668 9.51425 17.2103 11.382 16.0806M14.9103 12.656C14.9052 12.6531 14.9002 12.6502 14.8951 12.6472M14.9103 12.656C13.9472 14.1968 12.6731 15.2996 11.382 16.0806M14.9103 12.656C15.9671 10.9654 16.6494 8.74726 16.569 5.84807C16.4408 1.23106 10.5552 -1.08203 8.51477 5.05009C7.275 8.77597 4.75443 8.63895 2.99707 9.6611C0.381955 11.1822 0.52075 14.4479 2.34039 16.3636M2.34039 16.3636C5.44761 15.5452 11.9854 11.9955 13.2786 4.34337M11.382 16.0806C12.0309 16.8241 14.7079 18.2602 20.224 18.0567" stroke="#373737" stroke-linecap="round"/>
</svg>
