<svg width="27" height="24" viewBox="0 0 27 24" fill="none" xmlns="http://www.w3.org/2000/svg">
<path d="M7.11368 20.326L6.61529 20.366L7.11368 20.326ZM6.10519 7.77791L6.60359 7.73786C6.58528 7.51004 6.41482 7.32364 6.18954 7.28508C5.96427 7.24652 5.74152 7.36563 5.64849 7.57439L6.10519 7.77791ZM4.46875 20.3209V20.8209C4.60836 20.8209 4.74162 20.7625 4.83628 20.6599C4.93094 20.5572 4.97838 20.4197 4.96712 20.2805L4.46875 20.3209ZM2.34191 20.3209L1.85131 20.4174C1.89743 20.6518 2.10298 20.8209 2.34191 20.8209V20.3209ZM6.06725 2.7338L5.90991 2.2592L6.06725 2.7338ZM10.2839 1.33594L10.5602 0.919249C10.4322 0.834361 10.2723 0.813008 10.1265 0.861337L10.2839 1.33594ZM1.10637 14.0402L1.59696 13.9436L1.10637 14.0402ZM1.16345 11.5985L1.649 11.7178L1.16345 11.5985ZM2.35439 6.75268L2.83995 6.87201L2.35439 6.75268ZM3.86137 12.813L3.40467 12.6095L3.35271 12.7261L3.363 12.8533L3.86137 12.813ZM20.1637 20.326L20.6621 20.366L20.1637 20.326ZM21.1722 7.77791L21.6289 7.57439C21.5359 7.36563 21.3131 7.24652 21.0879 7.28508C20.8626 7.32364 20.6921 7.51004 20.6738 7.73786L21.1722 7.77791ZM22.8087 20.3209L22.3103 20.2805C22.299 20.4197 22.3465 20.5572 22.4411 20.6599C22.5358 20.7625 22.669 20.8209 22.8087 20.8209V20.3209ZM24.9355 20.3209V20.8209C25.1744 20.8209 25.38 20.6518 25.4261 20.4174L24.9355 20.3209ZM21.2102 2.7338L21.0528 3.2084L21.2102 2.7338ZM16.9935 1.33594L17.1509 0.861337C17.0051 0.813008 16.8452 0.834361 16.7172 0.919249L16.9935 1.33594ZM26.171 14.0402L25.6804 13.9436L26.171 14.0402ZM26.114 11.5985L25.6284 11.7178L26.114 11.5985ZM24.923 6.75268L25.4086 6.63335L24.923 6.75268ZM23.416 12.813L23.9144 12.8533L23.9247 12.7261L23.8727 12.6095L23.416 12.813ZM13.6387 3.56091L13.3624 3.9776C13.5298 4.08868 13.7476 4.08868 13.9151 3.9776L13.6387 3.56091ZM7.61208 20.2859L6.60359 7.73786L5.6068 7.81797L6.61529 20.366L7.61208 20.2859ZM4.46875 19.8209H2.34191V20.8209H4.46875V19.8209ZM6.22459 3.2084L10.4412 1.81054L10.1265 0.861337L5.90991 2.2592L6.22459 3.2084ZM9.93266 23.4275H14.5927V22.4275H9.93266V23.4275ZM2.83251 20.2243L1.59696 13.9436L0.615769 14.1367L1.85131 20.4174L2.83251 20.2243ZM1.649 11.7178L2.83995 6.87201L1.86884 6.63335L0.677902 11.4791L1.649 11.7178ZM5.64849 7.57439L3.40467 12.6095L4.31808 13.0165L6.5619 7.98144L5.64849 7.57439ZM3.363 12.8533L3.97038 20.3612L4.96712 20.2805L4.35974 12.7727L3.363 12.8533ZM1.59696 13.9436C1.452 13.2068 1.46976 12.4471 1.649 11.7178L0.677902 11.4791C0.4639 12.3499 0.442695 13.2569 0.615769 14.1367L1.59696 13.9436ZM5.90991 2.2592C3.90037 2.92539 2.37412 4.57744 1.86884 6.63335L2.83995 6.87201C3.26315 5.15006 4.54147 3.76637 6.22459 3.2084L5.90991 2.2592ZM6.61529 20.366C6.75426 22.0951 8.19801 23.4275 9.93266 23.4275V22.4275C8.71923 22.4275 7.70929 21.4955 7.61208 20.2859L6.61529 20.366ZM20.6621 20.366L21.6706 7.81797L20.6738 7.73786L19.6653 20.2859L20.6621 20.366ZM22.8087 20.8209H24.9355V19.8209H22.8087V20.8209ZM21.3675 2.2592L17.1509 0.861337L16.8362 1.81054L21.0528 3.2084L21.3675 2.2592ZM17.3447 22.4275H12.6847V23.4275H17.3447V22.4275ZM25.4261 20.4174L26.6616 14.1367L25.6804 13.9436L24.4449 20.2243L25.4261 20.4174ZM26.5995 11.4791L25.4086 6.63335L24.4375 6.87201L25.6284 11.7178L26.5995 11.4791ZM20.7155 7.98144L22.9593 13.0165L23.8727 12.6095L21.6289 7.57439L20.7155 7.98144ZM22.9177 12.7727L22.3103 20.2805L23.307 20.3612L23.9144 12.8533L22.9177 12.7727ZM26.6616 14.1367C26.8347 13.2569 26.8135 12.3499 26.5995 11.4791L25.6284 11.7178C25.8076 12.4471 25.8254 13.2068 25.6804 13.9436L26.6616 14.1367ZM21.0528 3.2084C22.7359 3.76637 24.0143 5.15006 24.4375 6.87201L25.4086 6.63335C24.9033 4.57744 23.377 2.92539 21.3675 2.2592L21.0528 3.2084ZM19.6653 20.2859C19.5681 21.4955 18.5582 22.4275 17.3447 22.4275V23.4275C19.0794 23.4275 20.5231 22.0951 20.6621 20.366L19.6653 20.2859ZM16.7172 0.919249L13.3624 3.14422L13.9151 3.9776L17.2699 1.75263L16.7172 0.919249ZM10.0075 1.75263L13.3624 3.9776L13.9151 3.14422L10.5602 0.919249L10.0075 1.75263Z" fill="#373737"/>
</svg>
