<svg width="24" height="24" viewBox="0 0 24 24" fill="none" xmlns="http://www.w3.org/2000/svg">
<path d="M4.67587 0.00207793C4.6561 0.00567168 4.63634 0.0110623 4.61837 0.0164529C4.40454 0.0649687 4.2536 0.257234 4.25899 0.476453C4.25899 1.95887 4.92743 3.34786 5.91212 4.60208C5.75399 4.68473 5.5779 4.78177 5.39462 4.9327C4.82321 5.40169 4.25899 6.26958 4.25899 7.6927C4.25899 9.71059 5.97681 11.6512 8.64337 12.6233C11.3099 13.5954 14.9827 13.6062 19.0796 11.7465C19.2144 11.68 19.3096 11.5524 19.333 11.4032C19.3563 11.2541 19.3042 11.1032 19.1946 10.999C19.0006 10.8193 18.7167 10.3682 18.3896 9.7627C18.0626 9.15716 17.6763 8.39708 17.1677 7.56333C16.1525 5.89583 14.6557 3.93544 12.194 2.30208C11.2165 1.65341 10.3091 1.39645 9.52024 1.41083C8.73142 1.4252 8.06118 1.71809 7.55087 2.12958C7.04056 2.54106 6.67579 3.05137 6.44399 3.53833C6.42064 3.58684 6.40267 3.63536 6.38649 3.68208C5.64618 2.63989 5.17899 1.54739 5.17899 0.476453C5.18438 0.343484 5.13048 0.215906 5.03524 0.126062C4.93821 0.0344217 4.80704 -0.0105002 4.67587 0.00207793ZM9.54899 2.30208C10.1276 2.29309 10.8284 2.49255 11.6909 3.06395C14.0142 4.60567 15.4032 6.43848 16.3771 8.0377C16.8641 8.83731 17.2486 9.57403 17.5846 10.194C17.7877 10.5677 17.9925 10.8049 18.1884 11.0852C14.4976 12.6287 11.2686 12.6018 8.95962 11.7608C6.54462 10.8804 5.17899 9.16973 5.17899 7.6927C5.17899 6.49419 5.58688 5.95153 5.96962 5.63708C6.16188 5.48075 6.35774 5.3927 6.50149 5.3352C6.51407 5.32981 6.51946 5.32622 6.53024 5.32083C6.91298 5.7395 7.32267 6.1438 7.75212 6.52833C9.6586 8.23536 11.937 9.61536 13.4734 10.4527C13.6189 10.5551 13.8094 10.5641 13.9657 10.4779C14.1202 10.3898 14.2101 10.2209 14.1975 10.043C14.1849 9.86512 14.0699 9.71239 13.9046 9.6477C12.4042 8.83012 10.1887 7.48067 8.37024 5.8527C7.91024 5.44122 7.47899 5.01536 7.09087 4.57333C7.11243 4.42778 7.15017 4.20856 7.27774 3.94083C7.45743 3.56348 7.74493 3.15559 8.12587 2.84833C8.50681 2.54106 8.9704 2.31106 9.54899 2.30208ZM18.9646 8.1527C18.7418 8.17606 18.5675 8.35755 18.5531 8.58036C18.5388 8.80497 18.6879 9.00802 18.9071 9.05833C20.1416 9.37278 21.1263 9.76809 21.7677 10.1796C22.4092 10.5911 22.659 10.9846 22.659 11.2865C22.659 11.5578 22.4757 11.8848 21.9834 12.2496C21.491 12.6143 20.722 12.9809 19.7552 13.2846C17.8236 13.8919 15.0995 14.2765 12.079 14.2765C9.05845 14.2765 6.33438 13.8919 4.40274 13.2846C3.43603 12.9809 2.66696 12.6143 2.17462 12.2496C1.68228 11.8848 1.49899 11.5578 1.49899 11.2865C1.49899 11.0672 1.62118 10.7995 1.95899 10.4958C2.29681 10.1922 2.83048 9.87591 3.51149 9.5902C3.6804 9.53989 3.80438 9.39973 3.83493 9.22723C3.86368 9.05473 3.7936 8.88044 3.65165 8.77622C3.5097 8.6738 3.32103 8.66122 3.16649 8.74208C2.42259 9.05473 1.79548 9.41051 1.34087 9.8202C0.88626 10.2299 0.578994 10.724 0.578994 11.2865C0.578994 11.326 0.5754 11.3619 0.578994 11.4015C0.573604 11.4392 0.573604 11.4787 0.578994 11.5165C0.578994 14.1794 1.52056 16.4022 2.50524 17.9996C3.48993 19.597 4.56267 20.6033 4.71899 20.7596C5.72345 21.764 8.11688 23.0165 12.079 23.0165C16.0285 23.0165 18.3016 21.7784 19.4102 20.774H19.4246C19.678 20.5493 20.6914 19.5898 21.6671 17.9996C22.6464 16.4022 23.579 14.1776 23.579 11.5165C23.5772 11.4877 23.5718 11.459 23.5646 11.4302C23.57 11.3817 23.579 11.3368 23.579 11.2865C23.579 10.53 23.0435 9.89927 22.2709 9.40333C21.4982 8.90739 20.4327 8.4977 19.1371 8.16708C19.0958 8.1563 19.0509 8.15091 19.0077 8.1527C18.9934 8.1527 18.979 8.1527 18.9646 8.1527ZM1.61399 12.9827C1.61938 12.9863 1.62298 12.9935 1.62837 12.9971C2.25009 13.4571 3.10001 13.838 4.12962 14.1615C6.18884 14.8083 8.98118 15.1965 12.079 15.1965C15.1768 15.1965 17.9692 14.8083 20.0284 14.1615C21.058 13.838 21.9079 13.4571 22.5296 12.9971C22.535 12.9935 22.5386 12.9863 22.544 12.9827C22.287 14.7832 21.6024 16.3267 20.8765 17.5108C19.9583 19.0058 18.9736 19.951 18.8065 20.0983C17.8883 20.9321 15.8488 22.0965 12.079 22.0965C8.31274 22.0965 6.10798 20.8548 5.36587 20.1127C5.15563 19.9025 4.21946 19.0076 3.29587 17.5108C2.56454 16.3267 1.87454 14.7832 1.61399 12.9827Z" fill="#1CBD8D"/>
</svg>
