<svg width="122" height="122" viewBox="0 0 122 122" fill="none" xmlns="http://www.w3.org/2000/svg">
<mask id="mask0" mask-type="alpha" maskUnits="userSpaceOnUse" x="0" y="0" width="122" height="122">
<path d="M0 0H122V122H0V0Z" fill="#FBFBFB"/>
</mask>
<g mask="url(#mask0)">
<path d="M-30.5251 -11L-22.5219 -6.39974L-101.997 130.648L-110 126.048L-30.5251 -11Z" fill="#CCFFF0"/>
<path d="M-10.1942 -10.9985L-2.19106 -6.39825L-81.666 130.649L-89.6692 126.049L-10.1942 -10.9985Z" fill="#CCFFF0"/>
<path d="M10.1365 -10.9985L18.1397 -6.39825L-61.3352 130.649L-69.3384 126.049L10.1365 -10.9985Z" fill="#CCFFF0"/>
<path d="M30.4673 -10.9985L38.4705 -6.39825L-41.0044 130.649L-49.0076 126.049L30.4673 -10.9985Z" fill="#CCFFF0"/>
<path d="M50.7981 -10.9985L58.8013 -6.39825L-20.6736 130.649L-28.6768 126.049L50.7981 -10.9985Z" fill="#CCFFF0"/>
<path d="M71.1289 -10.9985L79.1321 -6.39825L-0.342808 130.649L-8.34598 126.049L71.1289 -10.9985Z" fill="#CCFFF0"/>
<path d="M91.4597 -10.9985L99.4629 -6.39825L19.988 130.649L11.9848 126.049L91.4597 -10.9985Z" fill="#CCFFF0"/>
<path d="M111.791 -10.9985L119.794 -6.39825L40.3188 130.649L32.3156 126.049L111.791 -10.9985Z" fill="#CCFFF0"/>
<path d="M132.121 -10.9985L140.124 -6.39825L60.6496 130.649L52.6464 126.049L132.121 -10.9985Z" fill="#CCFFF0"/>
<path d="M152.452 -10.9985L160.455 -6.39825L80.9804 130.649L72.9772 126.049L152.452 -10.9985Z" fill="#CCFFF0"/>
<path d="M172.783 -10.9985L180.786 -6.39825L101.311 130.649L93.308 126.049L172.783 -10.9985Z" fill="#CCFFF0"/>
<path d="M193.114 -10.9985L201.117 -6.39825L121.642 130.649L113.639 126.049L193.114 -10.9985Z" fill="#CCFFF0"/>
<path d="M213.444 -10.9985L221.448 -6.39825L141.973 130.649L133.97 126.049L213.444 -10.9985Z" fill="#CCFFF0"/>
<path d="M233.775 -10.9985L241.778 -6.39825L162.304 130.649L154.3 126.049L233.775 -10.9985Z" fill="#CCFFF0"/>
</g>
</svg>
