<svg width="18" height="21" viewBox="0 0 18 21" fill="none" xmlns="http://www.w3.org/2000/svg">
<path d="M17 20V21C17.3692 21 17.7084 20.7966 17.8822 20.4708C18.0561 20.1451 18.0363 19.7501 17.8307 19.4433L17 20ZM17 1H18C18 0.447715 17.5523 0 17 0V1ZM17 15.8919L17.8307 16.4485C17.9411 16.2839 18 16.0901 18 15.8919H17ZM6.16129 4.62162C5.60901 4.62162 5.16129 5.06934 5.16129 5.62162C5.16129 6.17391 5.60901 6.62162 6.16129 6.62162V4.62162ZM12.871 6.62162C13.4233 6.62162 13.871 6.17391 13.871 5.62162C13.871 5.06934 13.4233 4.62162 12.871 4.62162V6.62162ZM6.16129 7.7027C5.60901 7.7027 5.16129 8.15042 5.16129 8.7027C5.16129 9.25499 5.60901 9.7027 6.16129 9.7027V7.7027ZM12.871 9.7027C13.4233 9.7027 13.871 9.25499 13.871 8.7027C13.871 8.15042 13.4233 7.7027 12.871 7.7027V9.7027ZM3.05405 21H17V19H3.05405V21ZM4 2H17V0H4V2ZM0 4V15.8919H2V4H0ZM6.16129 6.62162H12.871V4.62162H6.16129V6.62162ZM16 1V15.8919H18V1H16ZM16.1693 15.3352C15.6038 16.1792 15.2258 17.0191 15.2258 17.9459C15.2258 18.8728 15.6038 19.7127 16.1693 20.5567L17.8307 19.4433C17.364 18.7467 17.2258 18.3028 17.2258 17.9459C17.2258 17.5891 17.364 17.1451 17.8307 16.4485L16.1693 15.3352ZM3.06452 16.8919H17V14.8919H3.06452V16.8919ZM0 15.8919V17.9459H2V15.8919H0ZM3.06452 14.8919C2.22495 14.8919 1.4678 15.2996 0.939853 15.8249C0.412216 16.3498 0 17.1054 0 17.9459H2C2 17.7595 2.10391 17.488 2.35047 17.2427C2.59671 16.9977 2.87183 16.8919 3.06452 16.8919V14.8919ZM6.16129 9.7027H12.871V7.7027H6.16129V9.7027ZM3.05405 19C2.47192 19 2 18.5281 2 17.9459H0C0 19.6327 1.36735 21 3.05405 21V19ZM4 0C1.79086 0 0 1.79086 0 4H2C2 2.89543 2.89543 2 4 2V0Z" fill="#CDCDCD"/>
</svg>
