<svg width="23" height="23" viewBox="0 0 23 23" fill="none" xmlns="http://www.w3.org/2000/svg">
<path d="M22.2147 11.1074C22.2147 4.97293 17.2418 0 11.1074 0C4.97293 0 0 4.97293 0 11.1074C0 16.6514 4.06182 21.2465 9.37184 22.0798V14.3181H6.55161V11.1074H9.37184V8.66027C9.37184 5.87649 11.0301 4.33881 13.5673 4.33881C14.7825 4.33881 16.0536 4.55575 16.0536 4.55575V7.28921H14.653C13.2732 7.28921 12.8429 8.14538 12.8429 9.02378V11.1074H15.9234L15.431 14.3181H12.8429V22.0798C18.1529 21.2465 22.2147 16.6514 22.2147 11.1074Z" fill="#1877F2"/>
<path d="M15.4302 14.4177L15.9226 11.207H12.8421V9.12344C12.8421 8.24505 13.2723 7.38887 14.6522 7.38887H16.0528V4.65542C16.0528 4.65542 14.7816 4.43848 13.5664 4.43848C11.0293 4.43848 9.37101 5.97615 9.37101 8.75993V11.207H6.55078V14.4177H9.37101V22.1795C9.93649 22.2682 10.5161 22.3144 11.1065 22.3144C11.697 22.3144 12.2765 22.2682 12.8421 22.1795V14.4177H15.4302Z" fill="white"/>
</svg>
