<svg width="22" height="22" viewBox="0 0 22 22" fill="none" xmlns="http://www.w3.org/2000/svg">
<path fill-rule="evenodd" clip-rule="evenodd" d="M4.69357 10.8895C4.69357 10.1822 4.81098 9.50398 5.02077 8.86796L1.35064 6.06543C0.635336 7.51766 0.232422 9.15415 0.232422 10.8895C0.232422 12.6235 0.634996 14.2588 1.34911 15.7102L5.0172 12.9022C4.80944 12.2691 4.69357 11.5934 4.69357 10.8895Z" fill="#FBBC05"/>
<path fill-rule="evenodd" clip-rule="evenodd" d="M11.1384 4.45486C12.675 4.45486 14.0629 4.99933 15.1534 5.89024L18.3257 2.72239C16.3926 1.03944 13.9142 0 11.1384 0C6.82885 0 3.12503 2.46445 1.35156 6.06549L5.02152 8.86802C5.86716 6.30115 8.27767 4.45486 11.1384 4.45486Z" fill="#EA4335"/>
<path fill-rule="evenodd" clip-rule="evenodd" d="M11.1384 17.3243C8.27784 17.3243 5.86733 15.478 5.02169 12.9111L1.35156 15.7132C3.12503 19.3147 6.82885 21.7792 11.1384 21.7792C13.7982 21.7792 16.3377 20.8347 18.2435 19.0651L14.7599 16.372C13.7769 16.9911 12.5391 17.3243 11.1384 17.3243Z" fill="#34A853"/>
<path fill-rule="evenodd" clip-rule="evenodd" d="M21.546 10.89C21.546 10.2465 21.4468 9.55349 21.298 8.91016H11.1367V13.1174H16.9858C16.6933 14.552 15.8973 15.6547 14.7582 16.3724L18.2418 19.0655C20.2438 17.2075 21.546 14.4395 21.546 10.89Z" fill="#4285F4"/>
</svg>
