<svg width="21" height="21" viewBox="0 0 21 21" fill="none" xmlns="http://www.w3.org/2000/svg">
<path d="M10.454 0C7.61486 0 7.25885 0.0120466 6.14383 0.0629284C5.03112 0.113688 4.27116 0.290385 3.60619 0.548837C2.91876 0.815986 2.33574 1.17346 1.7546 1.75464C1.17342 2.33578 0.815945 2.9188 0.548796 3.60623C0.290344 4.27116 0.113647 5.03112 0.0628875 6.14383C0.0120058 7.25885 0 7.61486 0 10.454C0 13.2931 0.0120058 13.6491 0.0628875 14.7642C0.113647 15.8769 0.290344 16.6368 0.548796 17.3017C0.815945 17.9892 1.17342 18.5722 1.7546 19.1534C2.33574 19.7346 2.91876 20.092 3.60619 20.3592C4.27116 20.6176 5.03112 20.7943 6.14383 20.8451C7.25885 20.8959 7.61486 20.908 10.454 20.908C13.2931 20.908 13.6491 20.8959 14.7642 20.8451C15.8769 20.7943 16.6368 20.6176 17.3017 20.3592C17.9892 20.092 18.5722 19.7346 19.1534 19.1534C19.7346 18.5722 20.092 17.9892 20.3592 17.3017C20.6176 16.6368 20.7943 15.8769 20.8451 14.7642C20.8959 13.6491 20.908 13.2931 20.908 10.454C20.908 7.61486 20.8959 7.25885 20.8451 6.14383C20.7943 5.03112 20.6176 4.27116 20.3592 3.60623C20.092 2.9188 19.7346 2.33578 19.1534 1.75464C18.5722 1.17346 17.9892 0.815986 17.3017 0.548837C16.6368 0.290385 15.8769 0.113688 14.7642 0.0629284C13.6491 0.0120466 13.2931 0 10.454 0V0ZM10.454 1.88364C13.2453 1.88364 13.576 1.89426 14.6783 1.94457C15.6975 1.99108 16.2511 2.16137 16.6195 2.3045C17.1074 2.49414 17.4557 2.7207 17.8215 3.08651C18.1873 3.45232 18.4138 3.80061 18.6035 4.28852C18.7466 4.6569 18.9169 5.21043 18.9634 6.22966C19.0137 7.33203 19.0244 7.66268 19.0244 10.454C19.0244 13.2453 19.0137 13.576 18.9634 14.6783C18.9169 15.6975 18.7466 16.2511 18.6035 16.6195C18.4138 17.1074 18.1873 17.4557 17.8215 17.8215C17.4557 18.1873 17.1074 18.4138 16.6195 18.6035C16.2511 18.7466 15.6975 18.9169 14.6783 18.9634C13.5761 19.0137 13.2455 19.0244 10.454 19.0244C7.66244 19.0244 7.33191 19.0137 6.22966 18.9634C5.21043 18.9169 4.6569 18.7466 4.28852 18.6035C3.80057 18.4138 3.45232 18.1873 3.08647 17.8215C2.72066 17.4557 2.4941 17.1074 2.3045 16.6195C2.16133 16.2511 1.99104 15.6975 1.94453 14.6783C1.89422 13.576 1.8836 13.2453 1.8836 10.454C1.8836 7.66268 1.89422 7.33203 1.94453 6.22966C1.99104 5.21043 2.16133 4.6569 2.3045 4.28852C2.4941 3.80061 2.72066 3.45232 3.08647 3.08651C3.45232 2.7207 3.80057 2.49414 4.28852 2.3045C4.6569 2.16137 5.21043 1.99108 6.22966 1.94457C7.33203 1.89426 7.66268 1.88364 10.454 1.88364Z" fill="url(#paint0_linear)"/>
<path d="M10.4523 13.9369C8.52773 13.9369 6.96759 12.3768 6.96759 10.4523C6.96759 8.52773 8.52773 6.96759 10.4523 6.96759C12.3768 6.96759 13.9369 8.52773 13.9369 10.4523C13.9369 12.3768 12.3768 13.9369 10.4523 13.9369ZM10.4523 5.08398C7.48743 5.08398 5.08398 7.48743 5.08398 10.4523C5.08398 13.4171 7.48743 15.8205 10.4523 15.8205C13.4171 15.8205 15.8205 13.4171 15.8205 10.4523C15.8205 7.48743 13.4171 5.08398 10.4523 5.08398Z" fill="url(#paint1_linear)"/>
<path d="M17.2922 4.87847C17.2922 5.57133 16.7305 6.13295 16.0377 6.13295C15.3449 6.13295 14.7832 5.57133 14.7832 4.87847C14.7832 4.18564 15.3449 3.62402 16.0377 3.62402C16.7305 3.62402 17.2922 4.18564 17.2922 4.87847Z" fill="url(#paint2_linear)"/>
<defs>
<linearGradient id="paint0_linear" x1="12.2839" y1="-1.10781" x2="6.17408" y2="19.0774" gradientUnits="userSpaceOnUse">
<stop stop-color="#515BD4"/>
<stop offset="0.26" stop-color="#9510B8"/>
<stop offset="0.66" stop-color="#E51804"/>
<stop offset="1" stop-color="#FEDA77"/>
</linearGradient>
<linearGradient id="paint1_linear" x1="12.2822" y1="-1.10955" x2="6.17235" y2="19.0757" gradientUnits="userSpaceOnUse">
<stop stop-color="#515BD4"/>
<stop offset="0.26" stop-color="#9510B8"/>
<stop offset="0.66" stop-color="#E51804"/>
<stop offset="1" stop-color="#FFBF00"/>
</linearGradient>
<linearGradient id="paint2_linear" x1="12.2872" y1="-1.10297" x2="6.17741" y2="19.0823" gradientUnits="userSpaceOnUse">
<stop stop-color="#515BD4"/>
<stop offset="0.26" stop-color="#9510B8"/>
<stop offset="0.66" stop-color="#E51804"/>
<stop offset="1" stop-color="#FFBF00"/>
</linearGradient>
</defs>
</svg>
