<svg width="21" height="21" viewBox="0 0 21 21" fill="none" xmlns="http://www.w3.org/2000/svg">
<path fill-rule="evenodd" clip-rule="evenodd" d="M20.0368 2.5046C20.0368 1.12226 18.9146 0 17.5322 0H2.5046C1.12226 0 0 1.12226 0 2.5046V17.5322C0 18.9146 1.12226 20.0368 2.5046 20.0368H17.5322C18.9146 20.0368 20.0368 18.9146 20.0368 17.5322V2.5046Z" fill="#2867B2"/>
<path d="M5.74289 6.99512H2.38672V17.0903H5.74289V6.99512Z" fill="white"/>
<path d="M4.08989 2.12305C2.94165 2.12305 2.19141 2.87795 2.19141 3.86738C2.19141 4.83604 2.91884 5.61176 4.04548 5.61176H4.06716C5.23739 5.61176 5.9658 4.83604 5.9658 3.86738C5.94408 2.87795 5.23747 2.12305 4.08989 2.12305Z" fill="white"/>
<path d="M13.981 6.75098C12.2008 6.75098 11.4034 7.73 10.9569 8.41767V6.98837H7.60156C7.64606 7.9353 7.60156 17.0835 7.60156 17.0835H10.9568V11.4457C10.9568 11.1439 10.9785 10.8422 11.0675 10.6265C11.3096 10.0239 11.8621 9.39959 12.7891 9.39959C14.0027 9.39959 14.4889 10.3257 14.4889 11.6822V17.0835H17.8444V11.2944C17.8444 8.19347 16.1888 6.75098 13.981 6.75098Z" fill="white"/>
</svg>
