<svg width="28" height="28" viewBox="0 0 28 28" fill="none" xmlns="http://www.w3.org/2000/svg">
<path d="M3.35914 2.80078C2.1232 2.80078 1.11914 3.80484 1.11914 5.04078V6.72078H24.6391V5.04078C24.6391 3.80484 23.6351 2.80078 22.3991 2.80078H3.35914ZM1.11914 9.52078V17.3608C1.11914 18.5967 2.1232 19.6008 3.35914 19.6008H22.3991C23.6351 19.6008 24.6391 18.5967 24.6391 17.3608V9.52078H1.11914ZM5.03914 11.2008H13.9991V12.3208H5.03914V11.2008ZM25.7591 13.4758V17.3608C25.7591 19.2136 24.252 20.7208 22.3991 20.7208H3.35914C3.29133 20.7208 3.21695 20.7077 3.14914 20.7033L3.69164 23.6958C3.79664 24.2864 4.11164 24.807 4.60164 25.1483C4.98227 25.4152 5.42414 25.5508 5.87914 25.5508C6.01039 25.5508 6.15039 25.5398 6.28164 25.5158L25.0241 22.1733C25.6126 22.0683 26.1354 21.7358 26.4766 21.2458C26.8179 20.7558 26.9491 20.1717 26.8441 19.5833L25.7591 13.4758Z" fill="#A0A0A0"/>
</svg>
