<svg width="25" height="24" viewBox="0 0 25 24" fill="none" xmlns="http://www.w3.org/2000/svg">
<path d="M10.0459 5.40552C11.2858 4.26047 11.9058 3.68795 12.6644 3.67247C13.4231 3.65698 14.0658 4.20374 15.3514 5.29725L20.0917 9.32934C20.7845 9.91865 21.1309 10.2133 21.3154 10.6126C21.5 11.0119 21.5 11.4666 21.5 12.3762V17.7346C21.5 18.9165 21.5 19.5074 21.2581 19.9535C21.0735 20.2939 20.7939 20.5735 20.4535 20.7581C20.0074 21 19.4165 21 18.2346 21V21C17.0527 21 16.4618 21 16.0157 20.7581C15.6753 20.5735 15.3957 20.2939 15.2111 19.9535C14.9692 19.5074 14.9692 18.9165 14.9692 17.7346V16.1154C14.9692 16.0251 14.9692 15.98 14.9677 15.9418C14.9278 14.8972 14.0902 14.0596 13.0455 14.0196C13.0074 14.0182 12.9622 14.0182 12.8719 14.0182V14.0182C12.7816 14.0182 12.7365 14.0182 12.6983 14.0196C11.6537 14.0596 10.816 14.8972 10.7761 15.9418C10.7747 15.98 10.7747 16.0251 10.7747 16.1154V17.8627C10.7747 18.9237 10.7747 19.4542 10.5785 19.8639C10.3815 20.2752 10.0498 20.6068 9.63851 20.8038C9.22886 21 8.69835 21 7.63733 21V21C6.57631 21 6.0458 21 5.63615 20.8038C5.22482 20.6068 4.89317 20.2752 4.69618 19.8639C4.5 19.4542 4.5 18.9237 4.5 17.8627V12.278C4.5 11.4154 4.5 10.9841 4.66781 10.6007C4.83563 10.2173 5.15248 9.9247 5.78619 9.33946L10.0459 5.40552Z" stroke="#EB3800" stroke-width="2"/>
</svg>
