<svg width="20" height="16" viewBox="0 0 20 16" fill="none" xmlns="http://www.w3.org/2000/svg">
<path d="M1.02601 7.33675C0.993844 7.20779 0.99148 7.0732 1.0191 6.94319C1.04671 6.81318 1.10359 6.69117 1.18539 6.58642C1.2672 6.48167 1.3718 6.39693 1.49125 6.33864C1.61069 6.28035 1.74185 6.25004 1.87476 6.25H17.1348C17.2677 6.25004 17.3988 6.28035 17.5183 6.33864C17.6377 6.39693 17.7423 6.48167 17.8241 6.58642C17.9059 6.69117 17.9628 6.81318 17.9904 6.94319C18.018 7.0732 18.0157 7.20779 17.9835 7.33675L16.3989 13.6744C16.3042 14.053 16.0858 14.3891 15.7782 14.6293C15.4707 14.8694 15.0916 14.9999 14.7014 15H4.30813C3.91789 14.9999 3.53887 14.8694 3.2313 14.6293C2.92373 14.3891 2.70527 14.053 2.61063 13.6744L1.02601 7.33763V7.33675Z" stroke="white" stroke-width="2" stroke-linejoin="round"/>
<path d="M6.87976 9.75V11.5M12.1298 9.75V11.5M4.25476 6.25L7.75476 1M14.7548 6.25L11.2548 1" stroke="white" stroke-width="2" stroke-linecap="round"/>
</svg>
