<svg width="10" height="7" viewBox="0 0 10 7" fill="none" xmlns="http://www.w3.org/2000/svg">
<path d="M0.220115 1.16913C0.361098 1.02228 0.552285 0.939787 0.751634 0.939787C0.950983 0.939787 1.14217 1.02228 1.28315 1.16913L5.00454 5.0466L8.72592 1.16913C8.86771 1.02644 9.05762 0.94749 9.25474 0.949275C9.45186 0.951059 9.64042 1.03344 9.7798 1.17868C9.91919 1.32391 9.99826 1.52038 9.99997 1.72576C10.0017 1.93115 9.92591 2.12902 9.78896 2.27676L5.53606 6.70803C5.39508 6.85488 5.20389 6.93738 5.00454 6.93738C4.80519 6.93738 4.614 6.85488 4.47302 6.70803L0.220115 2.27676C0.0791754 2.12986 -2.18939e-07 1.93066 -2.28022e-07 1.72295C-2.37105e-07 1.51524 0.0791754 1.31603 0.220115 1.16913Z" fill="black"/>
</svg>
