<svg width="22" height="14" viewBox="0 0 22 14" fill="none" xmlns="http://www.w3.org/2000/svg">
<path d="M0 0H22V14H0V0Z" fill="#3F51B5"/>
<path d="M0 2.108L10.405 8.4675L11.9695 5.9075L2.304 0H0V2.108Z" fill="white"/>
<path d="M21.9998 0H20.1953L10.5303 5.907L12.0943 8.4675L21.9998 2.413V0Z" fill="white"/>
<path d="M12.0943 5.13574L10.5303 7.69574L20.8453 14.0002H21.9998V11.1897L12.0943 5.13574Z" fill="white"/>
<path d="M0 11.4957V14.0002H1.655L11.9695 7.69624L10.4055 5.13574L0 11.4957Z" fill="white"/>
<path d="M0 5H22V9H0V5Z" fill="white"/>
<path d="M9 0H13V14H9V0Z" fill="white"/>
<path d="M7.609 5L0 0.3495V1.5215L5.691 5H7.609ZM21.1545 0L12.9735 5H14.891L22 0.6555V0H21.1545ZM15.541 9L22 12.9475V11.7755L17.4585 9H15.541ZM6.959 9L0 13.253V14H0.696L8.8765 9H6.959ZM0 6H22V8H0V6Z" fill="#E53935"/>
<path d="M10 0H12V14H10V0Z" fill="#E53935"/>
</svg>
