<svg width="30" height="25" viewBox="0 0 30 25" fill="none" xmlns="http://www.w3.org/2000/svg">
<path d="M30 7.38813C30 15.2911 15 25 15 25C15 25 0 15.2911 0 7.38813C0 -0.514862 10 -2.5 15 3.53554C20.0695 -2.51854 30 -0.514862 30 7.38813Z" fill="black"/>
<path d="M14.2299 4.17349L14.9959 5.09808L15.7667 4.17755C18.0548 1.44504 21.4176 0.554327 24.1724 1.20144C26.8837 1.83832 29 3.94729 29 7.38813C29 9.06457 28.1947 10.9488 26.8353 12.903C25.4883 14.8394 23.6728 16.7371 21.8267 18.4183C19.9851 20.0955 18.1392 21.5337 16.7515 22.5538C16.0584 23.0632 15.4817 23.4669 15.0795 23.7423C15.0522 23.761 15.0257 23.7791 15 23.7967C14.9743 23.7791 14.9478 23.761 14.9205 23.7423C14.5183 23.4669 13.9416 23.0632 13.2485 22.5538C11.8608 21.5337 10.0149 20.0955 8.17332 18.4183C6.32719 16.7371 4.51168 14.8394 3.16467 12.903C1.80527 10.9488 1 9.06457 1 7.38813C1 3.95203 3.1286 1.84472 5.85239 1.20869C8.61928 0.562594 11.9791 1.45647 14.2299 4.17349Z" stroke="white" stroke-width="2"/>
</svg>