<svg width="17" height="16" viewBox="0 0 17 16" fill="none" xmlns="http://www.w3.org/2000/svg">
<path d="M10.0138 1.33662C8.90987 2.86972 7.48955 4.23861 6.4909 5.09023C6.01163 5.49894 5.71089 6.09939 5.71089 6.74335V13.4407C5.71089 14.7169 6.61874 15.0117 7.07266 14.9996H11.052C12.5604 14.9996 13.2252 14.7025 13.6343 14.0746C14.6682 12.4876 15.3053 10.2973 15.626 9.30785C16.48 6.67252 15.7969 5.71872 14.3341 5.71872H10.9672C10.8065 5.71872 10.6822 5.57684 10.7106 5.41256C10.7885 4.96168 10.9797 4.15934 11.3673 3.1085C11.7162 2.16258 11.3679 1.51112 10.9431 1.13231C10.6544 0.874816 10.2417 1.02011 10.0138 1.33662Z" stroke="#68572D" stroke-width="1.6"/>
<path d="M1 13.7489V6.96948C1 6.2787 1.53931 5.71872 2.20459 5.71872C2.86987 5.71872 3.40919 6.27871 3.40919 6.96948V13.7489C3.40919 14.4397 2.86987 14.9996 2.20459 14.9996C1.53931 14.9996 1 14.4397 1 13.7489Z" stroke="#68572D" stroke-width="1.6"/>
</svg>
