<svg width="21" height="21" viewBox="0 0 21 21" fill="none" xmlns="http://www.w3.org/2000/svg">
<path d="M9.52203 4.9582L12.1299 2.35029C13.9303 0.549904 16.8493 0.549904 18.6497 2.35029C20.4501 4.15067 20.4501 7.06967 18.6497 8.87006L15.3898 12.1299C13.5894 13.9303 10.6704 13.9303 8.87006 12.1299C8.40643 11.6663 8.0622 11.1285 7.83735 10.5547M11.478 16.0418L8.87006 18.6497C7.06967 20.4501 4.15067 20.4501 2.35029 18.6497C0.549904 16.8493 0.549904 13.9303 2.35029 12.1299L5.61017 8.87006C7.41056 7.06967 10.3296 7.06967 12.1299 8.87006C12.5936 9.33368 12.9378 9.87148 13.1626 10.4453" stroke="#E0E0E0" stroke-width="2" stroke-linecap="round"/>
</svg>
