<svg width="24" height="24" viewBox="0 0 24 24" fill="none" xmlns="http://www.w3.org/2000/svg">
<circle cx="12" cy="12" r="12" fill="#1CBD8D"/>
<path d="M12.5453 5.69835C12.2353 5.42347 11.7687 5.42347 11.4586 5.69835L5.28824 11.1682C5.12709 11.311 5.22813 11.5773 5.44348 11.5773H6.31553C6.57403 11.5773 6.78359 11.7869 6.78359 12.0454V16.5404C6.78359 16.9928 7.15031 17.3595 7.60268 17.3595H9.87829C10.3307 17.3595 10.6974 16.9928 10.6974 16.5404V14.3238C10.6974 13.8715 11.0641 13.5047 11.5165 13.5047H12.4875C12.9399 13.5047 13.3066 13.8715 13.3066 14.3238V16.5404C13.3066 16.9928 13.6733 17.3595 14.1257 17.3595H16.4013C16.8537 17.3595 17.2204 16.9928 17.2204 16.5404V12.0454C17.2204 11.7869 17.4299 11.5773 17.6884 11.5773H18.5605C18.7758 11.5773 18.8769 11.311 18.7157 11.1682L12.5453 5.69835Z" fill="white"/>
</svg>
