<svg width="13px" height="10px" viewBox="0 0 14 11" xmlns="http://www.w3.org/2000/svg">
<path d="M2.89423 0C2.77855 0 2.66707 0.0322267 2.57452 0.103125L0.21875 2.30313C0.21875 2.30313 0 2.44922 0 2.75V3.85C0 4.15293 0.241887 4.4 0.538462 4.4V10.45C0.538462 10.7529 0.780349 11 1.07692 11H1.61538C1.91196 11 2.15385 10.7529 2.15385 10.45V4.4H11.8462V10.45C11.8462 10.7529 12.088 11 12.3846 11H12.9231C13.2197 11 13.4615 10.7529 13.4615 10.45V4.4C13.7581 4.4 14 4.15293 14 3.85V2.75C14 2.45781 13.7139 2.26875 13.7139 2.26875L11.4255 0.103125C11.3329 0.0322267 11.2215 0 11.1058 0H2.89423ZM3.42308 5.25V8C3.42308 8.30293 3.66496 8.55 3.96154 8.55C4.25811 8.55 4.5 8.30293 4.5 8V5.25H3.42308ZM9.5 5.25V8C9.5 8.30293 9.74189 8.55 10.0385 8.55C10.335 8.55 10.5769 8.30293 10.5769 8V5.25H9.5Z"/>
</svg>
