<svg width="25" height="24" viewBox="0 0 25 24" fill="none" xmlns="http://www.w3.org/2000/svg">
<path d="M4.14236 13.4981C3.84689 12.349 3.69915 11.7745 3.99941 11.3872C4.29967 11 4.89289 11 6.07935 11H18.9207C20.1071 11 20.7003 11 21.0006 11.3872C21.3008 11.7745 21.1531 12.349 20.8576 13.4981L19.701 17.9962C19.3299 19.4394 19.1443 20.1611 18.6033 20.5805C18.0623 21 17.3172 21 15.827 21H9.17298C7.68277 21 6.93766 21 6.39668 20.5805C5.8557 20.1611 5.67014 19.4394 5.29901 17.9962L4.14236 13.4981Z" stroke="#6F6F6F" stroke-width="2"/>
<path d="M6.5 10V10C6.5 7.17157 6.5 5.75736 7.37868 4.87868C8.25736 4 9.67157 4 12.5 4V4C15.3284 4 16.7426 4 17.6213 4.87868C18.5 5.75736 18.5 7.17157 18.5 10V10" stroke="#6F6F6F" stroke-width="2"/>
<path d="M9.5 15L9.5 17" stroke="#6F6F6F" stroke-width="2" stroke-linecap="round"/>
<path d="M12.5 15L12.5 17" stroke="#6F6F6F" stroke-width="2" stroke-linecap="round"/>
<path d="M15.5 15L15.5 17" stroke="#6F6F6F" stroke-width="2" stroke-linecap="round"/>
</svg>
