<svg width="30" height="30" viewBox="0 0 18 16" fill="none" xmlns="http://www.w3.org/2000/svg">
<path d="M6.76055 0.402344C5.80742 0.402344 4.98711 1.07422 4.79961 2.00703L4.63867 2.80234H2.59961C1.49492 2.80234 0.599609 3.69766 0.599609 4.80234V13.2023C0.599609 14.307 1.49492 15.2023 2.59961 15.2023H15.3996C16.5043 15.2023 17.3996 14.307 17.3996 13.2023V4.80234C17.3996 3.69766 16.5043 2.80234 15.3996 2.80234H13.3605L13.1996 2.00703C13.0121 1.07422 12.1918 0.402344 11.2387 0.402344H6.76055ZM8.99961 4.80234C11.2074 4.80234 12.9996 6.59453 12.9996 8.80234C12.9996 11.0102 11.2074 12.8023 8.99961 12.8023C6.7918 12.8023 4.99961 11.0102 4.99961 8.80234C4.99961 6.59453 6.7918 4.80234 8.99961 4.80234ZM8.99961 5.60234C7.23555 5.60234 5.79961 7.03828 5.79961 8.80234C5.79961 10.5664 7.23555 12.0023 8.99961 12.0023C10.7637 12.0023 12.1996 10.5664 12.1996 8.80234C12.1996 7.03828 10.7637 5.60234 8.99961 5.60234Z" fill="#E2E2E2"/>
</svg>
