<svg width="30" height="30" viewBox="0 0 30 30" fill="none" xmlns="http://www.w3.org/2000/svg">
<g clip-path="url(#clip0)">
<path d="M19.2009 3C17.4009 3 15.9571 4.31953 15.6571 6C16.8571 6 17.9493 6.48047 18.7884 7.2V6.1875H18.0571L18.9571 5.2875H19.6884V7.9875H19.5009C19.9204 8.5875 20.2204 9.29297 20.4009 10.0125C21.8399 9.53203 22.8571 8.21953 22.8571 6.6C22.7962 4.61953 21.1813 3 19.2009 3ZM15.6009 6.6C13.2618 6.6 11.4009 8.46094 11.4009 10.8C11.4009 13.1391 13.2618 15 15.6009 15C17.9399 15 19.8009 13.1391 19.8009 10.8C19.8009 8.46094 17.9399 6.6 15.6009 6.6ZM15.3009 9.1875H16.1446V12.4125H15.0571V10.2563H14.2134L15.3009 9.1875ZM8.04461 15C6.54461 15 5.22039 15.5367 0.300863 17.7563C0.000862785 17.8758 -0.118669 18.2438 0.000862785 18.5438L3.18836 25.6125C3.2493 25.793 3.42508 25.9266 3.54461 25.9875C3.72508 26.0484 3.89383 25.9734 4.01336 25.9125L5.64461 24.8438C6.36414 24.3633 6.65242 24.307 7.61336 24.7875L8.88836 25.4438C10.3884 26.2242 12.4134 27.3 13.0134 27.6C13.9743 28.0805 14.7524 28.2563 15.4134 28.2563C16.6134 28.2563 17.3938 27.7805 18.1134 27.3C18.8329 26.8195 27.6079 21.1266 28.3884 20.5875C29.3493 19.9266 29.9446 19.1438 29.9446 18.5438C30.0056 16.8633 28.3837 16.4438 26.9446 17.3438L20.5134 21.6563C19.4938 22.2563 18.6009 22.2 18.0009 22.2H14.4009C12.7813 22.2 10.8055 21.6 10.7446 21.6C10.5641 21.5391 10.4962 21.3633 10.5571 21.2438C10.618 21.0633 10.7329 20.9953 10.9134 21.0563H10.9884C11.1688 21.1172 13.1493 21.6563 14.5884 21.6563H18.0009C18.4813 21.6563 18.8493 21.5367 19.0884 21.3563C19.3274 21.1758 19.4938 20.9953 19.6134 20.7563C19.6134 20.6953 19.6884 20.7047 19.6884 20.6438V20.5875C19.7493 20.407 19.7446 20.2805 19.7446 20.1C19.7446 19.3805 19.1446 18.6609 17.9446 18.6C16.9837 18.5391 15.6688 18.3 14.5884 18C13.9884 17.8195 13.5524 17.632 13.3134 17.5125C13.1329 17.393 12.9524 17.2266 12.7134 16.9875C11.9938 16.207 10.9251 15 8.04461 15ZM21.0571 15C20.3962 15 19.6884 15.2367 19.0884 15.6563C18.6688 15.8953 16.8688 17.0391 15.7884 17.7C16.5688 17.8805 17.4009 18 18.0009 18C18.4204 18 18.8446 18.1242 19.1446 18.2438L23.0446 15.6C23.0446 15.6 22.1376 15 21.0571 15ZM25.0134 15.6563C24.4134 15.6563 23.7079 15.8953 22.6884 16.5563L19.6884 18.6C20.1688 19.0195 20.4009 19.5609 20.4009 20.1C20.4009 20.4609 20.2837 20.8828 20.0446 21.2438L20.1009 21.1875L20.1571 21.1125L26.7571 16.7438C26.5766 15.9633 25.6134 15.6563 25.0134 15.6563Z" fill="#A0A0A0"/>
</g>
<defs>
<clipPath id="clip0">
<rect width="30" height="30" fill="white"/>
</clipPath>
</defs>
</svg>
