<svg width="21" height="26" viewBox="0 0 21 26" fill="none" xmlns="http://www.w3.org/2000/svg">
<path d="M2.95558 12.5445L3.6991 7.7527M2.95558 12.5445C8.58735 9.83923 15.433 11.3102 18.0136 12.5445M2.95558 12.5445C0.940847 12.8778 1.05165 15.2048 2.94308 15.5791C3.23413 19.6372 4.90378 24.0555 10.3433 24.0555C15.8051 24.0555 17.9026 19.682 18.1572 15.5791C19.8332 15.2048 20.0825 13.1272 18.0136 12.5445M3.6991 7.7527C0.951634 7.7527 0.574703 5.68341 1.36157 4.2281C2.95524 1.28062 9.03056 1.10148 10.1497 1.10156C11.507 1.10167 18.2207 1.28062 19.4768 4.22796C20.0964 5.68192 20.1686 7.48198 17.2983 7.7527M3.6991 7.7527C3.6991 7.7527 5.10012 7.55396 5.61972 7.00701M17.2983 7.7527L18.0136 12.5445M17.2983 7.7527C16.5167 7.89505 14.1761 7.67128 13.2223 6.04985" stroke="#CDCDCD" stroke-width="2" stroke-linecap="round"/>
</svg>
