<svg width="18" height="12" viewBox="0 0 18 12" fill="none" xmlns="http://www.w3.org/2000/svg">
<path d="M18 9C18 10.6568 17.0513 12 15.1875 12H2.8125C0.948656 12 0 10.6568 0 9V3C0 1.34318 0.948656 0 2.8125 0H15.1875C17.0513 0 18 1.34318 18 3V9Z" fill="#EC1C24"/>
<path d="M3.64807 1.81525L4.24967 2.99997L5.59826 3.18952L4.62317 4.10997L4.85295 5.41361L3.64807 4.79861L2.44292 5.41361L2.67298 4.10997L1.69873 3.18952L3.04507 2.99997L3.64807 1.81525Z" fill="#F9CB38"/>
<path d="M5.76748 0.816528L5.93426 1.14516L6.30945 1.1978L6.03861 1.45389L6.10189 1.81526L5.76748 1.64453L5.43336 1.81526L5.49664 1.45389L5.22607 1.1978L5.60042 1.14516L5.76748 0.816528Z" fill="#F9CB38"/>
<path d="M6.8507 1.99854L7.01776 2.3269L7.39126 2.37981L7.12154 2.63644L7.1851 2.99726L6.8507 2.82681L6.51657 2.99726L6.57985 2.63644L6.30957 2.37981L6.68335 2.3269L6.8507 1.99854Z" fill="#F9CB38"/>
<path d="M6.8507 3.89569L7.01776 4.22487L7.39126 4.27751L7.12154 4.5336L7.1851 4.89496L6.8507 4.72478L6.51657 4.89496L6.57985 4.5336L6.30957 4.27751L6.68335 4.22487L6.8507 3.89569Z" fill="#F9CB38"/>
<path d="M5.76748 5.22815L5.93426 5.55679L6.30945 5.60915L6.03861 5.86497L6.10189 6.22688L5.76748 6.05724L5.43336 6.22688L5.49664 5.86497L5.22607 5.60915L5.60042 5.55679L5.76748 5.22815Z" fill="#F9CB38"/>
</svg>