<svg width="18" height="23" viewBox="0 0 18 23" fill="none" xmlns="http://www.w3.org/2000/svg">
<path d="M0 0V0.5V12V13V20.5C0 21.5987 0.901333 22.5 2 22.5H14C15.0987 22.5 16 21.5987 16 20.5V16.5H15.96L17.0908 15.6924L16 12.418V0H0ZM1 1H5V4H1V1ZM6 1H10V4H6V1ZM11 1H15V4H11V1ZM1 5H5V8H1V5ZM6 5H10V8H6V5ZM11 5H15V8H11V5ZM1 9H5V12H1V9ZM6 9H10V12H6V9ZM11 9H15V12H11V9ZM2.87891 13H15.1396L15.9092 15.3076L12.9414 17.4277L2.87891 13ZM1 13.2666L13.0586 18.5723L15 17.1855V20.5C15 21.0583 14.5583 21.5 14 21.5H2C1.44167 21.5 1 21.0583 1 20.5V13.2666Z" fill="#1CBD8D"/>
</svg>
