<svg width="12" height="26" viewBox="0 0 12 26" fill="none" xmlns="http://www.w3.org/2000/svg">
<path d="M8.63155 7.16384L10.544 11.4411C10.8445 12.1133 11 12.8433 11 13.5819V23.7094C11 24.4222 10.433 25 9.73366 25H2.26634C1.56696 25 1 24.4222 1 23.7094V13.5819C1 12.8433 1.15551 12.1133 1.45602 11.4411L3.36845 7.16384M8.63155 7.16384V4.50082M8.63155 7.16384H3.36845M3.36845 7.16384L3.36854 4.50082M3.60961 4.52418H8.39048C9.08986 4.52418 9.65682 3.94634 9.65682 3.23354V2.29064C9.65682 1.57784 9.08986 1 8.39049 1H3.60961C2.91023 1 2.34327 1.57784 2.34327 2.29064V3.23355C2.34327 3.94634 2.91023 4.52418 3.60961 4.52418Z" stroke="#373737"/>
</svg>
