<svg width="25" height="18" viewBox="0 0 25 18" fill="none" xmlns="http://www.w3.org/2000/svg">
<path d="M17.888 17C15.9791 17 14.545 16.3548 13.5475 15.3425M17.888 1.02495C15.7367 1.02495 13.8243 3.35479 12.7334 6.05714M17.888 16.975C22.0999 16.975 24 13.8337 24 10.5391C24 6.63158 21.2326 1 17.888 1M1 10.8771C1 6.79894 4.24445 4.95926 7.64716 4.95926C9.22191 4.95926 11.0678 5.36721 12.7334 6.05714M17.4993 10.8771C17.4993 8.9023 15.3365 7.13537 12.7334 6.05714M1.02577 10.8771C1.02577 14.9552 4.27022 16.7949 7.67293 16.7949C9.50113 16.7949 11.6947 16.245 13.5475 15.3425M17.5251 10.8771C17.5251 12.6484 15.7848 14.2526 13.5475 15.3425" stroke="#373737"/>
</svg>
