
<svg width="18" height="12" viewBox="0 0 18 12" fill="none" xmlns="http://www.w3.org/2000/svg">
<path d="M0 4.09088H18V7.90906H0V4.09088Z" fill="#E6E7E8"/>
<path d="M15.1875 0H2.8125C0.948656 0 0 1.34318 0 3V4.09091H18V3C18 1.34318 17.0513 0 15.1875 0Z" fill="#EC1C24"/>
<path d="M0 9.00003C0 10.6568 0.948656 12 2.8125 12H15.1875C17.0513 12 18 10.6568 18 9.00003V7.90912H0V9.00003Z" fill="#25333A"/>
<path fill-rule="evenodd" clip-rule="evenodd" d="M10.306 5.02036C10.3336 5.26473 10.333 5.50963 10.3451 5.75509C10.3682 6.22418 10.3862 6.69545 10.4059 7.16591V7.251C10.2577 7.11572 10.1218 6.993 9.98738 6.86891C9.98372 6.85663 9.98991 6.84818 9.99891 6.83972C10.0234 6.813 10.0147 6.78136 10.0127 6.75245C9.99891 6.54927 9.99497 6.34527 9.98401 6.14127C9.96938 5.84673 9.96038 5.55273 9.94238 5.25818C9.9376 5.16791 9.96769 5.103 10.0478 5.05773C10.0982 5.02882 10.1319 5.04054 10.1336 5.09727C10.1381 5.20773 10.1421 5.31791 10.1483 5.42836C10.166 5.74609 10.1761 6.06436 10.1918 6.38182C10.1992 6.52936 10.2138 6.67636 10.209 6.82336C10.2073 6.86754 10.2101 6.91063 10.2172 6.93682C10.1938 6.84463 10.2127 6.73418 10.2037 6.624C10.1871 6.43663 10.1834 6.24845 10.1753 6.06027C10.1632 5.73927 10.144 5.41963 10.1345 5.09863C10.1322 4.99609 10.1544 4.98245 10.2579 5.01845C10.2737 5.02118 10.2903 5.01136 10.306 5.02036" fill="#BF9200"/>
<path fill-rule="evenodd" clip-rule="evenodd" d="M8.10387 6.9235C7.98715 7.02877 7.86987 7.13377 7.745 7.24504C7.745 7.14413 7.74162 7.05713 7.74556 6.9685C7.77031 6.38022 7.79703 5.7914 7.82262 5.20204C7.82544 5.14122 7.83247 5.08095 7.83809 5.02013C7.85469 5.01358 7.86622 5.03758 7.88365 5.02531C7.89982 5.01344 7.91859 5.00532 7.9385 5.00158C7.98462 4.99395 8.01078 5.01522 8.01078 5.06077C8.01078 5.20068 8.00122 5.33895 7.99419 5.47695C7.9894 5.58495 7.98125 5.69295 7.97844 5.80095C7.9714 6.04422 7.95706 6.28695 7.94778 6.52886C7.94187 6.66413 7.93906 6.79995 7.9309 6.93413C7.94159 6.80786 7.94159 6.67913 7.94694 6.55204C7.96494 6.14295 7.9835 5.73386 8.00234 5.32477C8.00515 5.25168 8.01331 5.17777 8.0105 5.10386C8.00937 5.07904 8.01331 5.05422 8.04031 5.04413C8.06394 5.03404 8.08222 5.05013 8.1019 5.06077C8.17672 5.10386 8.20512 5.16577 8.20147 5.25086C8.18494 5.59736 8.16938 5.94391 8.15478 6.29049C8.14803 6.44622 8.14916 6.60304 8.13031 6.75904C8.12497 6.81331 8.11006 6.86786 8.10387 6.9235" fill="#BF9200"/>
<path fill-rule="evenodd" clip-rule="evenodd" d="M8.10383 6.92346C8.08468 6.87287 8.08389 6.81746 8.10158 6.76637C8.11114 6.76474 8.12633 6.78955 8.13027 6.76228C8.13252 6.73774 8.13983 6.71483 8.13983 6.69137C8.13983 6.53265 8.15136 6.37419 8.15924 6.21683C8.17049 5.99183 8.17583 5.76628 8.19214 5.5421C8.19805 5.46656 8.19721 5.39019 8.19889 5.31492C8.20002 5.27428 8.19805 5.2241 8.24867 5.2121C8.29902 5.20037 8.32883 5.24047 8.35639 5.27647C8.37299 5.29828 8.37411 5.32474 8.37242 5.35147C8.35752 5.56556 8.35442 5.77937 8.34346 5.99374C8.33389 6.20156 8.3263 6.4091 8.31617 6.61774C8.3308 6.31065 8.34514 6.00328 8.35724 5.69565C8.36033 5.59883 8.36792 5.50201 8.37074 5.40383C8.37299 5.3261 8.39436 5.3111 8.47564 5.31847C8.51361 5.32256 8.55017 5.32965 8.58899 5.3321C8.60671 5.33865 8.62611 5.34492 8.63146 5.36565C8.62358 5.39347 8.59799 5.39047 8.57746 5.39101C8.53274 5.39401 8.51755 5.41937 8.52992 5.45647C8.54427 5.49601 8.53892 5.53665 8.54089 5.57619C8.53892 5.61219 8.53808 5.64819 8.53499 5.68419C8.52544 5.76313 8.52066 5.84253 8.52064 5.92201C8.51896 6.06601 8.50489 6.21083 8.50096 6.35456C8.48687 6.40761 8.48353 6.46281 8.49111 6.5171C8.49477 6.53456 8.50011 6.55201 8.50461 6.56946C8.50883 6.59537 8.49786 6.61883 8.48324 6.63901C8.4761 6.6466 8.46735 6.6526 8.45759 6.6566C8.44783 6.66061 8.43729 6.66251 8.42671 6.66219C8.39942 6.6581 8.38761 6.67965 8.37214 6.69274L8.10383 6.92346" fill="#BF9200"/>
<path fill-rule="evenodd" clip-rule="evenodd" d="M10.0007 6.8591C9.99594 6.86292 9.99144 6.86619 9.98722 6.87028C9.92928 6.81792 9.87022 6.7661 9.81312 6.71264C9.8089 6.70092 9.81425 6.69164 9.821 6.68237C9.82662 6.67228 9.82522 6.66164 9.82522 6.65046C9.821 6.32919 9.803 6.00983 9.7864 5.68964C9.7805 5.57319 9.785 5.45564 9.77178 5.33946C9.76848 5.31943 9.77321 5.29894 9.785 5.28219C9.812 5.2451 9.84209 5.20119 9.89581 5.21373C9.94587 5.22573 9.94447 5.27619 9.94503 5.31655C9.95431 5.67164 9.97681 6.02674 9.99284 6.38183C9.99847 6.50892 9.99284 6.63764 10.0122 6.76446C10.0165 6.79474 10.0212 6.8291 10.0007 6.8591Z" fill="#BF9200"/>
<path fill-rule="evenodd" clip-rule="evenodd" d="M9.82277 7.05439C9.82839 7.10567 9.85005 7.11794 9.90545 7.10266C9.99124 7.07866 10.1116 7.13566 10.0942 7.24148C10.0902 7.27039 10.0978 7.28948 10.1279 7.30312C10.1721 7.32303 10.1878 7.37866 10.2418 7.38821C10.2497 7.39012 10.2539 7.40566 10.2469 7.41085C10.1963 7.43948 10.2112 7.50848 10.1634 7.5393C10.1569 7.54421 10.1476 7.55239 10.1468 7.55948C10.1434 7.65385 10.0714 7.67076 9.99658 7.6863C9.64164 7.7613 9.28192 7.76839 8.92108 7.7613C8.65502 7.75694 8.38952 7.74276 8.12908 7.68085C8.06045 7.66557 8.01686 7.64048 7.99324 7.5663C7.97446 7.51475 7.94658 7.46676 7.91083 7.42448C7.89002 7.39966 7.89564 7.39721 7.91899 7.37866C7.97777 7.3323 8.05849 7.30421 8.0537 7.20248C8.05005 7.12966 8.15608 7.07539 8.23905 7.10212C8.29305 7.1193 8.31583 7.10648 8.32174 7.05439C8.33974 7.05085 8.34677 7.06312 8.35324 7.07539C8.3628 7.09503 8.36055 7.11494 8.35802 7.13567C8.35464 7.14481 8.34807 7.15253 8.33945 7.15748C8.3133 7.16948 8.28742 7.16239 8.26239 7.1553C8.24439 7.14957 8.22217 7.14139 8.20614 7.15994C8.18617 7.18421 8.21655 7.1913 8.22499 7.20657C8.22947 7.21388 8.23144 7.22238 8.23061 7.23085C8.22639 7.24503 8.2143 7.25239 8.20249 7.25921C8.1617 7.26821 8.12795 7.28594 8.10995 7.3263C8.1018 7.34594 8.08042 7.35657 8.06073 7.36939C8.00561 7.40676 8.00027 7.43621 8.04133 7.48639C8.04892 7.49648 8.0613 7.5063 8.06383 7.5183C8.08042 7.59848 8.14455 7.61212 8.21289 7.62521C8.44324 7.6683 8.67724 7.68739 8.91236 7.68876C9.12302 7.69067 9.33283 7.69448 9.54292 7.67567C9.6917 7.6623 9.84077 7.64785 9.98589 7.61212C10.0286 7.60176 10.0604 7.58566 10.0708 7.54012C10.0756 7.51912 10.0914 7.50166 10.1051 7.48448C10.142 7.4403 10.1397 7.40676 10.0939 7.37485C10.0625 7.35739 10.0365 7.33217 10.0185 7.30176C10.0002 7.26657 9.96536 7.27148 9.93049 7.27612C9.8357 7.29166 9.7443 7.31812 9.65008 7.33585C9.6377 7.33421 9.62955 7.32766 9.62252 7.31703C9.616 7.30732 9.61217 7.29616 9.61138 7.2846C9.61059 7.27304 9.61288 7.26148 9.61802 7.25103C9.62303 7.24147 9.63127 7.23387 9.64136 7.22948C9.74317 7.26985 9.83008 7.20548 9.92542 7.1943C9.93864 7.19239 9.94595 7.18257 9.94455 7.17085C9.93977 7.15312 9.92514 7.14821 9.90714 7.15067C9.8748 7.15421 9.84302 7.17303 9.8087 7.15966C9.79968 7.15473 9.79257 7.14707 9.78845 7.13785C9.78319 7.11742 9.78446 7.09592 9.79211 7.07621C9.79802 7.06366 9.80477 7.05112 9.82389 7.05439" fill="#BF9200"/>
<path fill-rule="evenodd" clip-rule="evenodd" d="M9.82633 6.70089L9.81283 6.71098C9.77176 6.69408 9.7518 6.64717 9.70567 6.63653C9.7011 6.64006 9.69568 6.64239 9.68992 6.6433C9.68415 6.6442 9.67825 6.64366 9.67276 6.64171C9.64661 6.62508 9.63733 6.60217 9.63873 6.57326C9.64126 6.55526 9.64914 6.53862 9.65195 6.5198C9.66064 6.46728 9.65786 6.41358 9.6438 6.36217C9.63817 6.20508 9.62298 6.04935 9.62242 5.89171C9.62242 5.83962 9.6303 5.78426 9.59823 5.73653C9.58701 5.72896 9.57824 5.71847 9.57292 5.70626C9.58473 5.62799 9.60105 5.55053 9.61089 5.47144C9.61876 5.40626 9.62101 5.40299 9.55492 5.39126C9.53776 5.38826 9.5192 5.38826 9.51245 5.36699C9.51751 5.34517 9.53805 5.33971 9.55633 5.33235C9.59823 5.3288 9.64014 5.32062 9.68205 5.3168C9.74561 5.3108 9.76923 5.32853 9.77289 5.39071C9.77908 5.5148 9.7833 5.63808 9.78864 5.76162C9.80523 6.06789 9.81255 6.37608 9.83167 6.68289C9.83167 6.68944 9.8283 6.69544 9.82633 6.70089" fill="#BF9200"/>
<path fill-rule="evenodd" clip-rule="evenodd" d="M9.67962 6.63548C9.68862 6.63548 9.69706 6.63629 9.70578 6.63629L9.75865 6.84302C9.76625 6.85529 9.7654 6.86593 9.75134 6.87384C9.74093 6.87902 9.72687 6.85993 9.71731 6.87902C9.67175 6.96493 9.68918 7.04484 9.77075 7.10566C9.78171 7.11302 9.79325 7.11902 9.79831 7.13293C9.80331 7.13732 9.80857 7.14141 9.81406 7.1452C9.8135 7.17548 9.78734 7.17766 9.7685 7.18257C9.71928 7.19238 9.67175 7.20766 9.62112 7.20438C9.60338 7.20436 9.58584 7.20799 9.56965 7.21502C9.46896 7.23411 9.36715 7.23302 9.2659 7.22948C9.24818 7.22838 9.22737 7.22675 9.22175 7.24966C9.21696 7.27148 9.23525 7.27857 9.25296 7.28348C9.29796 7.2982 9.34493 7.29275 9.3905 7.2952C9.41581 7.29657 9.44393 7.28811 9.46362 7.31293C9.46671 7.34702 9.43887 7.34866 9.41553 7.35248C9.38684 7.35657 9.35773 7.35712 9.3289 7.35411C9.27096 7.35084 9.21809 7.3612 9.17506 7.4032C9.16952 7.40968 9.16235 7.41466 9.15425 7.41766C9.10868 7.43266 9.07043 7.38302 9.01221 7.41629C8.97762 7.43675 8.92334 7.37511 8.8969 7.32902C8.89427 7.31968 8.89389 7.30989 8.89578 7.30039C8.9 7.27911 8.93628 7.27093 8.9225 7.24529C8.90759 7.21884 8.87778 7.23193 8.85528 7.22948C8.8055 7.22457 8.75234 7.25129 8.70762 7.21366C8.70509 7.17029 8.75065 7.17602 8.77118 7.15475C8.7836 7.14455 8.79909 7.13852 8.81534 7.13757C8.82546 7.13757 8.83418 7.14111 8.84234 7.14711C8.84993 7.1542 8.85809 7.16375 8.86962 7.16266C8.93937 7.15584 8.99646 7.17929 9.04878 7.2202C9.06171 7.23029 9.07718 7.23466 9.09125 7.22293C9.14721 7.1812 9.20937 7.15638 9.28334 7.16157C9.29093 7.16157 9.29712 7.15202 9.30387 7.14657C9.31146 7.14082 9.32049 7.13715 9.33003 7.13593C9.37925 7.15475 9.41412 7.15311 9.43943 7.09557C9.46165 7.04402 9.49118 7.04866 9.55531 7.10429C9.60031 7.04375 9.60003 7.03093 9.54575 6.95375C9.51481 6.97857 9.51509 7.03693 9.46334 7.03638C9.41525 7.03638 9.40484 6.98811 9.37671 6.9622C9.35056 6.99111 9.37109 7.04975 9.31231 7.05738C9.28475 7.03993 9.2825 7.01402 9.28728 6.98648C9.30837 6.92784 9.305 6.86811 9.29881 6.80866C9.30087 6.79889 9.30509 6.78968 9.31118 6.78166C9.34071 6.74784 9.33368 6.7042 9.34437 6.6652C9.35393 6.63166 9.35281 6.58448 9.40146 6.58038C9.44478 6.57766 9.4639 6.61802 9.485 6.64802C9.49077 6.65582 9.49436 6.66493 9.4954 6.67448C9.49231 6.64802 9.5044 6.61448 9.52353 6.58448C9.54856 6.54575 9.59525 6.54929 9.62956 6.59048C9.64362 6.60766 9.64981 6.63439 9.67962 6.63548" fill="#BF9200"/>
<path fill-rule="evenodd" clip-rule="evenodd" d="M8.80318 7.18365C8.77561 7.20765 8.73708 7.18665 8.7084 7.20738C8.6693 7.25265 8.62346 7.21201 8.58127 7.21611C8.56215 7.21256 8.54527 7.20301 8.52586 7.20438C8.47468 7.20765 8.42602 7.19238 8.3768 7.18256C8.3574 7.17765 8.33096 7.17574 8.32983 7.1452C8.33538 7.14148 8.34064 7.13738 8.34558 7.13292C8.35037 7.11901 8.36218 7.11329 8.37315 7.10565C8.45387 7.04483 8.47271 6.96492 8.42743 6.87983C8.41702 6.86129 8.40352 6.87902 8.39255 6.87411C8.37793 6.8662 8.37793 6.85556 8.38524 6.84329C8.39143 6.78111 8.42658 6.72547 8.42658 6.66247C8.42996 6.65525 8.43521 6.64899 8.44181 6.64431C8.44841 6.63963 8.45615 6.63668 8.46427 6.63574C8.48452 6.63574 8.49633 6.62347 8.50533 6.60683C8.52221 6.57711 8.54612 6.55338 8.58465 6.55802C8.62233 6.56265 8.62824 6.59674 8.63977 6.62511C8.64286 6.6322 8.64287 6.64174 8.65018 6.64774C8.65496 6.64883 8.65749 6.64638 8.66087 6.64229C8.68533 6.61611 8.70277 6.57138 8.74749 6.58147C8.79811 6.59265 8.79305 6.64392 8.80205 6.68265C8.80936 6.71347 8.80768 6.74756 8.83805 6.76938C8.84532 6.77587 8.85041 6.78433 8.85268 6.79365C8.8403 6.86101 8.8313 6.92701 8.86393 6.99247C8.8659 7.01756 8.85971 7.03883 8.83805 7.05411C8.77083 7.05656 8.79615 6.99001 8.76718 6.96301C8.68674 7.06447 8.67408 7.06447 8.6018 6.95729C8.54724 7.01565 8.54555 7.02929 8.58324 7.10292C8.60377 7.10374 8.61024 7.08274 8.62402 7.07374C8.65271 7.05438 8.68421 7.05301 8.69855 7.08274C8.71908 7.13238 8.76155 7.15638 8.80318 7.18365" fill="#BF9200"/>
<path fill-rule="evenodd" clip-rule="evenodd" d="M8.88151 4.76647C8.89389 4.68902 8.91554 4.6132 8.91076 4.53438C8.90996 4.50829 8.90257 4.48278 8.88923 4.46009C8.87589 4.43741 8.85702 4.41825 8.83426 4.40429C8.82057 4.3973 8.80529 4.39374 8.78982 4.39393C8.7662 4.39148 8.73582 4.44329 8.72064 4.39148C8.71429 4.37155 8.71391 4.35028 8.71953 4.33015C8.72516 4.31001 8.73656 4.29184 8.75242 4.27775C8.76057 4.27038 8.77267 4.26357 8.78195 4.26411C8.91582 4.27311 9.05082 4.22238 9.18442 4.27884C9.25445 4.30938 9.29748 4.35329 9.30226 4.42884C9.30817 4.44193 9.31014 4.4542 9.29523 4.46238C9.27385 4.46238 9.26232 4.44766 9.25557 4.43211C9.23195 4.37511 9.18245 4.37075 9.13998 4.39502C9.05335 4.44629 8.98698 4.41275 8.92342 4.35902C8.89718 4.33833 8.86711 4.32269 8.83482 4.31293C8.89332 4.32657 8.94142 4.36611 8.98445 4.40866C9.01539 4.43811 9.02579 4.47057 8.98839 4.51011C8.94395 4.5562 8.9701 4.62166 8.95182 4.67647C8.93776 4.71711 8.94845 4.76975 8.89135 4.78911C8.88039 4.78475 8.87617 4.77766 8.88151 4.76647" fill="#BF9200"/>
<path fill-rule="evenodd" clip-rule="evenodd" d="M9.39301 5.02039C9.40623 5.05203 9.43492 5.0463 9.46108 5.04494C9.58286 5.04057 9.68973 4.99366 9.79492 4.94048C9.80673 4.93339 9.81292 4.93912 9.81742 4.94921C9.81629 4.98521 9.78648 5.00048 9.76004 5.01575C9.71548 5.04037 9.66771 5.05908 9.61801 5.07139C9.55867 5.08803 9.50129 5.11203 9.44476 5.12812C9.36742 5.15103 9.27826 5.19603 9.19051 5.14121C9.16717 5.12703 9.14411 5.12348 9.11598 5.14012C9.05157 5.17994 9.01332 5.1603 8.99561 5.08339C8.99692 5.07894 8.99918 5.0748 9.00223 5.07123C9.00528 5.06766 9.00906 5.06474 9.01332 5.06266C9.09629 5.06103 9.09854 5.05966 9.09742 4.97403C9.09742 4.95166 9.09348 4.93039 9.09601 4.90885C9.10445 4.86739 9.1067 4.82539 9.10614 4.78366C9.10586 4.75994 9.10136 4.73594 9.12442 4.7193C9.16914 4.71766 9.16436 4.75121 9.16632 4.77766C9.17111 4.85103 9.16436 4.92412 9.18067 4.99721C9.18686 5.02694 9.19698 5.05039 9.23776 5.06621C9.2043 4.97908 9.18191 4.88832 9.17111 4.79594C9.16914 4.7763 9.16576 4.75748 9.16689 4.73785C9.16773 4.71139 9.16914 4.67948 9.20486 4.67948C9.23242 4.67894 9.24507 4.70566 9.24676 4.73103C9.24929 4.76512 9.25886 4.79839 9.26251 4.83303C9.26842 4.89139 9.28192 4.94812 9.30695 5.00185C9.31792 5.02394 9.33001 5.05503 9.36601 5.02694C9.37417 5.02039 9.38261 5.01657 9.39301 5.02039" fill="#BF9200"/>
<path fill-rule="evenodd" clip-rule="evenodd" d="M8.88153 4.76648C8.88575 4.77275 8.88968 4.77875 8.89475 4.78475C8.92315 4.81257 8.90459 4.84202 8.89587 4.86902C8.87562 4.93202 8.83456 4.98493 8.80137 5.04275C8.84637 5.03212 8.86409 4.99775 8.87759 4.96175C8.90319 4.89493 8.92793 4.82757 8.9375 4.75502C8.9389 4.74984 8.9375 4.74221 8.94003 4.73702C8.95409 4.70893 8.94706 4.65957 8.99178 4.66366C9.0424 4.6683 9.0199 4.71384 9.01822 4.74275C9.01049 4.85757 8.97576 4.96914 8.91669 5.06893C8.90853 5.08202 8.90009 5.09375 8.89897 5.10984C8.88406 5.12321 8.88406 5.13984 8.888 5.15757C8.86353 5.18702 8.83737 5.19712 8.81684 5.15702C8.80334 5.1303 8.78703 5.13766 8.76678 5.14284C8.72712 5.15293 8.69197 5.14775 8.66525 5.11448C8.6464 5.09212 8.6194 5.08911 8.59212 5.08557C8.52126 5.07548 8.45302 5.05243 8.39103 5.01766C8.36178 5.00348 8.32944 4.98821 8.3269 4.94921C8.3314 4.93912 8.33759 4.93312 8.34969 4.94048C8.45206 4.99257 8.5564 5.03702 8.67537 5.0463C8.71503 5.04848 8.74006 5.03839 8.76228 5.0043C8.81065 4.92875 8.84778 4.84857 8.88153 4.76648" fill="#BF9200"/>
<path fill-rule="evenodd" clip-rule="evenodd" d="M8.34973 4.93909C8.34382 4.94264 8.33848 4.94673 8.33229 4.95137C8.3036 4.97318 8.27773 4.95709 8.25129 4.94564C8.19247 4.91973 8.13001 4.90244 8.06595 4.89436C7.98973 4.88427 7.9332 4.91918 7.90254 4.98873C7.89129 5.01655 7.87723 5.04491 7.86176 5.07055C7.83082 5.06318 7.85754 5.031 7.83813 5.019C7.86682 4.88264 7.94951 4.82536 8.09013 4.84418C8.18407 4.85673 8.27013 4.88782 8.34973 4.93909" fill="#BF9200"/>
<path fill-rule="evenodd" clip-rule="evenodd" d="M9.81183 4.95273C9.80664 4.948 9.80088 4.94388 9.79468 4.94046C9.88187 4.88428 9.97721 4.85182 10.0801 4.842C10.2008 4.83028 10.2798 4.89437 10.306 5.02037L10.2928 5.06237C10.2587 5.05037 10.2534 5.01682 10.2419 4.9901C10.2095 4.91919 10.1513 4.88428 10.0717 4.89628C10.0098 4.90507 9.94952 4.92224 9.89255 4.94728C9.8664 4.95846 9.84024 4.97428 9.81183 4.95273" fill="#BF9200"/>
<path fill-rule="evenodd" clip-rule="evenodd" d="M9.39301 5.02037C9.38823 5.02534 9.38382 5.03062 9.37979 5.03619C9.34689 5.03564 9.33367 5.01355 9.32467 4.98846C9.29483 4.91897 9.27862 4.84471 9.27686 4.76946C9.28276 4.74382 9.29064 4.71791 9.31707 4.70319C9.33367 4.81064 9.34773 4.91864 9.39301 5.02037" fill="#BF9200"/>
<path fill-rule="evenodd" clip-rule="evenodd" d="M9.31785 4.7046C9.31194 4.72642 9.3201 4.75233 9.3035 4.77305C9.26328 4.72751 9.25372 4.50796 9.29085 4.46024C9.2945 4.44987 9.29872 4.4406 9.30294 4.43024C9.3305 4.52105 9.31897 4.61242 9.31785 4.70569" fill="#BF9200"/>
<path fill-rule="evenodd" clip-rule="evenodd" d="M8.3851 6.84274C8.3896 6.8512 8.39354 6.86074 8.39663 6.86974C8.4346 6.91965 8.41013 6.95647 8.37076 6.99029C8.34826 6.99247 8.35585 6.97065 8.34741 6.96192C8.35782 6.92156 8.36485 6.87956 8.3851 6.84274" fill="#BF9200"/>
<path fill-rule="evenodd" clip-rule="evenodd" d="M9.74723 6.86999C9.75089 6.86126 9.75454 6.85171 9.75876 6.84299C9.77901 6.87981 9.78632 6.9218 9.79645 6.96244C9.78857 6.9709 9.79645 6.99271 9.7731 6.9908C9.73373 6.95699 9.70926 6.9199 9.74723 6.86999" fill="#BF9200"/>
<path fill-rule="evenodd" clip-rule="evenodd" d="M8.34769 6.96246C8.35275 6.97146 8.35669 6.98101 8.36175 6.9911C8.38791 7.03092 8.38538 7.0631 8.33363 7.08056C8.32913 7.07183 8.32603 7.0631 8.32153 7.0541C8.33053 7.02383 8.33897 6.99301 8.34769 6.96246Z" fill="#BF9200"/>
<path fill-rule="evenodd" clip-rule="evenodd" d="M9.78332 6.99134C9.78754 6.98125 9.79148 6.97171 9.79654 6.96271C9.80498 6.99298 9.8137 7.02407 9.82298 7.05462C9.8182 7.06334 9.81511 7.07207 9.81061 7.08107C9.75885 7.06307 9.75632 7.03116 9.78332 6.99134" fill="#BF9200"/>
<path fill-rule="evenodd" clip-rule="evenodd" d="M8.54591 5.76546C8.52931 5.73709 8.52622 5.70573 8.51975 5.67491C8.49922 5.64219 8.51778 5.61055 8.52172 5.57809C8.53438 5.63509 8.54731 5.69264 8.55941 5.75019C8.55519 5.75537 8.55519 5.76491 8.54591 5.76546" fill="#BF9200"/>
<path fill-rule="evenodd" clip-rule="evenodd" d="M8.49086 6.46506C8.49676 6.45169 8.50154 6.4386 8.50689 6.42606C8.51814 6.43151 8.51167 6.44515 8.51814 6.45224C8.51026 6.4926 8.50239 6.53487 8.48158 6.57196C8.47736 6.55778 8.47426 6.54306 8.46948 6.52778C8.48017 6.50815 8.46583 6.48006 8.49086 6.46506Z" fill="#BF9200"/>
<path fill-rule="evenodd" clip-rule="evenodd" d="M8.70895 5.35608C8.68139 5.35962 8.65467 5.36453 8.62796 5.36917C8.61361 5.36453 8.59899 5.36099 8.58521 5.35689C8.61445 5.34544 8.64567 5.34517 8.67717 5.3438C8.69039 5.34108 8.70614 5.33044 8.70895 5.35608Z" fill="#BF9200"/>
<path fill-rule="evenodd" clip-rule="evenodd" d="M8.22376 7.22478C8.27579 7.23542 8.32922 7.24087 8.37844 7.25915C8.45944 7.28778 8.49966 7.25015 8.52835 7.18551C8.54522 7.18333 8.56013 7.18469 8.57363 7.1956C8.59191 7.20951 8.61891 7.21305 8.6251 7.24115C8.63213 7.27715 8.65997 7.28506 8.69316 7.28124C8.75954 7.28996 8.82535 7.29896 8.89313 7.29187C8.89654 7.29245 8.89979 7.29369 8.90269 7.29552C8.90559 7.29734 8.90808 7.29972 8.91001 7.30251V7.32487C8.83458 7.33433 8.75823 7.33451 8.68276 7.32542C8.61244 7.31669 8.56547 7.3366 8.53679 7.4116C8.51513 7.2946 8.42569 7.28642 8.33654 7.27196C8.28816 7.26515 8.23951 7.2586 8.19507 7.23596C8.20491 7.23269 8.21419 7.22833 8.22376 7.22478" fill="#BF9200"/>
<path fill-rule="evenodd" clip-rule="evenodd" d="M9.61599 7.18637C9.61121 7.21337 9.64834 7.21391 9.65031 7.23628L9.63737 7.25046C9.62331 7.26219 9.59378 7.2611 9.5949 7.28673C9.59743 7.30691 9.62359 7.30282 9.63653 7.31346L9.64974 7.32737C9.63624 7.35301 9.6219 7.37837 9.6039 7.41301C9.57971 7.34019 9.53162 7.31455 9.46299 7.32628C9.41349 7.30501 9.36231 7.32082 9.31196 7.31619C9.28553 7.31401 9.25824 7.32 9.23462 7.30391C9.27821 7.26137 9.33474 7.28319 9.38481 7.2821C9.44528 7.27964 9.50378 7.29273 9.53162 7.22073C9.53668 7.20819 9.55834 7.20628 9.57071 7.19728C9.58309 7.18555 9.59912 7.18364 9.61599 7.18637" fill="#BF9200"/>
<path fill-rule="evenodd" clip-rule="evenodd" d="M9.62716 6.45215C9.62109 6.43292 9.61518 6.41365 9.60944 6.39433C9.59791 6.3856 9.58497 6.37988 9.57794 6.36678C9.53253 6.26516 9.50259 6.15767 9.48907 6.04769C9.48766 6.03487 9.49047 6.0226 9.48682 6.00924C9.52366 5.91078 9.57541 5.81669 9.58835 5.7106C9.59482 5.71524 9.60213 5.71878 9.60888 5.72342C9.63138 5.78015 9.62097 5.84042 9.6235 5.89933C9.63025 6.07306 9.63138 6.2476 9.65585 6.41942C9.65275 6.43633 9.64994 6.45269 9.62716 6.45215" fill="#BF9200"/>
<path fill-rule="evenodd" clip-rule="evenodd" d="M9.51698 5.36943C9.46495 5.36997 9.41714 5.3547 9.36792 5.34352C9.36989 5.31761 9.38676 5.32824 9.39998 5.33043C9.45286 5.33915 9.50686 5.34815 9.55889 5.35579C9.54508 5.36078 9.5311 5.36533 9.51698 5.36943" fill="#BF9200"/>
<path fill-rule="evenodd" clip-rule="evenodd" d="M9.63848 6.42633C9.64355 6.43888 9.64889 6.45251 9.65452 6.46533C9.67955 6.48033 9.6652 6.50842 9.67561 6.5286C9.67111 6.54333 9.66802 6.55806 9.66408 6.57278C9.64298 6.53488 9.63623 6.49369 9.62695 6.45251C9.63033 6.44379 9.63483 6.43533 9.63848 6.42633" fill="#BF9200"/>
<path fill-rule="evenodd" clip-rule="evenodd" d="M9.31477 6.46635C9.27623 6.53972 9.23208 6.61144 9.26077 6.69926C9.2678 6.71072 9.2602 6.72326 9.26274 6.73499C9.28495 6.81708 9.30886 6.89972 9.31336 6.9859C9.30748 7.0093 9.30826 7.0338 9.31561 7.05681C9.34964 7.08081 9.36061 7.10972 9.32742 7.14299C9.32333 7.14769 9.31939 7.15251 9.31561 7.15744C9.29311 7.1599 9.2737 7.17244 9.25064 7.16999C9.20564 7.16454 9.16542 7.14817 9.16149 7.09963C9.15558 7.03226 9.14545 6.96463 9.13899 6.89726C9.13955 6.85608 9.13083 6.81599 9.1297 6.77508C9.12464 6.76035 9.12717 6.74372 9.12127 6.73035C9.12313 6.73462 9.12436 6.73912 9.12492 6.74372C9.12492 6.76063 9.13083 6.77563 9.13224 6.79308C9.14011 6.85035 9.13083 6.91063 9.15108 6.96708C9.15052 7.01017 9.16064 7.05272 9.15867 7.09663C9.15783 7.15444 9.11705 7.19863 9.06867 7.19617C9.02311 7.19454 8.98542 7.15144 8.98486 7.09663C8.98402 7.04972 8.99133 7.00199 8.99527 6.95535C9.01074 6.90217 9.00595 6.84735 9.01186 6.79308C9.01411 6.76417 9.02733 6.73635 9.02424 6.70717C9.0262 6.73417 9.01805 6.75926 9.01214 6.7849C9.01524 6.82226 9.00314 6.85908 9.00483 6.89617C8.99611 6.9619 8.98852 7.02708 8.98374 7.09363C8.98008 7.14108 8.93761 7.17108 8.88642 7.17026C8.86589 7.16972 8.84845 7.15908 8.82849 7.15772L8.81639 7.14326C8.78405 7.10999 8.79389 7.08135 8.82792 7.05708C8.83327 7.03472 8.83805 7.01072 8.84367 6.98835C8.83861 6.92999 8.83608 6.87217 8.85999 6.81626C8.86589 6.80017 8.85999 6.79172 8.8417 6.79226C8.83752 6.78781 8.83367 6.78307 8.83017 6.77808C8.85295 6.74372 8.87574 6.70908 8.8988 6.67554C8.9098 6.65037 8.91599 6.62348 8.91708 6.59617C8.91792 6.54981 8.92327 6.50372 8.94183 6.45954C8.94947 6.44353 8.96273 6.43067 8.97924 6.42326C9.07205 6.48872 9.07205 6.48872 9.16514 6.4219C9.1804 6.42988 9.19291 6.44202 9.20114 6.45681C9.21454 6.48971 9.22279 6.52436 9.22561 6.55963C9.22608 6.51026 9.24186 6.46218 9.27089 6.42163C9.27761 6.41387 9.28721 6.40897 9.29761 6.40799C9.3218 6.41181 9.33473 6.42544 9.33586 6.44917C9.33277 6.45981 9.3277 6.46826 9.31477 6.46635Z" fill="#BF9200"/>
<path fill-rule="evenodd" clip-rule="evenodd" d="M9.31219 6.80701C9.29025 6.77973 9.26859 6.75219 9.24609 6.72492C9.25088 6.71592 9.25566 6.70773 9.26072 6.69928C9.28744 6.72764 9.30741 6.75901 9.32512 6.79283L9.31219 6.80701Z" fill="#BF9200"/>
<path fill-rule="evenodd" clip-rule="evenodd" d="M8.96372 5.06888C9.018 5.01051 9.018 4.93442 9.03009 4.86297C9.04219 4.79506 9.04669 4.72661 9.05428 4.65515C9.08269 4.6647 9.07509 4.68106 9.07425 4.69361C9.06637 4.80406 9.0554 4.91451 9.0225 5.02115C9.01772 5.03779 9.01069 5.05388 9.01772 5.07161C9.01265 5.07624 9.009 5.08115 9.0045 5.08497H8.97862C8.96372 5.08906 8.96006 5.08251 8.96372 5.06888" fill="#BF9200"/>
<path fill-rule="evenodd" clip-rule="evenodd" d="M9.12479 4.93639C9.10567 4.84803 9.11579 4.75967 9.11157 4.66367C9.14842 4.68303 9.13576 4.7043 9.13632 4.72148C9.11326 4.79212 9.13239 4.86548 9.12479 4.93667" fill="#BF9200"/>
<path fill-rule="evenodd" clip-rule="evenodd" d="M8.9637 5.06894C8.96856 5.07456 8.97373 5.07993 8.97917 5.08503C8.95105 5.1123 8.91983 5.13358 8.88327 5.14803C8.86583 5.1363 8.86695 5.12403 8.88327 5.1123C8.91701 5.11012 8.93755 5.08448 8.9637 5.06894" fill="#BF9200"/>
<path fill-rule="evenodd" clip-rule="evenodd" d="M8.70878 5.35611C8.69838 5.35202 8.68741 5.34847 8.677 5.34383C8.758 5.32147 8.83816 5.3002 8.91944 5.27838C8.93322 5.27292 8.93744 5.27783 8.93744 5.29092C8.86411 5.32125 8.78737 5.34313 8.70878 5.35611" fill="#BF9200"/>
<path fill-rule="evenodd" clip-rule="evenodd" d="M9.25536 5.30865C9.20231 5.29797 9.15277 5.27484 9.11108 5.24128C9.11249 5.2331 9.11952 5.23256 9.12571 5.2301L9.27336 5.29419C9.27477 5.30756 9.27111 5.31465 9.25536 5.30865Z" fill="#BF9200"/>
<path fill-rule="evenodd" clip-rule="evenodd" d="M8.93768 5.29061C8.93181 5.28625 8.92581 5.28206 8.91968 5.27806L9.04596 5.21588C9.04896 5.21691 9.05171 5.21854 9.05403 5.22065C9.05636 5.22276 9.0582 5.22532 9.05946 5.22815C9.02458 5.26088 8.98099 5.27643 8.93768 5.29061Z" fill="#BF9200"/>
<path fill-rule="evenodd" clip-rule="evenodd" d="M9.25537 5.30868L9.27337 5.29449C9.31528 5.30649 9.35831 5.31904 9.39993 5.33049C9.38953 5.3354 9.37856 5.33895 9.36787 5.34359C9.32962 5.3354 9.28996 5.32831 9.25537 5.30868" fill="#BF9200"/>
<path fill-rule="evenodd" clip-rule="evenodd" d="M9.05891 5.22825C9.05385 5.22416 9.05047 5.22007 9.04541 5.21597C9.08225 5.16634 9.09997 5.21434 9.12529 5.23016L9.11066 5.24134C9.09407 5.2367 9.08141 5.21461 9.05891 5.22825Z" fill="#BF9200"/>
<path fill-rule="evenodd" clip-rule="evenodd" d="M9.24687 6.29184C9.25981 6.25065 9.26262 6.20947 9.26262 6.16638C9.26149 5.92038 9.26262 5.6752 9.26149 5.4292C9.26149 5.40492 9.27359 5.37738 9.24687 5.35638C9.24321 5.35474 9.24181 5.35311 9.24321 5.35065C9.24434 5.3482 9.24546 5.34711 9.24687 5.34711C9.35374 5.36783 9.45781 5.40274 9.5689 5.40274C9.59815 5.40329 9.59956 5.42156 9.59871 5.44256C9.58465 5.76629 9.47552 6.05238 9.24687 6.29184" fill="#BF9200"/>
<path fill-rule="evenodd" clip-rule="evenodd" d="M8.89586 5.35613C8.86407 5.36186 8.86914 5.38695 8.86914 5.40686C8.86914 5.6725 8.87054 5.93868 8.86801 6.20431C8.86801 6.23131 8.88742 6.25231 8.88461 6.2785C8.70489 6.08977 8.60589 5.86395 8.56201 5.61441C8.55189 5.55713 8.55048 5.49822 8.5457 5.43959C8.54261 5.41286 8.55273 5.40113 8.58198 5.40113C8.68548 5.39895 8.7842 5.36868 8.8832 5.34441C8.89726 5.33786 8.89867 5.3455 8.89586 5.35613" fill="#BF9200"/>
<path fill-rule="evenodd" clip-rule="evenodd" d="M8.51906 6.45221C8.51569 6.44334 8.51194 6.4346 8.50781 6.42603C8.55281 6.20785 8.54803 5.9864 8.54719 5.76521L8.56069 5.75021C8.59303 5.8364 8.62594 5.92203 8.65828 6.00767C8.66559 6.0213 8.65772 6.03358 8.65969 6.04667C8.64338 6.15685 8.61469 6.26403 8.56856 6.36685C8.56238 6.37994 8.54888 6.38567 8.53791 6.39385C8.53144 6.41349 8.52553 6.43367 8.51906 6.45221" fill="#BF9200"/>
<path fill-rule="evenodd" clip-rule="evenodd" d="M9.31483 6.4664C9.31933 6.46176 9.3227 6.45685 9.3272 6.45222C9.38176 6.43504 9.36404 6.39194 9.36404 6.35594C9.36292 6.31858 9.33395 6.31994 9.30695 6.31803C9.30218 6.31681 9.29794 6.31414 9.29485 6.31041C9.29177 6.30668 9.28999 6.30209 9.28979 6.29731C9.36039 6.20594 9.42705 6.11022 9.4847 6.00931C9.49033 6.01749 9.49595 6.02649 9.50186 6.03467C9.48281 6.10334 9.47019 6.17353 9.46417 6.2444C9.45714 6.33822 9.5013 6.37531 9.59298 6.3584C9.59805 6.36958 9.60283 6.38185 9.60761 6.3944C9.55783 6.47403 9.55783 6.47403 9.48386 6.40422C9.46811 6.38949 9.45123 6.37503 9.42648 6.35267L9.39611 6.57494L9.31483 6.4664" fill="#BF9200"/>
<path fill-rule="evenodd" clip-rule="evenodd" d="M8.53638 6.39354L8.55044 6.35836C8.61288 6.38345 8.65028 6.351 8.68235 6.30572C8.69725 6.28745 8.704 6.26263 8.72706 6.25145C8.74422 6.24845 8.76278 6.24927 8.77628 6.23427C8.77998 6.23161 8.78438 6.23005 8.78897 6.22975C8.79356 6.22946 8.79814 6.23046 8.80216 6.23263C8.81594 6.24927 8.83535 6.26154 8.83985 6.285C8.83962 6.29087 8.83745 6.29651 8.83366 6.30109C8.81397 6.315 8.78331 6.31554 8.77403 6.34309C8.75828 6.35918 8.75772 6.38973 8.72538 6.38782C8.71806 6.37909 8.72903 6.34254 8.6981 6.36982C8.67422 6.38919 8.65185 6.41025 8.63116 6.43282C8.59656 6.47209 8.57013 6.47945 8.55325 6.41973C8.55016 6.41018 8.54256 6.40227 8.53638 6.39354" fill="#BF9200"/>
<path fill-rule="evenodd" clip-rule="evenodd" d="M8.73273 6.25802C8.72541 6.27984 8.71782 6.30084 8.71135 6.3232C8.69026 6.31529 8.68323 6.29702 8.68182 6.27684C8.67407 6.19577 8.66063 6.11532 8.6416 6.03602C8.64638 6.0262 8.65201 6.01748 8.65679 6.00739C8.68773 6.06002 8.71951 6.11129 8.75045 6.16393C8.75359 6.16866 8.75534 6.17413 8.75551 6.17975C8.7482 6.19857 8.74904 6.2182 8.7496 6.23811C8.74735 6.24739 8.74313 6.25448 8.73273 6.25802" fill="#BF9200"/>
<path fill-rule="evenodd" clip-rule="evenodd" d="M8.83033 6.28909C8.83314 6.28663 8.83623 6.28582 8.83933 6.28418C8.88629 6.33054 8.93298 6.37582 8.97882 6.42245C8.98002 6.43792 8.97597 6.45333 8.96729 6.46636C8.93298 6.453 8.91133 6.41318 8.86689 6.42245C8.85819 6.41934 8.85098 6.41322 8.84664 6.40527C8.85508 6.36463 8.80473 6.33163 8.83033 6.28909" fill="#BF9200"/>
<path fill-rule="evenodd" clip-rule="evenodd" d="M9.28954 6.29727C9.29311 6.29934 9.29618 6.30213 9.29854 6.30545C9.31597 6.34227 9.30641 6.37827 9.29741 6.41454L9.28447 6.429C9.24088 6.41809 9.20966 6.447 9.17619 6.46691C9.16522 6.453 9.16466 6.43718 9.16382 6.42164C9.20544 6.38045 9.24847 6.339 9.28954 6.29727" fill="#BF9200"/>
<path fill-rule="evenodd" clip-rule="evenodd" d="M8.89722 6.29727C8.95572 6.31145 8.98665 6.35345 9.01225 6.402C8.96556 6.37636 8.93153 6.33682 8.89722 6.29727" fill="#BF9200"/>
<path fill-rule="evenodd" clip-rule="evenodd" d="M9.10997 5.29231C9.06947 5.2634 9.04079 5.31249 9.00366 5.30649C9.03741 5.28849 9.06244 5.21322 9.10997 5.29231Z" fill="#BF9200"/>
<path fill-rule="evenodd" clip-rule="evenodd" d="M9.02515 6.40092C9.0603 6.43746 9.09433 6.41619 9.12808 6.39792C9.11852 6.42656 9.09827 6.44946 9.0693 6.44946C9.04793 6.44865 9.02627 6.42874 9.02515 6.40092Z" fill="#BF9200"/>
<path fill-rule="evenodd" clip-rule="evenodd" d="M8.74681 6.18549C8.74738 6.17785 8.74878 6.17131 8.74991 6.16422C8.76706 6.18712 8.78338 6.20976 8.80138 6.23267C8.79658 6.23732 8.79208 6.24224 8.78788 6.2474C8.75385 6.24958 8.74878 6.22312 8.7395 6.20185C8.74029 6.19583 8.74282 6.19016 8.74681 6.18549" fill="#BF9200"/>
<path fill-rule="evenodd" clip-rule="evenodd" d="M9.16577 6.36278C9.18152 6.33769 9.1908 6.30414 9.23271 6.31124C9.21387 6.33333 9.19755 6.35787 9.16577 6.36278Z" fill="#BF9200"/>
<path fill-rule="evenodd" clip-rule="evenodd" d="M9.24689 5.34598V5.35552C9.22298 5.34871 9.19402 5.3498 9.18164 5.32034C9.20568 5.3218 9.22858 5.3308 9.24689 5.34598" fill="#BF9200"/>
<path fill-rule="evenodd" clip-rule="evenodd" d="M8.89596 5.35612C8.89202 5.35257 8.8878 5.34848 8.8833 5.34493C8.90299 5.3283 8.92549 5.32039 8.95052 5.3343C8.93618 5.35066 8.91508 5.35203 8.89596 5.35612" fill="#BF9200"/>
<path fill-rule="evenodd" clip-rule="evenodd" d="M8.85642 6.39959L8.86908 6.41404C8.9062 6.45249 8.90902 6.5024 8.91773 6.54986C8.92252 6.56977 8.92055 6.59077 8.93602 6.60822C8.93545 6.63713 8.91492 6.65486 8.89833 6.67559C8.88286 6.60331 8.87133 6.53022 8.82886 6.4664C8.8162 6.46995 8.81058 6.46177 8.80664 6.45086C8.80664 6.4184 8.81789 6.39686 8.85642 6.39959" fill="#BF9200"/>
<path fill-rule="evenodd" clip-rule="evenodd" d="M8.8157 6.45082L8.8292 6.46636C8.80754 6.49746 8.7842 6.55446 8.75551 6.54873C8.71501 6.53918 8.74145 6.48055 8.73048 6.44536C8.72485 6.42682 8.72682 6.40664 8.72485 6.38782C8.73217 6.366 8.74004 6.34418 8.74735 6.32346C8.78026 6.33736 8.77717 6.36709 8.77717 6.39464C8.77717 6.42218 8.78504 6.44264 8.8157 6.45082" fill="#BF9200"/>
<path fill-rule="evenodd" clip-rule="evenodd" d="M9.56531 7.5761C9.5459 7.57992 9.52256 7.58864 9.51918 7.55782C9.51722 7.52946 9.53606 7.51337 9.55743 7.50055C9.59653 7.47764 9.59147 7.52837 9.61818 7.54037C9.6224 7.49482 9.67472 7.47301 9.65925 7.42337C9.65812 7.42037 9.66937 7.4111 9.67697 7.40782C9.67893 7.40673 9.6899 7.41328 9.69047 7.41682C9.69356 7.46592 9.75403 7.46101 9.76893 7.4981C9.77231 7.50764 9.78778 7.51119 9.79059 7.50464C9.81843 7.45364 9.86006 7.47492 9.90337 7.48719C9.89606 7.45146 9.88931 7.42282 9.8834 7.39446C9.8775 7.3661 9.86765 7.34182 9.82997 7.35655C9.81393 7.36282 9.80212 7.35601 9.80043 7.3421C9.79622 7.3241 9.81562 7.32492 9.82715 7.32164C9.88172 7.30801 9.90478 7.33583 9.91547 7.38355C9.92334 7.42692 9.91462 7.48882 9.99646 7.45855C10.0007 7.45664 10.0128 7.46619 10.0162 7.47273C10.0218 7.48446 10.0074 7.48991 10.0021 7.48937C9.92953 7.48501 9.8834 7.56928 9.80493 7.54364C9.79143 7.5401 9.78553 7.54855 9.78103 7.56028C9.76162 7.6061 9.73856 7.6121 9.69665 7.57746C9.6584 7.54637 9.62268 7.56437 9.59681 7.60037C9.57122 7.60855 9.58106 7.57719 9.56531 7.5761" fill="#BF9200"/>
<path fill-rule="evenodd" clip-rule="evenodd" d="M8.74683 7.64454C8.80083 7.62627 8.8357 7.60418 8.80561 7.55181C8.79604 7.53491 8.80223 7.51936 8.81939 7.51445C8.83514 7.50872 8.83823 7.52563 8.84386 7.53736C8.84948 7.54936 8.85342 7.56409 8.87058 7.55918C8.8883 7.55509 8.88211 7.53872 8.88126 7.52672C8.87986 7.512 8.87311 7.49427 8.89195 7.48609C8.91389 7.47736 8.91389 7.50163 8.92458 7.50981C8.95692 7.53109 8.99433 7.51772 9.02892 7.521C9.05986 7.52591 9.09698 7.51772 9.08545 7.569C9.1147 7.56518 9.11273 7.54118 9.12848 7.53272C9.14648 7.52345 9.16955 7.50872 9.18305 7.52345C9.19542 7.53763 9.1943 7.56409 9.1943 7.58563C9.19486 7.60963 9.17376 7.60963 9.15576 7.61045C9.12342 7.611 9.09079 7.60472 9.06914 7.64236C9.05873 7.65982 9.03567 7.65872 9.01626 7.64318C8.94792 7.59109 8.89083 7.58918 8.82529 7.63636C8.80645 7.65054 8.78592 7.65381 8.74683 7.64454Z" fill="#BF9200"/>
<path fill-rule="evenodd" clip-rule="evenodd" d="M8.66301 7.59687C8.67539 7.53059 8.68748 7.47987 8.68411 7.42723C8.68298 7.40896 8.68945 7.39505 8.70604 7.39505C8.73417 7.39505 8.72095 7.41687 8.71898 7.42859C8.71223 7.48232 8.70379 7.5355 8.69451 7.58923C8.69086 7.6075 8.67679 7.61978 8.65879 7.62523C8.64107 7.63014 8.62954 7.62032 8.61886 7.60778C8.57667 7.55214 8.51254 7.5366 8.45179 7.5715C8.43154 7.58323 8.41242 7.59223 8.38232 7.58214C8.42339 7.56032 8.4532 7.5355 8.43407 7.48723C8.43042 7.47823 8.43829 7.4635 8.45011 7.4616C8.46445 7.4586 8.4667 7.47278 8.46811 7.48341C8.4712 7.50278 8.47401 7.52241 8.49904 7.52705C8.51114 7.52923 8.52182 7.52923 8.52998 7.52078C8.53673 7.51259 8.52689 7.50632 8.52182 7.4995C8.48442 7.44305 8.56176 7.45941 8.57329 7.42914C8.58257 7.40678 8.61267 7.42859 8.61323 7.44796C8.61436 7.47278 8.69029 7.49814 8.61548 7.52323C8.62842 7.54423 8.64192 7.56414 8.66301 7.59687" fill="#BF9200"/>
<path fill-rule="evenodd" clip-rule="evenodd" d="M8.17588 7.32764C8.20653 7.30828 8.24085 7.30337 8.2625 7.31455C8.27994 7.3241 8.25857 7.35301 8.25322 7.37373C8.2521 7.37783 8.25013 7.38192 8.24985 7.38655C8.24563 7.41328 8.2116 7.45146 8.24394 7.46592C8.29203 7.48555 8.26672 7.42719 8.285 7.41219C8.29288 7.40674 8.30357 7.40483 8.31847 7.39883C8.31707 7.41328 8.31763 7.42146 8.3165 7.42964C8.31144 7.45255 8.28725 7.48146 8.33113 7.49101C8.37219 7.50055 8.36488 7.47492 8.36488 7.44955C8.36516 7.43046 8.38907 7.42828 8.4065 7.42746C8.40791 7.43046 8.41016 7.43264 8.4096 7.43455C8.38091 7.54964 8.39947 7.53846 8.28247 7.51119C8.25013 7.50437 8.21835 7.49455 8.18628 7.48501C8.16969 7.48119 8.14607 7.48337 8.1441 7.46046C8.14297 7.43646 8.15957 7.42119 8.18263 7.41192C8.19534 7.40899 8.20712 7.40309 8.21694 7.39473C8.24478 7.36364 8.23016 7.33637 8.17588 7.32764" fill="#BF9200"/>
<path fill-rule="evenodd" clip-rule="evenodd" d="M9.27097 7.61153C9.21697 7.5979 9.23862 7.56026 9.25747 7.54417C9.29431 7.51499 9.29487 7.48335 9.27997 7.44681C9.27181 7.42635 9.28081 7.41571 9.29656 7.41326C9.31597 7.41108 9.31259 7.4299 9.31428 7.44162C9.31878 7.47435 9.32159 7.50599 9.32609 7.53817C9.3275 7.55562 9.32806 7.57662 9.35506 7.56953C9.37475 7.56435 9.37897 7.55126 9.37053 7.53435C9.36406 7.51935 9.35619 7.50326 9.37784 7.49781C9.40709 7.49099 9.40034 7.51717 9.4054 7.53162C9.42312 7.58753 9.39556 7.60608 9.34184 7.60281C9.32103 7.62762 9.29431 7.60771 9.27097 7.61153" fill="#BF9200"/>
<path fill-rule="evenodd" clip-rule="evenodd" d="M9.41113 7.64453C9.45304 7.60471 9.48257 7.57526 9.43813 7.53517C9.42519 7.5248 9.43673 7.50462 9.45163 7.49807C9.46738 7.49235 9.47132 7.5098 9.47863 7.52044C9.51576 7.57962 9.50113 7.61889 9.41113 7.64453" fill="#BF9200"/>
<path fill-rule="evenodd" clip-rule="evenodd" d="M8.75246 7.39642C8.77299 7.40706 8.79127 7.41251 8.78227 7.43488C8.76568 7.47361 8.76568 7.51479 8.76202 7.55461C8.7609 7.56851 8.76202 7.58951 8.73952 7.58515C8.71646 7.58106 8.72799 7.5617 8.72996 7.54861C8.73221 7.52242 8.73587 7.49733 8.73952 7.47197C8.74346 7.44851 8.74684 7.42533 8.75246 7.39642" fill="#BF9200"/>
<path fill-rule="evenodd" clip-rule="evenodd" d="M9.34025 7.61569C9.35375 7.6206 9.36753 7.63123 9.3574 7.64378C9.34025 7.6626 9.31325 7.64732 9.29075 7.6506C9.27612 7.6536 9.27359 7.63533 9.28484 7.62278C9.30143 7.61078 9.32112 7.61405 9.34025 7.61569Z" fill="#BF9200"/>
<path fill-rule="evenodd" clip-rule="evenodd" d="M9.56532 7.57605C9.57573 7.58423 9.58501 7.59269 9.59626 7.60005C9.58389 7.6276 9.56223 7.63032 9.53467 7.62569C9.54086 7.60523 9.58023 7.60605 9.56532 7.57605Z" fill="#BF9200"/>
<path fill-rule="evenodd" clip-rule="evenodd" d="M9.25438 7.4427C9.25129 7.45497 9.24426 7.4577 9.23582 7.45497C9.23076 7.45361 9.22485 7.44652 9.22485 7.44379C9.22542 7.43316 9.23357 7.42879 9.2437 7.43207C9.2482 7.4337 9.25157 7.43888 9.25438 7.4427" fill="#BF9200"/>
<path fill-rule="evenodd" clip-rule="evenodd" d="M9.25814 7.49429C9.2528 7.50057 9.24689 7.50793 9.23789 7.50302C9.23002 7.49811 9.22355 7.49157 9.22917 7.48257C9.23367 7.47439 9.24014 7.46811 9.24942 7.47438C9.25702 7.47766 9.26264 7.48448 9.25814 7.49429" fill="#BF9200"/>
<path fill-rule="evenodd" clip-rule="evenodd" d="M9.97184 7.53656C9.9679 7.54856 9.95974 7.55102 9.95046 7.5502C9.94202 7.54911 9.93162 7.54529 9.93752 7.53411C9.94062 7.52838 9.94962 7.52347 9.95693 7.52238C9.96706 7.52129 9.971 7.5292 9.97184 7.53656Z" fill="#BF9200"/>
<path fill-rule="evenodd" clip-rule="evenodd" d="M8.20382 7.52074C8.19875 7.53056 8.19229 7.53656 8.18244 7.53192C8.17794 7.5292 8.17316 7.52183 8.17457 7.51692C8.17654 7.50901 8.18497 7.5041 8.19397 7.50901C8.19875 7.51065 8.20129 7.5172 8.20382 7.52074" fill="#BF9200"/>
<path fill-rule="evenodd" clip-rule="evenodd" d="M8.33552 7.55671C8.32905 7.5608 8.32455 7.56653 8.32033 7.56707C8.30964 7.56925 8.30346 7.56162 8.30683 7.55316C8.30852 7.5488 8.31639 7.54498 8.32146 7.54498C8.32511 7.54526 8.32905 7.5518 8.33552 7.55671" fill="#BF9200"/>
<path fill-rule="evenodd" clip-rule="evenodd" d="M8.35571 7.1973C8.37492 7.19268 8.395 7.19278 8.41416 7.19759C8.43331 7.2024 8.45092 7.21177 8.4654 7.22484C8.4249 7.23111 8.38974 7.21748 8.35571 7.1973Z" fill="#BF9200"/>
<path fill-rule="evenodd" clip-rule="evenodd" d="M8.19556 7.15093C8.21342 7.14593 8.23238 7.14602 8.25019 7.1512C8.26799 7.15637 8.28389 7.16641 8.29596 7.18012C8.26081 7.18639 8.23099 7.1733 8.19556 7.15093Z" fill="#BF9200"/>
<path fill-rule="evenodd" clip-rule="evenodd" d="M9.6792 7.22104C9.71042 7.19731 9.74839 7.19185 9.78636 7.19022C9.78748 7.19567 9.78973 7.20085 9.79114 7.20631L9.68482 7.23658L9.6792 7.22104" fill="#BF9200"/>
<path fill-rule="evenodd" clip-rule="evenodd" d="M9.8396 7.18363C9.8711 7.15172 9.90288 7.14463 9.94844 7.14735C9.93422 7.16087 9.91708 7.17114 9.89825 7.17741C9.87942 7.18369 9.85938 7.18581 9.8396 7.18363" fill="#BF9200"/>
<path fill-rule="evenodd" clip-rule="evenodd" d="M8.68213 7.3028H8.89729C8.82688 7.32161 8.75254 7.32161 8.68213 7.3028" fill="#BF9200"/>
<path fill-rule="evenodd" clip-rule="evenodd" d="M9.01683 6.77922C9.01315 6.77972 9.00949 6.78036 9.00586 6.78113L9.02302 6.66467C9.0323 6.71595 9.0368 6.74867 9.01683 6.77922Z" fill="#BF9200"/>
<path fill-rule="evenodd" clip-rule="evenodd" d="M9.11475 6.73939V6.67993C9.13106 6.69602 9.12431 6.71184 9.12712 6.72657C9.13359 6.7402 9.126 6.74157 9.11475 6.73939" fill="#BF9200"/>
<path fill-rule="evenodd" clip-rule="evenodd" d="M9.11478 6.73938C9.11875 6.73497 9.12288 6.7307 9.12715 6.72656C9.13204 6.73234 9.13543 6.73917 9.13704 6.74647C9.13866 6.75378 9.13845 6.76135 9.13643 6.76856C9.13269 6.77257 9.12864 6.7763 9.12434 6.77974C9.11337 6.76856 9.11253 6.75383 9.11478 6.73938Z" fill="#BF9200"/>
<path fill-rule="evenodd" clip-rule="evenodd" d="M8.74391 7.25677C8.70432 7.2651 8.66345 7.26593 8.62354 7.25922C8.66572 7.22732 8.70032 7.22622 8.74391 7.25677Z" fill="#BF9200"/>
<path fill-rule="evenodd" clip-rule="evenodd" d="M8.88766 7.26327C8.85897 7.27636 8.82804 7.27445 8.79541 7.27636C8.80019 7.251 8.8165 7.25236 8.83141 7.25236C8.84857 7.26082 8.87135 7.24609 8.88766 7.26327Z" fill="#BF9200"/>
<path fill-rule="evenodd" clip-rule="evenodd" d="M8.88779 7.2633C8.86839 7.2603 8.84786 7.2633 8.83154 7.25239C8.85404 7.25103 8.8757 7.24966 8.89736 7.24966C8.90326 7.24966 8.91057 7.25539 8.90017 7.26085C8.89707 7.2633 8.89201 7.26194 8.88779 7.2633" fill="#BF9200"/>
<path fill-rule="evenodd" clip-rule="evenodd" d="M9.51057 7.25261C9.47537 7.26488 9.43723 7.26687 9.40088 7.25833C9.43997 7.22233 9.47457 7.23651 9.51057 7.25261Z" fill="#BF9200"/>
<path fill-rule="evenodd" clip-rule="evenodd" d="M9.31494 7.25238C9.32844 7.24965 9.33969 7.25511 9.35572 7.27093C9.32298 7.27832 9.28868 7.27565 9.25757 7.26329C9.27416 7.24611 9.29666 7.26084 9.31494 7.25238" fill="#BF9200"/>
<path fill-rule="evenodd" clip-rule="evenodd" d="M9.31503 7.25242C9.29731 7.26333 9.27706 7.26033 9.25766 7.26333C9.25203 7.26033 9.22756 7.26197 9.24669 7.25242C9.26385 7.24233 9.29113 7.25106 9.31503 7.25242Z" fill="#BF9200"/>
<path fill-rule="evenodd" clip-rule="evenodd" d="M8.74676 6.19423C8.73213 6.20486 8.73832 6.22068 8.73326 6.23377C8.72369 6.21632 8.71723 6.19804 8.72623 6.18004C8.72988 6.17132 8.74029 6.18113 8.74676 6.1855V6.19423" fill="#BF9200"/>
<path fill-rule="evenodd" clip-rule="evenodd" d="M8.5778 7.46725C8.58342 7.47325 8.58933 7.4768 8.59046 7.48171C8.59636 7.49507 8.58455 7.49507 8.57667 7.49398C8.57217 7.49398 8.56514 7.48662 8.56571 7.4828C8.56627 7.47789 8.57217 7.47325 8.5778 7.46725Z" fill="#BF9200"/>
</svg>