<svg width="78" height="81" viewBox="0 0 78 81" fill="none" xmlns="http://www.w3.org/2000/svg">
<path opacity="0.5" d="M44.2949 73.5884V42.0884L63.7949 35.0884V64.5884L44.2949 73.5884Z" fill="#FFDF36"/>
<path opacity="0.5" d="M31.7949 58.5884V27.0884L3.29492 18.0884V47.5884L31.7949 58.5884Z" fill="#FFDF36"/>
<circle opacity="0.5" cx="47.7949" cy="14.5884" r="14.5" fill="#47D7AC"/>
<path d="M10.2949 27.6122L39.2949 37.136M10.2949 27.6122L39.2949 18.0884L68.2949 27.6122M10.2949 27.6122L1.29492 36.6122L10.2949 40.055M39.2949 68.0884L10.2949 56.1836V40.055M39.2949 68.0884L68.2949 56.1836V40.2392M39.2949 68.0884V37.136M68.2949 27.6122L39.2949 37.136M68.2949 27.6122L76.7949 37.136L68.2949 40.2392M39.2949 37.136L31.2949 48.0884L10.2949 40.055M39.2949 37.136L46.7949 48.0884L68.2949 40.2392" stroke="#373737" stroke-linecap="round" stroke-linejoin="round"/>
<ellipse cx="37.7949" cy="78.5884" rx="17.5" ry="1.5" fill="#EEEEEE"/>
</svg>
