<svg width="18" height="12" viewBox="0 0 18 12" fill="none" xmlns="http://www.w3.org/2000/svg">
<path d="M18 10.1538C18 10.6435 17.7893 11.1131 17.4142 11.4593C17.0391 11.8055 16.5304 12 16 12H12V0H16C16.5304 0 17.0391 0.194505 17.4142 0.540726C17.7893 0.886947 18 1.35652 18 1.84615V10.1538Z" fill="#ED2939"/>
<path d="M2 0C1.46957 0 0.960859 0.194505 0.585786 0.540726C0.210714 0.886947 0 1.35652 0 1.84615L0 10.1538C0 10.6435 0.210714 11.1131 0.585786 11.4593C0.960859 11.8055 1.46957 12 2 12H6V0H2Z" fill="#002495"/>
<path d="M6 0H12V12H6V0Z" fill="#EEEEEE"/>
</svg>
