<svg width="29" height="26" viewBox="0 0 29 26" fill="none" xmlns="http://www.w3.org/2000/svg">
<path d="M2.54286 12.8344V23.5687C2.54286 24.3592 3.23362 25 4.08571 25H14.5M2.54286 12.8344H14.5M2.54286 12.8344H1V7.82497H14.5M26.4571 12.8344V23.5687C26.4571 24.3592 25.7664 25 24.9143 25H14.5M26.4571 12.8344H14.5M26.4571 12.8344H28V7.82497H14.5M14.5 12.8344V25M14.5 12.8344V7.82497M14.5 7.82497L16.3615 2.89118C16.8461 1.60673 18.2567 0.832085 19.7037 1.05581L19.7714 1.06626C21.002 1.25653 21.9663 2.15112 22.1714 3.29273C22.4156 4.65159 21.5214 5.96398 20.0935 6.34243L14.5 7.82497ZM14.5 7.82497L12.0279 2.72875C11.439 1.5147 10.0421 0.821216 8.62654 1.04008L8.43069 1.07036C7.21593 1.25818 6.26401 2.14124 6.06155 3.26813C5.81637 4.6328 6.73392 5.94558 8.177 6.2948L14.5 7.82497Z" stroke="white" stroke-linejoin="round"/>
</svg>
