<svg width="26" height="25" viewBox="0 0 26 25" fill="none" xmlns="http://www.w3.org/2000/svg">
<path d="M13.2834 12.909L14.3505 11.8419M13.2834 12.909L12.346 11.9716C11.4646 11.0902 11.4646 9.66113 12.346 8.77971L13.4131 7.71262L14.3505 8.65002C15.2319 9.53143 15.2319 10.9605 14.3505 11.8419M13.2834 12.909L14.2208 13.8463C15.1022 14.7277 16.5312 14.7277 17.4126 13.8463L18.4797 12.7792L17.5423 11.8418C16.6609 10.9604 15.2319 10.9605 14.3505 11.8419M10.1654 16.0247L11.2325 14.9576M10.1654 16.0247L9.22799 15.0873C8.34657 14.2059 8.34657 12.7768 9.22799 11.8954L10.2951 10.8283L11.2325 11.7657C12.1139 12.6471 12.1139 14.0762 11.2325 14.9576M10.1654 16.0247L11.1027 16.962C11.9841 17.8434 13.4132 17.8434 14.2946 16.962L15.3617 15.8949L14.4243 14.9575C13.5429 14.0761 12.1139 14.0762 11.2325 14.9576M7.04909 19.141L8.11619 18.0739M7.04909 19.141L6.1117 18.2036C5.23028 17.3222 5.23028 15.8931 6.1117 15.0117L7.17879 13.9446L8.11619 14.882C8.9976 15.7634 8.9976 17.1925 8.11619 18.0739M7.04909 19.141L7.98642 20.0783C8.86783 20.9597 10.2969 20.9597 11.1783 20.0783L12.2454 19.0112L11.308 18.0738C10.4266 17.1924 8.9976 17.1925 8.11619 18.0739M15.9467 10.2462L4.24067 21.9523M21.0828 21.0085C16.4886 25.6027 9.03987 25.6027 4.44566 21.0085C-0.148552 16.4143 -0.148552 8.96565 4.44566 4.37144M21.0828 21.0085C25.677 16.4143 25.677 8.96565 21.0828 4.37144C16.4886 -0.222771 9.03987 -0.222771 4.44566 4.37144M21.0828 21.0085L4.44566 4.37144M18.9314 9.98428C17.7975 11.1182 15.5152 10.6745 15.5152 10.6745C15.5152 10.6745 15.0715 8.39227 16.2054 7.2583C17.3394 6.12433 19.6217 6.56806 19.6217 6.56806C19.6217 6.56806 20.0654 8.85031 18.9314 9.98428Z" stroke="#373737"/>
<path d="M10.2422 8.48438L17.9151 16.1573" stroke="white"/>
</svg>
