<svg width="24" height="21" viewBox="0 0 24 21" fill="none" xmlns="http://www.w3.org/2000/svg">
<path d="M13.8679 10.913V7.36765C13.8679 6.98291 13.9579 6.60345 14.1309 6.25933L15.5283 3.47826M13.8679 10.913H20.0943M13.8679 10.913H12.6226M15.5283 3.47826H18.434M15.5283 3.47826C15.0698 3.47826 14.6981 3.10841 14.6981 2.65217V1.82609C14.6981 1.36985 15.0698 1 15.5283 1H18.434C18.8925 1 19.2642 1.36985 19.2642 1.82609V2.65217C19.2642 3.10841 18.8925 3.47826 18.434 3.47826M18.434 3.47826L19.8314 6.25934C20.0043 6.60345 20.0943 6.98291 20.0943 7.36765V10.913M20.0943 10.913H23L19.6862 18.9734C19.4309 19.5943 18.8237 20 18.1495 20H5.85055C5.17634 20 4.56907 19.5943 4.31379 18.9734L1 10.913H3.49057M3.49057 10.913H12.6226M3.49057 10.913C3.49057 8.40375 5.53485 6.36957 8.0566 6.36957C10.5784 6.36957 12.6226 8.40375 12.6226 10.913M6.81132 13.3913L8.4717 17.9348M15.9434 17.9348L17.1887 13.3913M12.2075 17.9348V13.3913" stroke="#1CBD8D" stroke-linecap="round" stroke-linejoin="round"/>
</svg>
