<svg width="19" height="19" viewBox="0 0 19 19" fill="none" xmlns="http://www.w3.org/2000/svg">
<path d="M1 9.40254V17C1 17.5523 1.44772 18 2 18H5.5C6.05228 18 6.5 17.5523 6.5 17V13.75C6.5 12.2312 7.73122 11 9.25 11C10.7688 11 12 12.2312 12 13.75V17C12 17.5523 12.4477 18 13 18H17C17.5523 18 18 17.5523 18 17V9.40254C18 8.82871 17.7535 8.28252 17.3232 7.90286L10.1616 1.58378C9.7836 1.25023 9.2164 1.25023 8.83838 1.58378L1.67676 7.90286C1.24648 8.28252 1 8.82871 1 9.40254Z" stroke="#CDCDCD" stroke-width="2" stroke-linejoin="round"/>
</svg>
