<svg width="19" height="20" viewBox="0 0 19 20" fill="none" xmlns="http://www.w3.org/2000/svg">
<path d="M1 8.11829V18C1 18.5523 1.44772 19 2 19H6.18247C6.25428 19 6.3125 18.9418 6.3125 18.87V14.7757C6.3125 13.0153 7.73959 11.5882 9.5 11.5882C11.2604 11.5882 12.6875 13.0153 12.6875 14.7757V18.87C12.6875 18.9418 12.7457 19 12.8175 19H17C17.5523 19 18 18.5523 18 18V8.16947C18 7.51231 17.6772 6.89709 17.1364 6.52369L10.3231 1.81919C9.61466 1.32999 8.67262 1.3491 7.98455 1.86662L1.79781 6.51993C1.29549 6.89775 1 7.48974 1 8.11829Z" stroke="#8B8B8B" stroke-width="2"/>
</svg>
