<svg width="40" height="40" viewBox="0 0 40 40" fill="none" xmlns="http://www.w3.org/2000/svg">
<path d="M19.1984 1.59961C9.04844 1.59961 2.39844 8.98086 2.39844 17.1246C2.39844 20.9684 3.89219 24.0027 5.29844 26.7496C6.70469 29.4965 7.99844 31.9434 7.99844 34.7246V38.3996H9.59844V34.7246C9.59844 31.4496 8.09219 28.7496 6.69844 26.0246C5.30469 23.2996 3.99844 20.5559 3.99844 17.1246C3.99844 9.84336 9.81094 3.19961 19.1984 3.19961C24.1641 3.19961 27.3953 4.81523 29.5484 7.22461C31.7016 9.63398 32.7766 12.9121 33.1734 16.2496L33.1984 16.3996L33.2734 16.5496L36.6234 22.5746C36.9234 23.1184 36.6953 23.759 36.1234 23.9996L34.0984 24.8496L33.5984 25.0746V29.4996C33.5984 32.209 31.4078 34.3996 28.6984 34.3996H25.5984V38.3996H27.1984V35.9996H28.6984C32.2734 35.9996 35.1984 33.0746 35.1984 29.4996V26.1246L36.7484 25.4746C38.1734 24.8746 38.7734 23.1527 38.0234 21.7996L34.7234 15.8746C34.2828 12.3777 33.1359 8.84648 30.7234 6.14961C28.2703 3.40586 24.5203 1.59961 19.1984 1.59961ZM19.1984 10.3996C14.7891 10.3996 11.1984 13.9902 11.1984 18.3996C11.1984 21.3715 12.8359 23.9465 15.2484 25.3246C15.6547 26.0715 15.9703 26.8121 15.9984 27.8496C15.9922 27.8996 15.9922 27.9496 15.9984 27.9996C15.9984 28.0246 15.9984 28.0496 15.9984 28.0746V29.5996C15.9984 30.6965 16.7609 31.6184 17.7734 31.8996C18.0328 32.4309 18.5672 32.7996 19.1984 32.7996C19.8297 32.7996 20.3641 32.4309 20.6234 31.8996C21.6359 31.6184 22.3984 30.6965 22.3984 29.5996V28.1246C22.4016 28.084 22.4016 28.0402 22.3984 27.9996C22.3984 27.9746 22.3984 27.9496 22.3984 27.9246C22.4141 26.809 22.7359 26.059 23.1734 25.2746C25.5609 23.8902 27.1984 21.3527 27.1984 18.3996C27.1984 13.9902 23.6078 10.3996 19.1984 10.3996ZM19.1984 11.9996C22.7422 11.9996 25.5984 14.8559 25.5984 18.3996C25.5984 20.8715 24.2141 23.0059 22.1734 24.0746C22.0391 24.1434 21.9266 24.2465 21.8484 24.3746C21.4266 25.1215 21.0703 26.0777 20.9234 27.1996H17.4734C17.3297 26.0902 16.9891 25.1465 16.5734 24.3996C16.4984 24.2621 16.3859 24.1496 16.2484 24.0746C14.1984 23.0059 12.7984 20.8746 12.7984 18.3996C12.7984 14.8559 15.6547 11.9996 19.1984 11.9996ZM17.1984 17.5996C16.5359 17.5996 15.9984 18.1371 15.9984 18.7996C15.9984 19.4621 16.5359 19.9996 17.1984 19.9996C17.6141 19.9996 17.9828 19.7934 18.1984 19.4746C18.3203 19.6152 18.3984 19.7934 18.3984 19.9996V25.5996H19.9984V19.9996C19.9984 19.7934 20.0766 19.6152 20.1984 19.4746C20.4141 19.7934 20.7828 19.9996 21.1984 19.9996C21.8609 19.9996 22.3984 19.4621 22.3984 18.7996C22.3984 18.1371 21.8609 17.5996 21.1984 17.5996H20.7984C20.1859 17.5996 19.6234 17.8402 19.1984 18.2246C18.7734 17.8402 18.2109 17.5996 17.5984 17.5996H17.1984ZM17.5984 28.7996H20.7984V29.5996C20.7984 30.0527 20.4516 30.3996 19.9984 30.3996H18.3984C17.9453 30.3996 17.5984 30.0527 17.5984 29.5996V28.7996Z" fill="#373737"/>
</svg>
