<svg width="18" height="12" viewBox="0 0 18 12" fill="none" xmlns="http://www.w3.org/2000/svg">
<path d="M0 3.27274H18V8.72728H0V3.27274Z" fill="#E6E7E8"/>
<path fill-rule="evenodd" clip-rule="evenodd" d="M11 3.99941C10.9235 4.22739 10.8541 4.43601 10.7842 4.64653C10.6449 5.06331 10.5074 5.48103 10.3665 5.89639C10.3412 5.97097 10.3401 6.02667 10.3659 6.1036C10.567 6.69927 10.766 7.29825 10.9652 7.89675C10.9747 7.92648 10.9842 7.96 10.9976 8.00484H10.9276C10.5265 8.00484 10.1262 8.00484 9.72508 8.00153C9.68018 8.00153 9.6576 8.02797 9.6361 8.09405C9.43608 8.69869 9.23444 9.30285 9.03306 9.90796C9.02408 9.93628 9.01347 9.96271 9.00014 10C8.9868 9.96602 8.97619 9.93958 8.96666 9.91174C8.76638 9.30993 8.56555 8.71048 8.36771 8.10821C8.34268 8.03033 8.31655 8.00106 8.26458 8.00106C7.86809 8.00625 7.47132 8.00437 7.07402 8.00437H7.00027C7.01469 7.95953 7.02422 7.92554 7.0351 7.8925C7.2343 7.29117 7.43431 6.68889 7.63678 6.08992C7.65828 6.02242 7.65828 5.97475 7.63515 5.90961C7.43595 5.3163 7.23811 4.71874 7.03973 4.12355C7.02803 4.08626 7.01687 4.04991 7 3.99894H7.07103C7.46751 3.99894 7.86564 3.99705 8.26104 3.99988C8.3122 3.99988 8.33995 3.97723 8.36581 3.89935C8.5631 3.29848 8.76393 2.69998 8.96258 2.1029C8.97211 2.07222 8.98435 2.04059 8.99796 2C9.01238 2.03965 9.02381 2.0675 9.03388 2.0977C9.23362 2.69573 9.43309 3.29235 9.63011 3.89274C9.65732 3.97487 9.68699 3.99988 9.73896 3.99988C10.1338 3.99705 10.5281 3.99894 10.9241 3.99894L11 3.99941V3.99941ZM8.99633 7.38085C9.13266 7.38085 9.26845 7.37991 9.40506 7.38274C9.44125 7.38274 9.46384 7.36527 9.48289 7.30816C9.61923 6.8961 9.75502 6.48404 9.89407 6.07387C9.91149 6.02242 9.91149 5.98183 9.89353 5.92896C9.75474 5.5169 9.61868 5.10579 9.48235 4.69278C9.4652 4.64039 9.44534 4.61821 9.40969 4.62057C9.13484 4.62198 8.85999 4.62198 8.58786 4.62057C8.55167 4.61821 8.53262 4.64322 8.51493 4.69514C8.37996 5.10484 8.24498 5.51407 8.10674 5.92094C8.0866 5.98183 8.08715 6.02431 8.10674 6.08331C8.24498 6.49065 8.38159 6.89988 8.51493 7.31005C8.53289 7.36197 8.55276 7.38321 8.58786 7.38321C8.72529 7.3799 8.85999 7.38085 8.99633 7.38085V7.38085ZM7.87298 6.62659C7.78781 6.88572 7.70835 7.12313 7.62644 7.37188H8.12116C8.03789 7.12266 7.96034 6.88666 7.87298 6.62659V6.62659ZM10.1248 6.62659C10.0383 6.88713 9.96047 7.12408 9.87775 7.37188H10.3736L10.1248 6.62659ZM7.62426 4.62859C7.70916 4.88253 7.78862 5.11995 7.87271 5.37577L8.12144 4.62859H7.62426ZM9.87693 4.62859L10.1254 5.37577C10.2114 5.1157 10.2906 4.87734 10.3736 4.62859H9.87693V4.62859ZM8.75032 3.99044H9.2475C9.16314 3.73981 9.08422 3.50003 8.99905 3.24515C8.91306 3.50286 8.83468 3.74028 8.75032 3.99044ZM8.74923 8.00767C8.83495 8.26397 8.91387 8.5028 8.99905 8.75863C9.08613 8.49808 9.16477 8.25972 9.2475 8.00767H8.74923Z" fill="#1B75BB"/>
<path d="M2.81249 12H15.1875C16.4984 12 17.3545 11.3343 17.7483 10.3636H0.251709C0.645459 11.3343 1.50158 12 2.81249 12Z" fill="#E6E7E8"/>
<path d="M15.1875 0H2.81249C1.50158 0 0.645459 0.665727 0.251709 1.63636H17.7483C17.3542 0.665727 16.4981 0 15.1872 0" fill="#E6E7E8"/>
<path d="M18 1.66667C18 1.06567 17.9142 0.500667 17.7483 0H0.251719C0.0857813 0.500667 0 1.06567 0 1.66667V2H18V1.66667Z" fill="#1B75BB"/>
<path d="M18 10H0V10.3333C0 10.9343 0.0857813 11.4993 0.251719 12H17.7483C17.9139 11.4993 17.9997 10.9343 17.9997 10.3333V10" fill="#1B75BB"/>
</svg>
