<svg width="27" height="20" viewBox="0 0 27 20" fill="none" xmlns="http://www.w3.org/2000/svg">
<path d="M20.2399 15.2105C25.04 15.2105 23.6 8.10526 26 6.68421H24.56C22.16 7.15789 23.12 10.4737 20.5995 10.4737M20.5995 10.4737C20.6519 10.7771 20.6924 11.0927 20.7202 11.4211C21.1042 15.9684 17.6801 18.3684 15.9201 19H9.7096C8.77567 18.6649 7.37319 17.8318 6.31978 16.4441M20.5995 10.4737C20.4087 9.3696 20.0606 8.42809 19.5996 7.63158M6.03013 7.63158C5.44247 8.64697 5.03816 9.89797 4.90954 11.4211C4.72931 13.5554 5.38799 15.2167 6.31978 16.4441M6.03013 7.63158C7.58059 4.95262 10.4074 3.91381 12.8148 3.84572M6.03013 7.63158C3.92119 5.73684 1.42516 6.77895 1.04115 9.05263C0.561149 11.8947 4.39975 15.783 6.31978 16.4441M6.03013 7.63158H19.5996M12.8148 3.84572C12.9003 3.8433 12.9853 3.84211 13.0696 3.84211M12.8148 3.84572C15.2223 3.91381 18.0491 4.95262 19.5996 7.63158M12.8148 3.84572C12.7294 3.8433 12.6444 3.84211 12.5601 3.84211M14.4401 2.42105C14.4401 3.20588 13.7953 3.84211 13 3.84211C12.2047 3.84211 11.56 3.20588 11.56 2.42105C11.56 1.63623 12.2047 1 13 1C13.7953 1 14.4401 1.63623 14.4401 2.42105Z" stroke="#1CBD8D" stroke-linecap="round" stroke-linejoin="round"/>
</svg>
