<svg width="18" height="12" viewBox="0 0 18 12" fill="none" xmlns="http://www.w3.org/2000/svg">
<g clip-path="url(#clip0)">
<path d="M16 1.66667H2C1.46957 1.66667 0.960859 1.80715 0.585786 2.0572C0.210714 2.30724 0 2.64638 0 3.00001L0 9C0 9.35363 0.210714 9.69276 0.585786 9.94281C0.960859 10.1929 1.46957 10.3333 2 10.3333H16C16.5304 10.3333 17.0391 10.1929 17.4142 9.94281C17.7893 9.69276 18 9.35363 18 9V3.00001C18 2.64638 17.7893 2.30724 17.4142 2.0572C17.0391 1.80715 16.5304 1.66667 16 1.66667V1.66667Z" fill="#006C35"/>
<path d="M4.45962 4.68333C4.77562 4.70333 4.60112 4.327 4.71562 4.25867C4.73712 4.225 4.77712 4.22467 4.78012 4.26733V4.58667C4.77712 4.69067 4.87962 4.721 4.95912 4.74267C5.04212 4.73833 5.09712 4.74033 5.12962 4.794L5.16862 5.34667C5.16862 5.34667 5.36062 5.38333 5.36962 5.03567C5.37912 4.83167 5.30862 4.661 5.35012 4.62133C5.35162 4.58233 5.42612 4.58 5.47812 4.599C5.56062 4.63767 5.59762 4.68567 5.72562 4.66667C5.92112 4.631 6.03811 4.56767 6.04111 4.46767C6.02961 4.37267 6.01362 4.27767 5.95212 4.18267C5.96062 4.16533 5.91461 4.12067 5.92311 4.10333C5.95811 4.14 6.01161 4.137 6.02361 4.10333C5.99061 4.03033 5.93911 3.96033 5.85511 3.93C5.78611 3.88933 5.68511 3.89767 5.64811 3.98233C5.63111 4.07967 5.70112 4.19567 5.80712 4.29C5.82962 4.327 5.86161 4.38833 5.84761 4.44367C5.79111 4.465 5.73411 4.45633 5.68711 4.423C5.68711 4.423 5.53161 4.34533 5.53161 4.328C5.57311 4.152 5.54112 4.132 5.51812 4.08333C5.50212 4.016 5.45412 3.99433 5.41512 3.94833C5.37612 3.921 5.32362 3.921 5.29862 3.94833C5.22962 4.02767 5.26162 4.19833 5.31162 4.27467C5.34712 4.34467 5.40212 4.389 5.37612 4.389C5.35462 4.42867 5.31062 4.41933 5.27862 4.37367C5.23262 4.279 5.22361 4.138 5.22361 4.07433C5.20961 3.99567 5.19462 3.82733 5.11712 3.78467C5.06962 3.74167 4.99912 3.76233 4.97462 3.802C4.96962 3.88 4.96862 3.95833 4.98212 4.03067C5.03512 4.157 5.05212 4.26833 5.07812 4.398C5.08512 4.57167 4.92762 4.47333 4.93462 4.38733C4.97112 4.27567 4.96162 4.09967 4.92912 4.055C4.90362 4.01067 4.87312 3.99933 4.81112 4.00667C4.76212 4.004 4.63512 4.09667 4.59912 4.25C4.59912 4.25 4.56862 4.329 4.55562 4.39933C4.53812 4.47867 4.46012 4.53467 4.40512 4.38833C4.35762 4.282 4.32862 4.01967 4.24912 4.081C4.22612 4.286 4.19862 4.64667 4.45962 4.68333V4.68333Z" fill="white"/>
<path d="M4.93518 4.83299C4.67518 4.83633 4.29468 5.06066 4.28418 5.18499C4.55818 5.09699 4.82768 5.01233 5.10668 4.92166C5.06168 4.87666 5.10418 4.83633 4.93518 4.83299Z" fill="white"/>
<path d="M6.36871 5.50532C6.48921 5.23766 6.34921 5.04032 6.41471 5.04132C6.55321 5.14099 6.74721 5.05466 6.78971 5.01999C6.80821 5.00266 6.85371 4.99132 6.88571 5.01399C6.99421 5.06599 7.18521 5.04132 7.22471 4.94999C7.24968 4.85826 7.26505 4.76548 7.27071 4.67232C7.18221 4.69066 7.11621 4.70299 7.11021 4.72732L7.09171 4.80666C7.08421 4.83232 7.00771 4.83332 7.00471 4.80066C6.97121 4.69899 6.83221 4.68566 6.74821 4.84332C6.69171 4.87399 6.58971 4.87999 6.57871 4.83432C6.59221 4.72866 6.52821 4.71432 6.40021 4.76399C6.35921 4.55432 6.31771 4.35399 6.27671 4.14432C6.33021 4.14332 6.37921 4.16966 6.42771 4.12899C6.37421 4.01799 6.26121 3.79132 6.19871 3.77499C6.16821 3.75032 6.14221 3.76566 6.10271 3.77199C6.03571 3.78632 5.97321 3.82499 5.99271 3.89999C6.07221 4.22166 6.12421 4.46666 6.20321 4.78832C6.21521 4.82599 6.16821 4.87566 6.10721 4.87066C6.00371 4.82399 5.97771 4.72932 5.80071 4.73332C5.67221 4.73432 5.52571 4.82699 5.50771 4.91666C5.48621 4.98766 5.47871 5.06499 5.50771 5.12732C5.59771 5.19932 5.70621 5.19232 5.80071 5.17599C5.87821 5.15466 5.94271 5.10266 5.96971 5.11499C5.98821 5.12999 5.97421 5.30099 5.60371 5.43232C5.37921 5.49932 5.20071 5.51466 5.10471 5.39266C5.04521 5.31632 5.10921 5.02632 4.96271 5.09366C4.52921 5.83866 5.97771 5.94199 6.13971 5.12432C6.15521 5.09066 6.21621 5.05699 6.22671 5.11199C6.19321 5.85266 5.10621 5.90366 4.92171 5.67066C4.87571 5.61566 4.86221 5.49366 4.85771 5.42032C4.83021 5.27466 4.71571 5.33066 4.69771 5.47499C4.67921 5.55532 4.68421 5.57799 4.68421 5.65499C4.74171 6.23999 6.14171 5.98866 6.36871 5.50532V5.50532ZM5.82871 4.99932C5.81971 5.01066 5.78021 5.00599 5.75121 5.00599C5.71821 5.00499 5.70271 5.00132 5.68271 4.98366C5.67371 4.96366 5.70171 4.94466 5.71421 4.92966C5.72971 4.91199 5.81321 4.89366 5.84271 4.94299C5.84817 4.95235 5.84975 4.96252 5.84729 4.97243C5.84483 4.98235 5.83841 4.99163 5.82871 4.99932V4.99932Z" fill="white"/>
<path d="M6.80112 4.33632C6.88812 4.31499 7.30062 4.00065 7.30062 4.00065C7.27912 3.98832 7.26012 3.97932 7.23862 3.96699C7.21562 3.95365 7.21812 3.94032 7.23862 3.92732C7.34062 3.88765 7.30812 3.80065 7.25462 3.76099C7.22001 3.74967 7.18192 3.7439 7.14338 3.74413C7.10484 3.74436 7.06691 3.75059 7.03262 3.76232C6.96112 3.80799 6.94412 3.88132 7.00062 3.92732C7.05562 3.94465 7.11062 3.98165 7.07412 4.00199C6.90562 4.12199 6.44362 4.32899 6.49712 4.33632C6.50862 4.34632 6.79212 4.34599 6.80112 4.33632V4.33632ZM7.10662 3.84265C7.13312 3.83832 7.16712 3.85399 7.18312 3.87732C7.19912 3.90065 7.19062 3.92299 7.16462 3.92732H7.16362C7.13762 3.93165 7.10362 3.91599 7.08762 3.89265C7.07212 3.86899 7.08062 3.84699 7.10662 3.84265ZM4.43112 5.75265C4.36312 5.84498 4.33462 5.78165 4.32862 5.72999C4.3208 5.64321 4.32734 5.55613 4.34812 5.47032C4.36512 5.39698 4.34812 5.41932 4.31312 5.44899C4.15862 5.61298 4.14512 5.85832 4.23062 5.93132C4.27562 5.96599 4.35012 5.98132 4.40562 5.96998C4.50262 5.94198 4.54512 5.81065 4.52212 5.76298C4.48912 5.72932 4.46362 5.72398 4.43112 5.75265ZM9.52162 4.01665C9.69962 4.17599 9.86862 4.33832 10.0341 4.50365C10.0666 4.64699 10.0901 4.78699 10.1041 4.92599C10.1316 5.19399 10.1396 5.48398 10.1146 5.76632C10.1896 5.76832 10.3111 5.68499 10.3531 5.56332C10.3806 5.39499 10.3431 5.09532 10.3406 4.99599C10.3373 4.93373 10.3328 4.8715 10.3271 4.80932C10.5241 5.02399 10.7161 5.24865 10.9036 5.49832C10.9721 5.47699 10.9571 5.22165 10.9171 5.18565C10.7671 4.97132 10.5606 4.75932 10.4946 4.67799C10.4701 4.64799 10.3866 4.56265 10.2871 4.46499C10.2786 4.38704 10.2646 4.30939 10.2451 4.23232C10.2141 4.08965 10.3336 4.24799 10.3171 4.16499C10.2786 4.02232 10.1596 3.92599 10.0206 3.79532C9.97562 3.75299 9.97712 3.74432 9.90762 3.80565C9.88305 3.8424 9.87175 3.88247 9.87462 3.92265C9.85291 3.90138 9.82972 3.8808 9.80512 3.86099C9.72966 3.81758 9.65383 3.77447 9.57762 3.73165C9.52712 3.70765 9.40412 3.66432 9.38212 3.73632C9.37188 3.78679 9.37561 3.83808 9.39312 3.88765C9.40612 3.92332 9.48362 3.98265 9.52162 4.01665V4.01665ZM9.89162 4.00865C9.90112 4.03632 9.91111 4.06399 9.91761 4.09232L9.92512 4.11932C9.90414 4.09978 9.8823 4.08066 9.85962 4.06199C9.77762 3.99732 9.84562 4.01132 9.89162 4.00865V4.00865Z" fill="white"/>
<path d="M10.9597 5.56433C10.7857 5.68533 10.5347 5.83433 10.2617 5.90333C10.2322 5.92533 10.3347 6.01967 10.4667 6.01967C10.6882 6.00233 10.8832 5.91933 11.0637 5.701C11.1122 5.65033 11.1972 5.54133 11.1992 5.45667C11.2157 4.96133 11.1622 4.57567 11.0507 4.21767C11.0432 4.18894 11.0453 4.15948 11.0567 4.13133C11.0707 4.12 11.1197 4.13133 11.1457 4.10333C11.1832 4.07733 11.0452 3.864 10.9662 3.782C10.9382 3.74533 10.9287 3.72067 10.8822 3.78633C10.8332 3.83967 10.8007 3.93267 10.8047 4.01933C10.9102 4.507 10.9427 4.934 11.0117 5.42167C11.0172 5.46867 11.0067 5.53733 10.9597 5.56433V5.56433ZM13.8747 4.32767C13.8672 4.293 13.8442 4.21233 13.8532 4.202C13.8672 4.17733 13.9397 4.20467 13.9657 4.17633C14.0037 4.15067 13.7787 3.958 13.7002 3.876C13.6717 3.83933 13.6622 3.81467 13.6157 3.88033C13.5667 3.93367 13.5497 4.02933 13.5692 4.11333C13.6867 4.643 13.7742 5.041 13.7922 5.51067C13.7817 5.55533 13.7797 5.57933 13.7482 5.63533C13.6787 5.69467 13.6022 5.76867 13.5297 5.80467C13.4577 5.84033 13.3042 5.87467 13.2537 5.901C13.0952 5.96267 13.0947 6.033 13.2237 6.03533C13.4447 6.018 13.7067 6.006 13.8872 5.824C13.9357 5.77333 13.9932 5.63567 13.9957 5.551C14.0122 5.05567 13.9862 4.68567 13.8747 4.32767V4.32767ZM12.1992 4.74C12.2012 4.672 12.2107 4.582 12.2162 4.52567C12.2187 4.50467 12.2262 4.481 12.2562 4.47567C12.2867 4.47033 12.3407 4.49633 12.3412 4.47433C12.3352 4.43133 12.3222 4.36733 12.2857 4.337C12.2357 4.28767 12.1032 4.29967 12.0797 4.377C12.0802 4.40567 12.0997 4.421 12.0962 4.447C12.0902 4.46167 12.0672 4.47167 12.0127 4.45433C12.0217 4.449 11.9772 4.408 11.9772 4.408C11.9347 4.39067 11.8777 4.409 11.8412 4.42467C11.828 4.44147 11.8201 4.45991 11.818 4.47884C11.816 4.49776 11.8198 4.51676 11.8292 4.53467C11.8892 4.61033 12.0987 4.73867 12.1992 4.74V4.74Z" fill="white"/>
<path d="M12.1286 4.16033C12.2751 4.27999 12.4246 4.40133 12.5751 4.52466C12.6076 4.79999 12.6161 5.02533 12.6481 5.30066C12.6436 5.41733 12.5896 5.51899 12.5381 5.53366C12.5381 5.53366 12.4606 5.56366 12.4086 5.53066C12.3706 5.52032 12.2191 5.36233 12.2191 5.36233C12.1416 5.31499 12.0906 5.32833 12.0356 5.36233C11.8836 5.45999 11.8151 5.64333 11.7121 5.76933C11.6851 5.79766 11.6101 5.82166 11.5266 5.76733C11.3151 5.57433 11.4391 5.29999 11.4131 5.37066C11.2246 5.51232 11.3076 5.74666 11.3501 5.79733C11.4121 5.87999 11.4626 5.93333 11.5836 5.97433C11.6936 6.02833 11.7796 5.99433 11.8266 5.95666C11.9376 5.87966 11.9391 5.68466 11.9911 5.64533C12.0271 5.57433 12.1196 5.58633 12.1641 5.61799C12.2048 5.65633 12.2589 5.68755 12.3216 5.70899C12.4251 5.76999 12.5486 5.78099 12.6701 5.72533C12.7531 5.69433 12.8076 5.65399 12.8561 5.57432C12.9101 5.47832 12.8806 5.03699 12.8696 4.77233C12.9471 4.83899 13.0226 4.90866 13.0991 4.97833C13.1326 5.19933 13.1516 5.41932 13.1406 5.64399C13.1326 5.68899 13.3756 5.51066 13.3736 5.42599C13.3726 5.35766 13.3736 5.29566 13.3736 5.23733C13.4906 5.35466 13.6046 5.47566 13.7116 5.60366C13.7786 5.58033 13.7566 5.32866 13.7141 5.29399C13.5906 5.15599 13.4261 5.01233 13.3126 4.90966C13.3051 4.89666 13.3011 4.88199 13.2921 4.86966C13.2466 4.79933 13.2751 4.74266 13.2536 4.66799C13.2326 4.59299 13.2381 4.48099 13.2056 4.39199C13.1966 4.35733 13.1696 4.24599 13.1776 4.23566C13.1906 4.21066 13.2406 4.23633 13.2651 4.20766C13.3016 4.18099 13.1386 3.89933 13.0556 3.81866C13.0256 3.78266 12.9716 3.79499 12.9046 3.85366C12.8431 3.89233 12.8661 3.98033 12.8896 4.06399C12.9481 4.26666 12.9971 4.46099 13.0391 4.65333C12.9492 4.57363 12.8583 4.49441 12.7666 4.41566L12.7626 4.40099C12.7626 4.39733 12.7491 4.22633 12.7371 4.18566C12.7351 4.16933 12.7291 4.16433 12.7551 4.16633C12.7826 4.18166 12.7861 4.18266 12.8036 4.18799C12.8316 4.19133 12.8561 4.15966 12.8396 4.13066L12.5811 3.81333C12.5606 3.79966 12.5336 3.78499 12.5011 3.81699C12.4809 3.82874 12.4647 3.84324 12.4537 3.85952C12.4427 3.8758 12.437 3.89346 12.4371 3.91133C12.4451 3.98633 12.4646 4.06299 12.4721 4.13833L12.4831 4.17899C12.4716 4.16999 12.4576 4.15866 12.4516 4.15466C12.2321 4.00066 12.5526 4.12966 12.4096 4.01066C12.2886 3.92199 12.2536 3.89433 12.1496 3.84099C12.0976 3.81866 12.0661 3.77599 12.0491 3.84866C12.0405 3.91238 12.038 3.9764 12.0416 4.04033C12.0416 4.07099 12.0881 4.12699 12.1286 4.16033V4.16033ZM7.67809 4.51999C7.80409 4.55466 7.88459 4.39466 7.93659 4.21933C7.97159 4.16999 7.99859 4.16466 8.01659 4.18999C8.01209 4.42333 8.04159 4.47499 8.13159 4.54599C8.33209 4.64933 8.49809 4.55899 8.51159 4.55033L8.66759 4.44633C8.70209 4.42199 8.74859 4.42033 8.79759 4.44199C8.84559 4.47066 8.83909 4.52066 8.94109 4.55533C9.02709 4.57833 9.21109 4.56066 9.25359 4.51133C9.31109 4.44599 9.32509 4.42333 9.35109 4.39866C9.39209 4.36233 9.46209 4.37866 9.46209 4.38999C9.45559 4.41033 9.41459 4.43066 9.44259 4.46699C9.49159 4.49133 9.50259 4.47566 9.53159 4.47033C9.63359 4.43766 9.70959 4.29033 9.70959 4.29033C9.71409 4.23533 9.66809 4.23999 9.63809 4.25133C9.59909 4.26699 9.59659 4.27233 9.55759 4.28833C9.50759 4.29333 9.41109 4.31533 9.36359 4.26599C9.31459 4.20666 9.31359 4.12399 9.27659 4.06433C9.27659 4.05999 9.21159 3.96999 9.27209 3.96433C9.30259 3.96799 9.36709 3.97933 9.37759 3.94333C9.40909 3.90799 9.30909 3.80733 9.24109 3.75633C9.18159 3.71299 9.09909 3.70766 9.01959 3.75199C8.96359 3.78633 8.97159 3.82433 8.96059 3.86066C8.9515 3.8863 8.95152 3.913 8.96063 3.93863C8.96975 3.96427 8.98771 3.98813 9.01309 4.00833C9.06859 4.08133 9.17009 4.17566 9.13659 4.30766C9.13659 4.30766 9.07759 4.37033 8.97409 4.36233C8.93109 4.35599 8.86109 4.34366 8.82409 4.16033C8.79609 4.02133 8.83109 3.82699 8.74259 3.73599C8.71059 3.68099 8.68759 3.62799 8.60959 3.72199C8.58859 3.75899 8.49859 3.81499 8.56409 3.93066C8.61759 4.00366 8.63909 4.12266 8.61509 4.25533C8.57809 4.29299 8.57009 4.30566 8.52159 4.34333C8.45359 4.39199 8.38009 4.37966 8.32359 4.36133C8.27059 4.33766 8.22959 4.32533 8.20559 4.24999C8.21009 4.12999 8.22009 3.93333 8.18709 3.89166C8.13859 3.82699 8.05859 3.85033 8.02409 3.86999C7.85959 3.97033 7.77859 4.13933 7.72909 4.27366C7.68359 4.37166 7.63509 4.34366 7.60109 4.30399C7.51809 4.25199 7.51259 3.84633 7.41209 3.91333C7.25059 4.21799 7.50309 4.55266 7.67809 4.51999V4.51999Z" fill="white"/>
<path d="M10.0687 5.17466L10.0207 5.15633L9.08019 5.15333C9.03169 5.14099 9.04619 5.13033 9.08019 5.12166C9.30469 5.10133 9.70419 5.05799 9.73069 4.80233C9.72619 4.66933 9.64469 4.58199 9.39969 4.55799C9.22019 4.56733 9.09169 4.68366 9.11219 4.81133C9.10369 4.84599 9.12919 4.91333 9.07669 4.92099C8.73119 4.94199 8.35469 5.08599 8.34219 5.18933C8.32119 5.19899 8.27419 5.17099 8.28019 5.12699C8.26355 4.93878 8.18229 4.75563 8.04269 4.59166C7.93369 4.51899 7.96769 4.54299 7.89469 4.57733C7.84769 4.61333 7.83919 4.63799 7.84169 4.70966C7.84169 4.71233 7.92969 4.87599 8.00419 4.99066C8.05369 5.10833 8.10019 5.24266 8.06669 5.36966C7.95069 5.53766 7.71719 5.68833 7.49219 5.76999C7.37619 5.79499 7.27669 5.78599 7.25219 5.76866C7.18069 5.73666 7.18419 5.67766 7.18969 5.67666C7.37919 5.58833 7.59619 5.51733 7.76619 5.27966C7.81619 5.18899 7.83119 5.13399 7.78169 4.99366C7.76794 4.94421 7.73383 4.89827 7.68319 4.86099C7.71369 4.84766 7.80119 4.89199 7.81469 4.86566C7.78934 4.78885 7.73198 4.71836 7.64919 4.66233C7.58169 4.62133 7.50819 4.61666 7.44619 4.65433C7.37619 4.68033 7.36119 4.77299 7.39469 4.85433C7.43169 4.91566 7.53219 4.92599 7.60419 5.04899C7.60419 5.05166 7.63019 5.14099 7.59319 5.17599C7.56369 5.23733 7.18119 5.43766 7.16019 5.44666C7.14969 5.45533 7.15419 5.44233 7.15269 5.40899C7.15019 5.36833 7.17719 5.27233 7.16969 5.27166C7.04519 5.32533 7.00369 5.48966 6.98119 5.53833C6.66619 5.68333 6.30969 5.79133 6.10369 5.93866C5.99619 6.05033 6.84269 5.81033 6.94119 5.78133C6.96319 5.79199 6.96069 5.84233 7.01969 5.88733C7.10769 5.96666 7.29369 6.01566 7.47619 5.98533C7.78119 5.91166 7.95769 5.77299 8.13669 5.61933C8.16219 5.59433 8.20219 5.57533 8.23919 5.59433C8.36219 5.77799 8.71769 5.90799 9.17619 5.92166C9.28269 5.83533 9.23119 5.79366 9.18819 5.77566C9.18819 5.77299 8.96169 5.71566 8.92719 5.65833C8.90619 5.60633 8.95719 5.56066 9.05919 5.52599C9.35369 5.50233 9.64319 5.47599 9.92369 5.41599C9.92669 5.35333 9.98119 5.25933 10.0187 5.21866C10.0547 5.17733 10.0742 5.18966 10.0687 5.17466V5.17466ZM9.29519 4.78399C9.30919 4.76833 9.35569 4.76899 9.39919 4.78599C9.44269 4.80266 9.46719 4.82933 9.45269 4.84499C9.43869 4.86099 9.39169 4.85999 9.34819 4.84299C9.30469 4.82633 9.28119 4.79999 9.29519 4.78399V4.78399ZM8.91669 5.41733C8.81569 5.44033 8.71869 5.45833 8.71869 5.55566C8.75619 5.69099 8.66719 5.64466 8.61469 5.62599C8.55269 5.59633 8.37819 5.52466 8.35319 5.36999C8.34919 5.33299 8.39269 5.30199 8.46219 5.30199C8.56669 5.32099 8.72119 5.32233 8.85519 5.33166C8.96469 5.33633 9.01919 5.39366 8.91669 5.41733V5.41733ZM5.43319 3.91566C5.54119 3.95033 5.74519 3.93566 5.73619 3.81899C5.73619 3.80866 5.73219 3.77399 5.73069 3.76466C5.70869 3.73033 5.64869 3.73866 5.63469 3.77433C5.63019 3.78599 5.64219 3.80466 5.62669 3.81066C5.61769 3.81666 5.58319 3.81299 5.58469 3.78099C5.58469 3.77066 5.57319 3.75966 5.56669 3.75333C5.55969 3.75033 5.55569 3.74933 5.54319 3.74933C5.52819 3.74966 5.52819 3.75233 5.52019 3.76099C5.51669 3.76933 5.51169 3.77799 5.51169 3.78766C5.50969 3.79899 5.50319 3.80299 5.49069 3.80499C5.47669 3.80499 5.47969 3.80599 5.46869 3.80099C5.46169 3.79599 5.45319 3.79399 5.45319 3.78566C5.45315 3.77592 5.45079 3.76624 5.44619 3.75699C5.44019 3.75166 5.43069 3.74933 5.41969 3.74733C5.36069 3.74733 5.35669 3.79233 5.36019 3.80966C5.35469 3.81266 5.35269 3.89333 5.43319 3.91566V3.91566Z" fill="white"/>
<path d="M8.75608 4.67566C8.75608 4.66532 8.74458 4.65466 8.73808 4.64799C8.73108 4.64499 8.72708 4.64399 8.71458 4.64399C8.69958 4.64432 8.70008 4.64699 8.69158 4.65566C8.68808 4.66432 8.68308 4.67266 8.68308 4.68232C8.68158 4.69399 8.67458 4.69799 8.66208 4.69966C8.64808 4.69966 8.65108 4.70066 8.63958 4.69599C8.63258 4.69099 8.62408 4.68899 8.62408 4.68066C8.62408 4.67091 8.62172 4.66123 8.61708 4.65199C8.61108 4.64666 8.60158 4.64432 8.59058 4.64266C8.53158 4.64266 8.52758 4.68766 8.53058 4.70466C8.52608 4.70799 8.52358 4.78832 8.60408 4.81099C8.71258 4.84532 8.97008 4.82532 8.90708 4.71432C8.90603 4.69607 8.90419 4.67784 8.90158 4.65966C8.87958 4.62532 8.81908 4.63399 8.80558 4.66932C8.80158 4.68099 8.81358 4.69966 8.79758 4.70566C8.78958 4.71166 8.75458 4.70799 8.75608 4.67566V4.67566ZM10.4546 4.43999C10.5626 4.47466 10.7661 4.45999 10.7571 4.34366C10.756 4.3254 10.7542 4.30717 10.7516 4.28899C10.7296 4.25466 10.6696 4.26332 10.6561 4.29866C10.6516 4.31032 10.6636 4.32899 10.6476 4.33499C10.6386 4.34099 10.6041 4.33766 10.6056 4.30532C10.6056 4.29499 10.5941 4.28399 10.5876 4.27766C10.5806 4.27466 10.5766 4.27366 10.5636 4.27366C10.5486 4.27432 10.5491 4.27666 10.5406 4.28532C10.5371 4.29399 10.5321 4.30232 10.5321 4.31199C10.5301 4.32366 10.5236 4.32766 10.5111 4.32932C10.4971 4.32932 10.5001 4.33032 10.4886 4.32566C10.4816 4.32066 10.4736 4.31866 10.4736 4.31032C10.4735 4.30047 10.4712 4.29069 10.4666 4.28132C10.4601 4.27599 10.4511 4.27366 10.4396 4.27199C10.3806 4.27199 10.3766 4.31699 10.3801 4.33399C10.3766 4.33732 10.3741 4.41766 10.4546 4.43999V4.43999ZM10.5276 3.98932C10.5661 4.06132 10.4981 4.12999 10.5386 4.13999C10.5751 4.15132 10.6271 4.06566 10.6461 3.98666C10.6686 3.92266 10.6001 3.79166 10.5031 3.76466C10.4441 3.75532 10.3601 3.77866 10.3871 3.83132C10.3736 3.85666 10.5061 3.94266 10.5276 3.98932V3.98932ZM11.5251 5.67732C11.6006 5.67766 11.6876 5.56232 11.7246 5.44799C11.7451 5.29066 11.7106 5.19499 11.7046 5.10232C11.6981 5.00999 11.5481 4.30499 11.5171 4.23499C11.4806 4.10266 11.6636 4.21732 11.6436 4.14032C11.5801 4.04332 11.4226 3.90232 11.3726 3.81799C11.3426 3.78199 11.3556 3.74999 11.2886 3.80866C11.2271 3.94366 11.2056 4.05366 11.2291 4.13766C11.3881 4.69099 11.5511 5.15099 11.5251 5.67732ZM13.4031 4.23066C13.4206 4.26666 13.3766 4.38299 13.4131 4.39366C13.4466 4.40566 13.4936 4.31332 13.5111 4.22766C13.5206 4.18066 13.4691 4.01666 13.3806 3.98732C13.3266 3.97732 13.2501 4.00232 13.2751 4.05966C13.2626 4.08732 13.3836 4.17999 13.4031 4.23066V4.23066ZM6.84358 5.44932C6.87608 5.45832 6.92058 5.39032 6.93758 5.32732C6.94708 5.29266 6.89708 5.17232 6.81258 5.15066C6.76058 5.14332 6.68958 5.15266 6.71158 5.20399C6.70908 5.23166 6.82658 5.26499 6.83358 5.32932C6.85058 5.35599 6.80858 5.44166 6.84358 5.44932ZM4.56558 3.91099C4.58208 3.93866 4.54908 4.02699 4.58358 4.03532C4.61508 4.04466 4.65958 3.97399 4.67608 3.90899C4.68558 3.87299 4.67808 3.75099 4.55308 3.72599C4.50158 3.71832 4.43008 3.73732 4.45358 3.78099C4.44158 3.80166 4.54708 3.87232 4.56558 3.91099ZM7.01658 4.30199C6.92108 4.33666 6.88358 4.43932 6.94358 4.49899C6.99908 4.55199 7.08708 4.53232 7.09908 4.53232C7.19308 4.53999 7.24858 4.41499 7.24858 4.41499C7.24858 4.41499 7.25158 4.37999 7.14008 4.44632C7.09308 4.45232 7.08708 4.44066 7.07558 4.42266C7.0642 4.39003 7.06929 4.35582 7.09008 4.32532C7.10608 4.29432 7.07008 4.28066 7.01658 4.30199V4.30199ZM7.73758 3.91766C7.75299 3.91131 7.76622 3.90286 7.77638 3.89286C7.78655 3.88287 7.79343 3.87155 7.79658 3.85966C7.81108 3.81099 7.71908 3.88266 7.70758 3.82832C7.68708 3.77799 7.74608 3.75732 7.80208 3.70866C7.80408 3.67499 7.80308 3.65132 7.73458 3.67866C7.68658 3.70032 7.59058 3.76632 7.58758 3.84232C7.58458 3.88532 7.57258 3.88499 7.61508 3.91232C7.64558 3.94199 7.67608 3.93899 7.73758 3.91766V3.91766ZM8.38708 3.94366C8.44908 3.83166 8.44908 3.78432 8.45358 3.73666C8.43458 3.66432 8.36108 3.66666 8.31258 3.74699C8.29158 3.77732 8.26708 3.93699 8.27108 3.93699C8.25458 3.98466 8.34558 4.00499 8.38708 3.94366ZM12.4721 4.73799C12.4721 4.73799 11.9706 4.97566 11.9586 4.98399C11.9086 5.01332 11.9336 5.11732 11.9586 5.10532C11.9941 5.11466 12.4986 4.88632 12.4886 4.85966C12.5121 4.86032 12.5236 4.72599 12.4721 4.73799V4.73799ZM12.4106 5.38266C12.4441 5.39466 12.5326 5.32166 12.5291 5.23066C12.5391 5.18366 12.5036 5.01132 12.4156 4.98199C12.3616 4.97199 12.2896 5.00266 12.3146 5.05966C12.3021 5.08699 12.3766 5.18266 12.3961 5.23332C12.4136 5.26966 12.3741 5.37199 12.4106 5.38266V5.38266ZM9.57058 5.88132C9.57058 5.88432 9.61308 5.90866 9.66308 5.88932C9.76808 5.86232 9.83408 5.83632 9.98108 5.81466C10.0196 5.81432 10.0171 5.74532 9.95608 5.74299C9.87658 5.74566 9.80258 5.74832 9.72308 5.79032C9.67408 5.79766 9.66608 5.77799 9.65508 5.75999C9.64308 5.71566 9.68258 5.68499 9.67408 5.65199C9.67708 5.65399 9.62858 5.62432 9.57908 5.64099C9.57658 5.64099 9.46858 5.68966 9.43408 5.72366C9.41258 5.73466 9.41508 5.74399 9.42158 5.76232C9.43808 5.78766 9.46758 5.77999 9.50058 5.76799C9.54458 5.76399 9.56558 5.78332 9.56208 5.81832C9.54108 5.86266 9.57058 5.87899 9.57058 5.88132V5.88132ZM12.8461 5.93666C12.8296 5.95566 12.8186 5.98432 12.8696 5.99332C12.9636 6.01099 13.1801 5.91699 13.1801 5.91532C13.2151 5.89766 13.2036 5.86466 13.2006 5.86466C13.1801 5.84899 13.1341 5.85799 13.1031 5.85566C13.0886 5.85566 13.0396 5.85066 13.0631 5.82199C13.0796 5.80654 13.0927 5.78959 13.1021 5.77166C13.1166 5.74999 13.1041 5.73566 13.0511 5.72399C12.9976 5.71732 12.9761 5.72066 12.9166 5.72399C12.8846 5.72866 12.8736 5.73799 12.8676 5.76399C12.8701 5.80332 12.9056 5.80132 12.9426 5.81699C12.9641 5.83532 12.9781 5.85199 12.9411 5.88166C12.9061 5.90332 12.8816 5.91532 12.8461 5.93666V5.93666ZM12.7501 7.66666H12.0001V7.49999C12.0001 7.45579 11.9737 7.4134 11.9269 7.38214C11.88 7.35088 11.8164 7.33332 11.7501 7.33332C11.6838 7.33332 11.6202 7.35088 11.5733 7.38214C11.5264 7.4134 11.5001 7.45579 11.5001 7.49999V7.66666H5.50008C5.50008 7.66666 5.50008 7.99999 7.00008 7.99999H11.5001V8.16666C11.5001 8.21086 11.5264 8.25325 11.5733 8.28451C11.6202 8.31576 11.6838 8.33332 11.7501 8.33332C11.8164 8.33332 11.88 8.31576 11.9269 8.28451C11.9737 8.25325 12.0001 8.21086 12.0001 8.16666V7.99999H12.5001V8.16666C12.5001 8.21086 12.5264 8.25325 12.5733 8.28451C12.6202 8.31576 12.6838 8.33332 12.7501 8.33332C12.8164 8.33332 12.88 8.31576 12.9269 8.28451C12.9737 8.25325 13.0001 8.21086 13.0001 8.16666V7.83332C13.0001 7.78912 12.9737 7.74673 12.9269 7.71547C12.88 7.68422 12.8164 7.66666 12.7501 7.66666Z" fill="white"/>
</g>
<defs>
<clipPath id="clip0">
<rect width="18" height="12" fill="white"/>
</clipPath>
</defs>
</svg>