<svg width="18" height="12" viewBox="0 0 18 12" fill="none" xmlns="http://www.w3.org/2000/svg">
<path d="M6.37865 7.9091L1.15894 11.5195C1.59065 11.8214 2.13994 12 2.8124 12H15.1874C17.0513 12 17.9999 10.6568 17.9999 9.00001V7.9091H6.37865Z" fill="#EC1C24"/>
<path d="M15.1875 0H2.81253C2.1935 0 1.67909 0.150818 1.26172 0.409091L6.43475 4.09091H17.9998V3C17.9998 1.34318 17.0511 0 15.1873 0" fill="#137A08"/>
<path d="M9.11728 5.98853L1.30528 0.387802C0.468562 0.907893 0 1.89326 0 2.99998V8.99998C0 10.059 0.411469 11.0018 1.17788 11.5355L9.07059 6.13635L9.11728 5.98853V5.98853Z" fill="#25333A"/>
<path d="M6.46875 4.09091H18V7.90909H6.46875V4.09091Z" fill="#E6E7E8"/>
</svg>

