<svg width="18" height="16" viewBox="0 0 18 16" fill="none" xmlns="http://www.w3.org/2000/svg">
<path d="M10.5228 0.374106C9.2553 2.04233 7.62448 3.53188 6.47783 4.45856C5.92753 4.90329 5.58223 5.55666 5.58223 6.25738V13.5451C5.58223 14.9337 6.62461 15.2545 7.14581 15.2414H11.7149C13.4468 15.2414 14.2102 14.9181 14.6799 14.2348C15.8671 12.5079 16.5986 10.1246 16.9667 9.04792C17.9473 6.18031 17.163 5.14244 15.4834 5.14244H11.6176C11.433 5.14244 11.2903 4.98805 11.3229 4.8093C11.4123 4.31868 11.6318 3.44562 12.0769 2.30216C12.4775 1.27286 12.0776 0.563979 11.5899 0.151781C11.2583 -0.128406 10.7845 0.0296915 10.5228 0.374106Z" fill="#1CBD8D"/>
<path d="M0.777378 13.8804V6.50344C0.777378 5.75178 1.39662 5.14244 2.1605 5.14244C2.92437 5.14244 3.54361 5.75178 3.54361 6.50344V13.8804C3.54361 14.6321 2.92437 15.2414 2.1605 15.2414C1.39662 15.2414 0.777378 14.6321 0.777378 13.8804Z" fill="#1CBD8D"/>
</svg>
