<svg width="40" height="40" viewBox="0 0 40 40" fill="none" xmlns="http://www.w3.org/2000/svg">
<g clip-path="url(#clip0)">
<path d="M20.0001 4.7998C18.2422 4.7998 16.8001 6.24197 16.8001 7.9998C16.8001 9.75764 18.2422 11.1998 20.0001 11.1998C21.7579 11.1998 23.2001 9.75764 23.2001 7.9998C23.2001 6.24197 21.7579 4.7998 20.0001 4.7998ZM20.0001 6.3998C20.8932 6.3998 21.6001 7.10667 21.6001 7.9998C21.6001 8.89294 20.8932 9.5998 20.0001 9.5998C19.1069 9.5998 18.4001 8.89294 18.4001 7.9998C18.4001 7.10667 19.1069 6.3998 20.0001 6.3998ZM6.40008 7.1998C4.64224 7.1998 3.20008 8.64197 3.20008 10.3998C3.20008 12.1576 4.64224 13.5998 6.40008 13.5998C8.15791 13.5998 9.60008 12.1576 9.60008 10.3998C9.60008 8.64197 8.15791 7.1998 6.40008 7.1998ZM33.6001 7.1998C31.8422 7.1998 30.4001 8.64197 30.4001 10.3998C30.4001 12.1576 31.8422 13.5998 33.6001 13.5998C35.3579 13.5998 36.8001 12.1576 36.8001 10.3998C36.8001 8.64197 35.3579 7.1998 33.6001 7.1998ZM6.40008 8.7998C7.29321 8.7998 8.00008 9.50667 8.00008 10.3998C8.00008 11.2929 7.29321 11.9998 6.40008 11.9998C5.50694 11.9998 4.80008 11.2929 4.80008 10.3998C4.80008 9.50667 5.50694 8.7998 6.40008 8.7998ZM33.6001 8.7998C34.4932 8.7998 35.2001 9.50667 35.2001 10.3998C35.2001 11.2929 34.4932 11.9998 33.6001 11.9998C32.7069 11.9998 32.0001 11.2929 32.0001 10.3998C32.0001 9.50667 32.7069 8.7998 33.6001 8.7998ZM19.2001 11.9998C16.5588 11.9998 14.4001 14.1585 14.4001 16.7998V19.9998H12.0001C11.8941 19.9983 11.7888 20.0179 11.6904 20.0574C11.5921 20.097 11.5025 20.1556 11.427 20.2301C11.3515 20.3045 11.2916 20.3932 11.2507 20.491C11.2098 20.5888 11.1887 20.6938 11.1887 20.7998C11.1887 20.9058 11.2098 21.0108 11.2507 21.1086C11.2916 21.2064 11.3515 21.2951 11.427 21.3695C11.5025 21.444 11.5921 21.5027 11.6904 21.5422C11.7888 21.5817 11.8941 21.6013 12.0001 21.5998H14.4001H25.6001H28.0001C28.1061 21.6013 28.2113 21.5817 28.3097 21.5422C28.4081 21.5027 28.4976 21.444 28.5731 21.3695C28.6486 21.2951 28.7086 21.2064 28.7495 21.1086C28.7904 21.0108 28.8115 20.9058 28.8115 20.7998C28.8115 20.6938 28.7904 20.5888 28.7495 20.491C28.7086 20.3932 28.6486 20.3045 28.5731 20.2301C28.4976 20.1556 28.4081 20.097 28.3097 20.0574C28.2113 20.0179 28.1061 19.9983 28.0001 19.9998H25.6001V16.7998C25.6001 14.1585 23.4414 11.9998 20.8001 11.9998H19.2001ZM19.2001 13.5998H20.8001C22.5764 13.5998 24.0001 15.0235 24.0001 16.7998V19.9998H16.0001V16.7998C16.0001 15.0235 17.4238 13.5998 19.2001 13.5998ZM6.40008 14.3998C4.64221 14.3998 3.20008 15.8419 3.20008 17.5998C3.20007 17.6003 3.20007 17.6008 3.20008 17.6014L3.20789 24.9998C3.20803 25.0217 3.20907 25.0436 3.21101 25.0654C3.34906 26.7167 4.74319 27.9998 6.40008 27.9998H10.4001V32.7998C10.4001 34.1159 11.484 35.1998 12.8001 35.1998C14.1161 35.1998 15.2001 34.1159 15.2001 32.7998V26.3998C15.2001 24.6426 13.7573 23.1998 12.0001 23.1998H9.60008V17.5998C9.60017 17.5701 9.59861 17.5403 9.59539 17.5107C9.41017 15.8474 8.14797 14.3998 6.40008 14.3998ZM33.6001 14.3998C31.8522 14.3998 30.59 15.8474 30.4048 17.5107C30.4016 17.5403 30.4 17.5701 30.4001 17.5998V23.1998H28.0001C26.2429 23.1998 24.8001 24.6426 24.8001 26.3998V32.7998C24.8001 34.1159 25.884 35.1998 27.2001 35.1998C28.5161 35.1998 29.6001 34.1159 29.6001 32.7998V27.9998H33.6001C35.257 27.9998 36.6511 26.7167 36.7891 25.0654C36.7911 25.0436 36.7921 25.0217 36.7923 24.9998L36.8001 17.6014C36.8001 17.6008 36.8001 17.6003 36.8001 17.5998C36.8001 15.8419 35.3579 14.3998 33.6001 14.3998ZM6.40008 15.9998C7.29936 15.9998 7.88087 16.6485 8.00008 17.6779V23.9998C8.0001 24.212 8.08439 24.4154 8.23441 24.5655C8.38444 24.7155 8.58791 24.7998 8.80008 24.7998H12.0001C12.8893 24.7998 13.6001 25.5106 13.6001 26.3998V32.7998C13.6001 33.2502 13.2504 33.5998 12.8001 33.5998C12.3497 33.5998 12.0001 33.2502 12.0001 32.7998V27.1998C12.0001 26.9876 11.9158 26.7842 11.7657 26.6341C11.6157 26.4841 11.4122 26.3998 11.2001 26.3998H6.40008C5.56348 26.3998 4.88131 25.7718 4.80789 24.9389L4.80008 17.5982C4.80091 16.7057 5.50727 15.9998 6.40008 15.9998ZM33.6001 15.9998C34.4934 15.9998 35.2001 16.7065 35.2001 17.5998L35.1923 24.9389C35.1189 25.7718 34.4367 26.3998 33.6001 26.3998H28.8001C28.5879 26.3998 28.3844 26.4841 28.2344 26.6341C28.0844 26.7842 28.0001 26.9876 28.0001 27.1998V32.7998C28.0001 33.2502 27.6504 33.5998 27.2001 33.5998C26.7497 33.5998 26.4001 33.2502 26.4001 32.7998V26.3998C26.4001 25.5106 27.1109 24.7998 28.0001 24.7998H31.2001C31.4122 24.7998 31.6157 24.7155 31.7657 24.5655C31.9158 24.4154 32.0001 24.212 32.0001 23.9998V17.6779C32.1193 16.6485 32.7008 15.9998 33.6001 15.9998ZM0.787575 18.3889C0.575675 18.3922 0.373746 18.4794 0.226104 18.6315C0.0784633 18.7835 -0.00282675 18.9879 7.51057e-05 19.1998V25.5998C7.51057e-05 28.6833 2.51661 31.1998 5.60008 31.1998H8.00008C8.10608 31.2013 8.21134 31.1817 8.30971 31.1422C8.40808 31.1027 8.49762 31.044 8.57312 30.9695C8.64861 30.8951 8.70856 30.8064 8.74948 30.7086C8.7904 30.6108 8.81147 30.5058 8.81147 30.3998C8.81147 30.2938 8.7904 30.1888 8.74948 30.091C8.70856 29.9932 8.64861 29.9045 8.57312 29.8301C8.49762 29.7556 8.40808 29.697 8.30971 29.6574C8.21134 29.6179 8.10608 29.5983 8.00008 29.5998H5.60008C3.38114 29.5998 1.60008 27.8187 1.60008 25.5998V19.1998C1.60154 19.0928 1.58151 18.9865 1.54118 18.8874C1.50085 18.7882 1.44103 18.6982 1.36527 18.6226C1.2895 18.5469 1.19934 18.4873 1.10011 18.4472C1.00088 18.407 0.894604 18.3872 0.787575 18.3889ZM39.1876 18.3889C38.9757 18.3922 38.7738 18.4794 38.6261 18.6315C38.4785 18.7835 38.3972 18.9879 38.4001 19.1998V25.5998C38.4001 27.8187 36.619 29.5998 34.4001 29.5998H32.0001C31.8941 29.5983 31.7888 29.6179 31.6904 29.6574C31.5921 29.697 31.5025 29.7556 31.427 29.8301C31.3515 29.9045 31.2916 29.9932 31.2507 30.091C31.2098 30.1888 31.1887 30.2938 31.1887 30.3998C31.1887 30.5058 31.2098 30.6108 31.2507 30.7086C31.2916 30.8064 31.3515 30.8951 31.427 30.9695C31.5025 31.044 31.5921 31.1027 31.6904 31.1422C31.7888 31.1817 31.8941 31.2013 32.0001 31.1998H34.4001C37.4835 31.1998 40.0001 28.6833 40.0001 25.5998V19.1998C40.0015 19.0928 39.9815 18.9865 39.9412 18.8874C39.9009 18.7882 39.841 18.6982 39.7653 18.6226C39.6895 18.5469 39.5993 18.4873 39.5001 18.4472C39.4009 18.407 39.2946 18.3872 39.1876 18.3889Z" fill="#373737"/>
</g>
<defs>
<clipPath id="clip0">
<rect width="40" height="40" fill="white"/>
</clipPath>
</defs>
</svg>
