<svg width="40" height="40" viewBox="0 0 40 40" fill="none" xmlns="http://www.w3.org/2000/svg">
<g clip-path="url(#clip0)">
<path d="M20 0C19.8662 0.00027961 19.7346 0.0341249 19.6172 0.0984375L10.125 5.275C9.94814 5.33711 9.79867 5.45936 9.70272 5.62042C9.60677 5.78148 9.57042 5.97113 9.60003 6.15625V15.6359C9.60014 15.7544 9.62654 15.8713 9.67734 15.9783C9.72814 16.0853 9.80207 16.1797 9.89378 16.2547L19.4078 24.0391C19.4831 24.1222 19.575 24.1885 19.6775 24.2339C19.78 24.2792 19.891 24.3025 20.0031 24.3022C20.1152 24.3019 20.226 24.278 20.3283 24.2322C20.4306 24.1863 20.5221 24.1194 20.5969 24.0359L30.1063 16.2547C30.198 16.1797 30.2719 16.0853 30.3227 15.9783C30.3735 15.8713 30.3999 15.7544 30.4 15.6359V6.15156C30.4282 5.9676 30.3913 5.77959 30.2957 5.61988C30.2002 5.46018 30.052 5.33877 29.8766 5.27656L20.3828 0.0984375C20.2655 0.0341249 20.1339 0.00027961 20 0V0ZM20 1.71094L28.0266 6.08906L20 11.1969L11.9735 6.08906L20 1.71094ZM2.80003 7.2C1.32193 7.2 0.10884 8.37159 0.0172163 9.82813C0.00530136 9.88463 -0.000461383 9.94226 2.88294e-05 10V21.9266C2.88294e-05 23.5581 0.182083 24.5741 0.560966 25.3594C0.93985 26.1446 1.45633 26.5942 1.93753 27.125C2.38576 27.6194 4.19172 29.8133 5.82972 31.8234C7.37523 33.7201 8.64326 35.2904 8.80003 35.4844V39.2C8.79853 39.306 8.81812 39.4113 8.85765 39.5096C8.89718 39.608 8.95587 39.6975 9.0303 39.773C9.10474 39.8485 9.19343 39.9085 9.29124 39.9494C9.38905 39.9903 9.49401 40.0114 9.60003 40.0114C9.70605 40.0114 9.81101 39.9903 9.90882 39.9494C10.0066 39.9085 10.0953 39.8485 10.1698 39.773C10.2442 39.6975 10.3029 39.608 10.3424 39.5096C10.3819 39.4113 10.4015 39.306 10.4 39.2V35.2C10.4 35.0168 10.3371 34.8393 10.2219 34.6969C10.2219 34.6969 8.71095 32.8258 7.07034 30.8125C5.42974 28.7992 3.70004 26.686 3.12347 26.05C2.58066 25.4512 2.23191 25.1414 2.00159 24.6641C1.77127 24.1867 1.60003 23.4382 1.60003 21.9266V10C1.60003 9.32735 2.12738 8.8 2.80003 8.8C3.47268 8.8 4.00003 9.32735 4.00003 10V18.4734C3.94689 18.5196 3.88799 18.5557 3.83753 18.6063C2.66662 19.7771 2.66727 21.7001 3.83753 22.8703L10.1828 29.2156C10.2566 29.2924 10.3449 29.3537 10.4426 29.3959C10.5403 29.4382 10.6454 29.4605 10.7518 29.4616C10.8583 29.4626 10.9639 29.4425 11.0624 29.4022C11.1609 29.362 11.2505 29.3025 11.3257 29.2273C11.401 29.152 11.4605 29.0625 11.5007 28.9639C11.5409 28.8654 11.5611 28.7598 11.56 28.6534C11.5589 28.5469 11.5366 28.4418 11.4944 28.3441C11.4522 28.2464 11.3909 28.1581 11.3141 28.0844L4.96878 21.7391C4.40976 21.18 4.40945 20.2963 4.96878 19.7375C4.96878 19.737 4.96878 19.7365 4.96878 19.7359C5.0167 19.688 5.06963 19.6491 5.1219 19.6094C5.19567 19.5771 5.26415 19.5339 5.32503 19.4813C5.85795 19.2032 6.51888 19.2841 6.97034 19.7359C6.97034 19.7365 6.97034 19.737 6.97034 19.7375L13.5735 26.3391C15.3649 28.1297 16 29.7479 16 32.8V39.2C15.9985 39.306 16.0181 39.4113 16.0576 39.5096C16.0972 39.608 16.1559 39.6975 16.2303 39.773C16.3047 39.8485 16.3934 39.9085 16.4912 39.9494C16.589 39.9903 16.694 40.0114 16.8 40.0114C16.906 40.0114 17.011 39.9903 17.1088 39.9494C17.2066 39.9085 17.2953 39.8485 17.3698 39.773C17.4442 39.6975 17.5029 39.608 17.5424 39.5096C17.5819 39.4113 17.6015 39.306 17.6 39.2V32.8C17.6 29.4953 16.7309 27.2331 14.7047 25.2078L8.10159 18.6063C7.51629 18.0204 6.74386 17.7266 5.97034 17.7266C5.84616 17.7266 5.72345 17.7458 5.60003 17.7609V10C5.60035 9.94063 5.59406 9.88141 5.58128 9.82344C5.48724 8.36916 4.27649 7.2 2.80003 7.2ZM37.2 7.2C35.7219 7.2 34.5088 8.37159 34.4172 9.82813C34.4053 9.88463 34.3995 9.94226 34.4 10V17.7609C34.2766 17.7458 34.1539 17.7266 34.0297 17.7266C33.2562 17.7266 32.4838 18.0204 31.8985 18.6063L25.2953 25.2078C23.2692 27.2331 22.4 29.4953 22.4 32.8V39.2C22.3985 39.306 22.4181 39.4113 22.4576 39.5096C22.4972 39.608 22.5559 39.6975 22.6303 39.773C22.7047 39.8485 22.7934 39.9085 22.8912 39.9494C22.989 39.9903 23.094 40.0114 23.2 40.0114C23.3061 40.0114 23.411 39.9903 23.5088 39.9494C23.6066 39.9085 23.6953 39.8485 23.7698 39.773C23.8442 39.6975 23.9029 39.608 23.9424 39.5096C23.9819 39.4113 24.0015 39.306 24 39.2V32.8C24 29.7479 24.6352 28.1297 26.4266 26.3391L33.0297 19.7375C33.0297 19.737 33.0297 19.7365 33.0297 19.7359C33.4829 19.2823 34.1473 19.2024 34.6813 19.4844C34.7396 19.5346 34.8048 19.5762 34.875 19.6078C34.9283 19.6481 34.9825 19.6872 35.0313 19.7359C35.0313 19.7365 35.0313 19.737 35.0313 19.7375C35.5906 20.2963 35.5903 21.18 35.0313 21.7391L28.686 28.0844C28.6092 28.1581 28.5479 28.2464 28.5057 28.3441C28.4634 28.4418 28.4411 28.5469 28.44 28.6534C28.439 28.7598 28.4591 28.8654 28.4994 28.9639C28.5396 29.0625 28.5991 29.152 28.6743 29.2273C28.7496 29.3025 28.8391 29.362 28.9377 29.4022C29.0362 29.4425 29.1418 29.4626 29.2482 29.4616C29.3547 29.4605 29.4598 29.4382 29.5575 29.3959C29.6552 29.3537 29.7435 29.2924 29.8172 29.2156L36.1625 22.8703C37.3328 21.7001 37.3334 19.7771 36.1625 18.6063C36.1121 18.5557 36.0532 18.5196 36 18.4734V10C36 9.32735 36.5274 8.8 37.2 8.8C37.8727 8.8 38.4 9.32735 38.4 10V21.9266C38.4 23.4382 38.2288 24.1867 37.9985 24.6641C37.7682 25.1414 37.4194 25.4512 36.8766 26.05C36.3 26.686 34.5703 28.7992 32.9297 30.8125C31.2891 32.8258 29.7782 34.6969 29.7782 34.6969C29.6629 34.8393 29.6001 35.0168 29.6 35.2V39.2C29.5985 39.306 29.6181 39.4113 29.6576 39.5096C29.6972 39.608 29.7559 39.6975 29.8303 39.773C29.9047 39.8485 29.9934 39.9085 30.0912 39.9494C30.189 39.9903 30.294 40.0114 30.4 40.0114C30.5061 40.0114 30.611 39.9903 30.7088 39.9494C30.8066 39.9085 30.8953 39.8485 30.9698 39.773C31.0442 39.6975 31.1029 39.608 31.1424 39.5096C31.1819 39.4113 31.2015 39.306 31.2 39.2V35.4844C31.3568 35.2904 32.6248 33.7201 34.1703 31.8234C35.8083 29.8133 37.6143 27.6194 38.0625 27.125C38.5437 26.5942 39.0602 26.1446 39.4391 25.3594C39.818 24.5741 40 23.5581 40 21.9266V10C40.0004 9.94063 39.9941 9.88141 39.9813 9.82344C39.8872 8.36916 38.6765 7.2 37.2 7.2ZM11.2 7.49375L19.2 12.5844V21.8016L11.2 15.2563V7.49375ZM28.8 7.49375V15.2563L20.8 21.8016V12.5844L28.8 7.49375Z" fill="#373737"/>
</g>
<defs>
<clipPath id="clip0">
<rect width="40" height="40" fill="white"/>
</clipPath>
</defs>
</svg>
