<svg width="21" height="13" viewBox="0 0 21 13" fill="none" xmlns="http://www.w3.org/2000/svg">
<path d="M1 1.9509C1 1.59097 1.42207 1 2.34742 1H11.2282C12.1536 1 12.5757 1.59097 12.5757 1.9509V11.0491C12.5757 11.409 12.1536 12 11.2282 12H2.34742C1.42208 12 1 11.409 1 11.0491V1.9509ZM19.9607 1.99917C19.9771 2.00551 19.9901 2.01193 20 2.01764V11.503C19.9901 11.5087 19.9771 11.5152 19.9607 11.5215C19.842 11.5674 19.7169 11.5479 19.6436 11.4966L16.6365 9.39046V4.13021L19.6436 2.02408C19.7169 1.97274 19.842 1.95328 19.9607 1.99917Z" stroke="#CDCDCD" stroke-width="2" stroke-linecap="round" stroke-linejoin="round"/>
</svg>
