<svg width="22" height="24" viewBox="0 0 22 24" fill="none" xmlns="http://www.w3.org/2000/svg">
<path d="M4.99902 19C2.57069 17.1755 1 14.2712 1 11C1 5.47715 5.47715 1 11 1C16.5228 1 21 5.47715 21 11C21 14.2712 19.4293 17.1755 17.001 19" stroke="#68572D" stroke-width="2" stroke-linecap="round"/>
<path d="M7.5 23C7.5 23.5523 7.94772 24 8.5 24C9.05228 24 9.5 23.5523 9.5 23H7.5ZM10 11.2778C10 12.0497 9.78127 12.4425 9.57143 12.646C9.35397 12.857 9.0066 13 8.5 13V15C9.37412 15 10.2767 14.7484 10.9641 14.0815C11.6591 13.4072 12 12.4388 12 11.2778H10ZM8.5 13C7.9934 13 7.64603 12.857 7.42857 12.646C7.21873 12.4425 7 12.0497 7 11.2778H5C5 12.4388 5.34091 13.4072 6.0359 14.0815C6.72326 14.7484 7.62588 15 8.5 15V13ZM7 11.2778C7 10.4813 7.23653 9.57648 7.60974 8.89358C8.02214 8.13897 8.38995 8 8.5 8V6C7.22934 6 6.34715 7.03342 5.85473 7.93445C5.32311 8.90719 5 10.1413 5 11.2778H7ZM8.5 8C8.61005 8 8.97786 8.13897 9.39026 8.89358C9.76347 9.57648 10 10.4813 10 11.2778H12C12 10.1413 11.6769 8.90719 11.1453 7.93445C10.6529 7.03342 9.77066 6 8.5 6V8ZM7.5 14V23H9.5V14H7.5Z" fill="#68572D"/>
<path d="M18 7C18 6.44772 17.5523 6 17 6C16.4477 6 16 6.44772 16 7H18ZM12 7C12 6.44772 11.5523 6 11 6C10.4477 6 10 6.44772 10 7H12ZM13 23C13 23.5523 13.4477 24 14 24C14.5523 24 15 23.5523 15 23H13ZM13 9.5C13 10.0523 13.4477 10.5 14 10.5C14.5523 10.5 15 10.0523 15 9.5H13ZM15 7C15 6.44772 14.5523 6 14 6C13.4477 6 13 6.44772 13 7H15ZM16 7V10.7368H18V7H16ZM12 10.7368V7H10V10.7368H12ZM13 13.7368V23H15V13.7368H13ZM15 9.5V7H13V9.5H15ZM10 10.7368C10 12.946 11.7909 14.7368 14 14.7368V12.7368C12.8954 12.7368 12 11.8414 12 10.7368H10ZM16 10.7368C16 11.8414 15.1046 12.7368 14 12.7368V14.7368C16.2091 14.7368 18 12.946 18 10.7368H16Z" fill="#68572D"/>
</svg>
