<svg viewBox="0 0 22 24" fill="none" xmlns="http://www.w3.org/2000/svg">
<path fill="transparent" d="M2.58586 19.6723H6.70202C7.25431 19.6723 7.6866 20.1322 7.86851 20.6537C8.34254 22.0125 9.77511 23 11.4687 23C13.1624 23 14.595 22.0125 15.069 20.6537C15.2509 20.1322 15.6832 19.6723 16.2355 19.6723H20.3516C20.7878 19.6723 21.086 19.2831 20.924 18.9253L20.3371 17.629C19.9529 16.7805 19.7555 15.875 19.7555 14.9611V8.35798C19.7555 5.71741 17.5797 3.5258 14.7256 3.10611C14.1792 3.02576 13.7616 2.5549 13.4912 2.07334C13.0631 1.31083 12.1439 1 11.4687 1C10.7936 1 9.87444 1.31083 9.44631 2.07334C9.17592 2.5549 8.75827 3.02576 8.21186 3.10611C5.35775 3.5258 3.18195 5.71741 3.18195 8.35798V14.9611C3.18195 15.875 2.98457 16.7805 2.60038 17.629L2.01345 18.9253C1.85147 19.2831 2.14971 19.6723 2.58586 19.6723Z" stroke="#68572D" stroke-width="2"/>
</svg>
