<svg width="28" height="35" viewBox="0 0 28 35" fill="none" xmlns="http://www.w3.org/2000/svg">
<path fill-rule="evenodd" clip-rule="evenodd" d="M3.5 0H17.5L28 10.5V31.5C28 32.4283 27.6313 33.3185 26.9749 33.9749C26.3185 34.6312 25.4283 35 24.5 35H3.5C2.57174 35 1.6815 34.6312 1.02513 33.9749C0.368749 33.3185 0 32.4283 0 31.5V3.5C0 2.57174 0.368749 1.6815 1.02513 1.02513C1.6815 0.368749 2.57174 0 3.5 0ZM7.3535 25.5675C8.28275 25.5675 9.08075 25.34 9.6215 24.8325C10.0345 24.4388 10.262 23.8595 10.2638 23.1735C10.2638 22.491 9.96275 21.9118 9.51825 21.5583C9.051 21.1855 8.358 21 7.38325 21C6.66946 20.9902 5.95605 21.0382 5.25 21.1435V28.0315H6.8145V25.536C6.99322 25.5589 7.17332 25.5695 7.3535 25.5675ZM13.0638 28.105C14.4305 28.105 15.5488 27.8145 16.2838 27.2038C16.9558 26.635 17.444 25.7128 17.444 24.3775C17.444 23.1438 16.989 22.2845 16.2628 21.7455C15.5908 21.238 14.7297 21 13.405 21C12.6912 20.9936 11.9781 21.0422 11.2717 21.1453V28C11.6655 28.0525 12.2448 28.105 13.0638 28.105ZM20.069 22.3475H22.75V21.0525H18.4835V28.0332H20.069V25.2263H22.575V23.9417H20.069V22.3475ZM15.75 12.25H17.5H24.5L15.75 3.5V12.25ZM6.81543 22.2525C6.92743 22.221 7.14443 22.1895 7.46643 22.1895C8.25393 22.1895 8.69843 22.5745 8.69843 23.215C8.69843 23.9307 8.18218 24.3542 7.34393 24.3542C7.11468 24.3542 6.94843 24.3455 6.81543 24.314V22.2525ZM12.8564 22.2735C12.9912 22.242 13.2187 22.2105 13.5687 22.2105C14.9267 22.2105 15.7754 22.977 15.7649 24.4295C15.7649 26.0955 14.8339 26.883 13.4042 26.8725C13.2082 26.8725 12.9912 26.8725 12.8564 26.841V22.2735Z" fill="#FF5722"/>
</svg>
