<svg width="24" height="24" viewBox="0 0 24 24" fill="none" xmlns="http://www.w3.org/2000/svg">
<path d="M9.17838 11.5017L9.17833 11.5017L9.18419 11.5105C10.0576 12.8137 11.1784 13.9326 12.4831 14.8037C12.9787 15.1372 13.575 15.2878 14.1695 15.2296C14.7617 15.1716 15.3154 14.9102 15.7363 14.49C16.0312 14.2045 16.426 14.0456 16.8366 14.0474C17.2485 14.0491 17.6432 14.2125 17.9359 14.5022C17.9364 14.5026 17.9368 14.503 17.9372 14.5034L19.5414 16.1077C19.8349 16.4013 19.9998 16.7994 20 17.2145C20.0002 17.6296 19.8356 18.0279 19.5423 18.3217L19.0892 18.7748C18.6603 19.1805 18.1555 19.4974 17.6037 19.7073C17.0481 19.9187 16.4561 20.0173 15.862 19.9975L15.8454 19.997H15.8288C13.6992 19.997 10.8951 18.8951 7.99853 15.9978L7.99824 15.9975C3.13232 11.1344 3.39582 6.73609 5.21279 4.9191L5.21334 4.91854L5.67402 4.45713C5.67426 4.45689 5.67451 4.45664 5.67475 4.4564C5.96843 4.16411 6.36593 4 6.7803 4C7.19474 4 7.59229 4.16415 7.88598 4.45653C7.88618 4.45673 7.88639 4.45693 7.88659 4.45713L9.49066 6.06121C9.7788 6.35303 9.94154 6.74591 9.94413 7.15607C9.9467 7.56458 9.79018 7.95796 9.50789 8.25299C9.09045 8.67323 8.82935 9.2238 8.76824 9.8132C8.70673 10.4064 8.85158 11.0028 9.17838 11.5017Z" stroke="black" stroke-width="2"/>
</svg>
