<svg width="22" height="22" viewBox="0 0 22 22" fill="none" xmlns="http://www.w3.org/2000/svg">
<path d="M11 0C4.92507 0 0 4.92485 0 11C0 17.0752 4.92507 22 11 22C17.0749 22 22 17.0752 22 11C22 4.92485 17.0749 0 11 0ZM12.2658 14.6537C11.2482 14.6537 10.2913 14.1036 9.96358 13.4791C9.96358 13.4791 9.41622 15.6498 9.30122 16.0687C8.89318 17.5496 7.69291 19.031 7.59951 19.1523C7.53447 19.2367 7.39065 19.2103 7.3758 19.0983C7.35036 18.9096 7.04383 17.0414 7.40438 15.5177C7.58465 14.7525 8.6159 10.3831 8.6159 10.3831C8.6159 10.3831 8.31566 9.7815 8.31566 8.89205C8.31566 7.49553 9.12499 6.45303 10.1328 6.45303C10.9896 6.45303 11.4033 7.09649 11.4033 7.86778C11.4033 8.72933 10.8551 10.0176 10.5722 11.2113C10.3356 12.2108 11.0729 13.0262 12.0587 13.0262C13.8441 13.0262 15.0457 10.7333 15.0457 8.0161C15.0457 5.95137 13.6558 4.40518 11.1256 4.40518C8.26795 4.40518 6.48589 6.53676 6.48589 8.91816C6.48589 9.73874 6.72851 10.3183 7.10797 10.7659C7.28194 10.9719 7.3067 11.0547 7.24346 11.291C7.19777 11.4645 7.09492 11.8818 7.05125 12.0468C6.98846 12.2858 6.79536 12.3709 6.57907 12.2829C5.26335 11.7456 4.64982 10.3039 4.64982 8.68319C4.64982 6.00651 6.90699 2.79687 11.3842 2.79687C14.9818 2.79687 17.3497 5.39996 17.3497 8.1948C17.35 11.8922 15.2944 14.6537 12.2658 14.6537Z" fill="#373737"/>
</svg>
