<svg width="13" height="13" viewBox="0 0 13 13" fill="none" xmlns="http://www.w3.org/2000/svg">
<path d="M12.0536 5.97861H7.23214V1.48041C7.23214 1.28158 7.14748 1.09089 6.99678 0.950295C6.84608 0.809699 6.64169 0.730713 6.42857 0.730713C6.21545 0.730713 6.01106 0.809699 5.86036 0.950295C5.70966 1.09089 5.625 1.28158 5.625 1.48041V5.97861H0.803571C0.590451 5.97861 0.38606 6.05759 0.235361 6.19819C0.0846619 6.33878 0 6.52947 0 6.7283C0 6.92714 0.0846619 7.11783 0.235361 7.25842C0.38606 7.39902 0.590451 7.478 0.803571 7.478H5.625V11.9762C5.625 12.175 5.70966 12.3657 5.86036 12.5063C6.01106 12.6469 6.21545 12.7259 6.42857 12.7259C6.64169 12.7259 6.84608 12.6469 6.99678 12.5063C7.14748 12.3657 7.23214 12.175 7.23214 11.9762V7.478H12.0536C12.2667 7.478 12.4711 7.39902 12.6218 7.25842C12.7725 7.11783 12.8571 6.92714 12.8571 6.7283C12.8571 6.52947 12.7725 6.33878 12.6218 6.19819C12.4711 6.05759 12.2667 5.97861 12.0536 5.97861Z" fill="white"/>
</svg>
