<svg width="27" height="20" viewBox="0 0 27 20" fill="none" xmlns="http://www.w3.org/2000/svg">
<path d="M5.70781 10V8.70543C5.70781 7.22112 4.48152 6.01786 2.96882 6.01786H1V7.31243C1 8.79673 2.22629 10 3.73899 10M5.70781 10H3.73899M5.70781 10L7.33076 8.17369C9.11015 6.17133 11.6853 5.02213 14.3928 5.02213M5.70781 10V11.2946C5.70781 12.7789 4.48152 13.9821 2.96882 13.9821H1V12.6876C1 11.2033 2.22629 10 3.73899 10M5.70781 10L7.33076 11.8263C9.11015 13.8287 11.6853 14.9779 14.3928 14.9779M19.3035 5.02213C22.7126 5.02213 26 10 26 10C26 10 22.7126 14.9779 19.3035 14.9779M19.3035 5.02213C19.3035 2.80077 17.4683 1 15.2044 1H11.8359C11.7319 2.83273 12.0465 3.77087 14.3928 5.02213M19.3035 5.02213H18.4522M14.3928 5.02213H18.4522M19.3035 14.9779C19.3035 17.1992 17.4683 19 15.2044 19H11.8359C11.7319 17.1673 12.0465 16.2291 14.3928 14.9779M19.3035 14.9779H18.4522M14.3928 14.9779H18.4522M18.4522 5.02213C16.2651 7.93398 16.5224 12.142 18.4522 14.9779" stroke="#373737"/>
</svg>
