<svg width="24" height="22" viewBox="0 0 24 22" fill="none" xmlns="http://www.w3.org/2000/svg">
<path d="M4.04292 15.8088L1.78817 14.2426C1.33127 13.9253 1.01697 13.4345 1.00296 12.8783C0.903271 8.92069 3.29418 1.33594 12 1.33594C20.7058 1.33594 23.0967 8.92069 22.997 12.8783C22.983 13.4345 22.6687 13.9253 22.2118 14.2426L19.9571 15.8088M4.04292 15.8088C4.12586 13.064 5.8334 7.57422 12 7.57422C18.1666 7.57422 19.8741 13.064 19.9571 15.8088M4.04292 15.8088L4.78889 16.327M12 21.3359L7.24757 18.0348M12 21.3359H6.78889C5.68432 21.3359 4.78889 20.4405 4.78889 19.3359V16.327M12 21.3359L16.7524 18.0348M12 21.3359H17.2111C18.3157 21.3359 19.2111 20.4405 19.2111 19.3359V16.327M7.24757 18.0348C7.23803 16.4579 8.17517 13.3042 12 13.3042C15.8248 13.3042 16.762 16.4579 16.7524 18.0348M7.24757 18.0348L4.78889 16.327M19.9571 15.8088L19.2111 16.327M16.7524 18.0348L19.2111 16.327" stroke="#373737"/>
</svg>
