<svg width="18" height="12" viewBox="0 0 18 12" fill="none" xmlns="http://www.w3.org/2000/svg">
<path d="M18 10.1538C18 10.6435 17.7893 11.1131 17.4142 11.4593C17.0391 11.8055 16.5304 12 16 12H2C1.46957 12 0.960859 11.8055 0.585786 11.4593C0.210714 11.1131 0 10.6435 0 10.1538V1.84615C0 1.35652 0.210714 0.886947 0.585786 0.540726C0.960859 0.194505 1.46957 0 2 0H16C16.5304 0 17.0391 0.194505 17.4142 0.540726C17.7893 0.886947 18 1.35652 18 1.84615V10.1538Z" fill="#EEEEEE"/>
<path d="M18 6V1.84615C18 1.35652 17.7893 0.886947 17.4142 0.540726C17.0391 0.194505 16.5304 0 16 0H2C1.46957 0 0.960859 0.194505 0.585786 0.540726C0.210714 0.886947 0 1.35652 0 1.84615L0 6H18Z" fill="#ED2939"/>
<path d="M3 3.83333C3 2.97167 3.812 2.25067 4.905 2.05467C4.69075 2.01897 4.47083 2.00062 4.25 2C3.52065 2 2.82118 2.19315 2.30546 2.53697C1.78973 2.88079 1.5 3.3471 1.5 3.83333C1.5 4.31956 1.78973 4.78588 2.30546 5.1297C2.82118 5.47351 3.52065 5.66667 4.25 5.66667C4.476 5.66667 4.6945 5.64667 4.905 5.612C3.812 5.416 3 4.695 3 3.83333Z" fill="white"/>
<path d="M5.99991 2.33331L6.11241 2.56365H6.47541L6.18141 2.70598L6.29391 2.93631L5.99991 2.79398L5.70591 2.93631L5.81841 2.70598L5.52441 2.56365H5.88741L5.99991 2.33331ZM4.99991 4.66665L5.11241 4.89698H5.47541L5.18141 5.03931L5.29391 5.26965L4.99991 5.12731L4.70591 5.26965L4.81841 5.03931L4.52441 4.89698H4.88741L4.99991 4.66665ZM6.99991 4.66665L7.11241 4.89698H7.47541L7.18141 5.03931L7.29391 5.26965L6.99991 5.12731L6.70591 5.26965L6.81841 5.03931L6.52441 4.89698H6.88741L6.99991 4.66665ZM4.49991 3.33331L4.61241 3.56365H4.97541L4.68141 3.70598L4.79391 3.93631L4.49991 3.79398L4.20591 3.93631L4.31841 3.70598L4.02441 3.56365H4.38741L4.49991 3.33331ZM7.49991 3.33331L7.61241 3.56365H7.97541L7.68141 3.70598L7.79391 3.93631L7.49991 3.79398L7.20591 3.93631L7.31841 3.70598L7.02441 3.56365H7.38741L7.49991 3.33331Z" fill="#EEEEEE"/>
</svg>
