<svg width="23" height="23" viewBox="0 0 23 23" fill="none" xmlns="http://www.w3.org/2000/svg">
<path d="M6.73786 18.8277C6.08474 19.4808 5.02582 19.4808 4.37269 18.8277C3.71957 18.1746 3.71957 17.1157 4.37269 16.4625C5.02582 15.8094 6.08474 15.8094 6.73786 16.4625C7.39099 17.1157 7.39099 18.1746 6.73786 18.8277Z" stroke="#373737" stroke-linejoin="round"/>
<path d="M12.5469 13.0187C11.8937 13.6718 10.8348 13.6718 10.1817 13.0187C9.52858 12.3656 9.52858 11.3066 10.1817 10.6535C10.8348 10.0004 11.8937 10.0004 12.5469 10.6535C13.2 11.3066 13.2 12.3656 12.5469 13.0187Z" stroke="#373737" stroke-linejoin="round"/>
<path d="M18.3561 7.20946C17.703 7.86258 16.6441 7.86258 15.9909 7.20946C15.3378 6.55634 15.3378 5.49742 15.9909 4.8443C16.6441 4.19117 17.703 4.19117 18.3561 4.8443C19.0092 5.49742 19.0092 6.55634 18.3561 7.20946Z" stroke="#373737" stroke-linejoin="round"/>
<path d="M7.12511 13.1094C4.72551 11.9387 -1.03882 15.5965 1.74103 21.5949C7.73942 24.3748 11.3972 18.6104 10.2266 16.2108C12.5382 17.1766 16.7225 14.5138 15.9324 10.505C19.2097 11.617 23.7744 7.81327 21.2872 2.04878C15.5227 -0.438507 11.719 4.12624 12.831 7.40353C8.82217 6.61343 6.15934 10.7978 7.12511 13.1094Z" stroke="#373737" stroke-linejoin="round"/>
</svg>
