<svg width="23" height="20" viewBox="0 0 23 20" fill="none" xmlns="http://www.w3.org/2000/svg">
<path d="M1 0C0.447715 0 0 0.447715 0 1C0 1.55228 0.447715 2 1 2V0ZM3.56098 1L4.51081 0.687249C4.37577 0.27713 3.99275 0 3.56098 0V1ZM8.17073 15L7.2209 15.3127C7.35594 15.7229 7.73895 16 8.17073 16V15ZM19.439 15V16C19.8894 16 20.2842 15.6989 20.4034 15.2646L19.439 15ZM22 5.66667L22.9644 5.93128C23.0469 5.63045 22.9843 5.30834 22.7952 5.06029C22.606 4.81224 22.3119 4.66667 22 4.66667V5.66667ZM1 2H3.56098V0H1V2ZM8.17073 16H19.439V14H8.17073V16ZM20.4034 15.2646L22.9644 5.93128L21.0356 5.40206L18.4747 14.7354L20.4034 15.2646ZM2.61114 1.31275L4.14773 5.97942L6.0474 5.35392L4.51081 0.687249L2.61114 1.31275ZM4.14773 5.97942L7.2209 15.3127L9.12057 14.6872L6.0474 5.35392L4.14773 5.97942ZM22 4.66667H5.09756V6.66667H22V4.66667Z" fill="#CDCDCD"/>
<circle cx="9.5" cy="18.5" r="1.5" fill="#CDCDCD"/>
<circle cx="17.5" cy="18.5" r="1.5" fill="#CDCDCD"/>
</svg>
