<svg width="23" height="23" viewBox="0 0 23 23" fill="none" xmlns="http://www.w3.org/2000/svg">
<path d="M11.04 0C4.93041 0 0 4.93041 0 11.04C0 17.1496 4.93041 22.08 11.04 22.08C17.1496 22.08 22.08 17.1496 22.08 11.04C22.08 4.93041 17.1496 0 11.04 0ZM11.04 0.96C16.6347 0.96 21.12 5.44527 21.12 11.04C21.12 16.6347 16.6347 21.12 11.04 21.12C5.44527 21.12 0.96 16.6347 0.96 11.04C0.96 5.44527 5.44527 0.96 11.04 0.96ZM6.14437 3.84C6.03858 3.83994 5.93572 3.87484 5.8518 3.93926C5.76788 4.00369 5.7076 4.09403 5.68031 4.19625C5.68031 4.19625 5.28 5.7088 5.28 8.16C5.28 9.62686 5.92741 10.4206 6.51094 10.8412C6.8027 11.0516 7.06441 11.1927 7.20187 11.3025C7.33934 11.4123 7.34437 11.4124 7.34437 11.52C7.34437 12.3869 6.72 13.3104 6.72 15.84C6.72 17.1173 6.92192 17.9288 7.28906 18.4678C7.6562 19.0068 8.21723 19.2 8.64 19.2C9.09969 19.2 9.6381 18.9536 9.99562 18.4059C10.3531 17.8582 10.56 17.0487 10.56 15.84C10.56 13.4493 9.93562 12.3869 9.93562 11.52C9.93562 11.4124 9.93716 11.419 10.0734 11.3128C10.2097 11.2067 10.472 11.0699 10.7653 10.8619C11.352 10.4457 12 9.6487 12 8.16C12 6.48873 11.5594 4.23 11.5594 4.23C11.5384 4.12028 11.4799 4.02131 11.3938 3.95012C11.3077 3.87893 11.1995 3.83999 11.0878 3.84H8.54437H6.14437ZM13.4184 3.84094C13.2951 3.8465 13.1786 3.89938 13.0932 3.9886C13.0078 4.07782 12.9601 4.19651 12.96 4.32V15.84C12.96 17.0087 13.0051 17.7512 13.1962 18.3019C13.2918 18.5772 13.4403 18.8198 13.6641 18.9825C13.8878 19.1452 14.156 19.2 14.4 19.2C14.6867 19.2 14.9725 19.088 15.1762 18.9028C15.38 18.7176 15.5093 18.4803 15.6019 18.2212C15.7869 17.7031 15.84 17.0667 15.84 16.32C15.84 14.7733 15.36 14.0678 15.36 13.44C15.36 12.9095 15.6577 12.3808 16.0256 11.6756C16.3935 10.9704 16.8 10.0929 16.8 8.92781C16.8 7.56904 16.2833 5.17913 13.6509 3.88875C13.5787 3.8536 13.4987 3.83716 13.4184 3.84094ZM6.54094 4.8H7.2V8.16C7.1991 8.22361 7.21085 8.28676 7.23457 8.34578C7.25829 8.4048 7.2935 8.45853 7.33816 8.50382C7.38282 8.54912 7.43604 8.58509 7.49473 8.60964C7.55341 8.63419 7.61639 8.64684 7.68 8.64684C7.74361 8.64684 7.80659 8.63419 7.86527 8.60964C7.92396 8.58509 7.97717 8.54912 8.02184 8.50382C8.0665 8.45853 8.10171 8.4048 8.12543 8.34578C8.14915 8.28676 8.1609 8.22361 8.16 8.16V4.8H8.54437H9.12V8.16C9.1191 8.22361 9.13085 8.28676 9.15457 8.34578C9.17829 8.4048 9.2135 8.45853 9.25816 8.50382C9.30282 8.54912 9.35604 8.58509 9.41473 8.60964C9.47341 8.63419 9.53639 8.64684 9.6 8.64684C9.66361 8.64684 9.72659 8.63419 9.78527 8.60964C9.84396 8.58509 9.89717 8.54912 9.94184 8.50382C9.9865 8.45853 10.0217 8.4048 10.0454 8.34578C10.0691 8.28676 10.0809 8.22361 10.08 8.16V4.8H10.6791C10.7702 5.31317 11.04 6.88548 11.04 8.16C11.04 9.4073 10.6556 9.76225 10.2103 10.0781C9.98765 10.2361 9.73448 10.36 9.48375 10.5553C9.23302 10.7507 8.97562 11.0996 8.97562 11.52C8.97562 12.7651 9.6 13.6227 9.6 15.84C9.6 16.9353 9.39866 17.5656 9.19219 17.8819C8.98571 18.1982 8.80431 18.24 8.64 18.24C8.43877 18.24 8.27999 18.2168 8.08312 17.9278C7.88626 17.6388 7.68 17.0107 7.68 15.84C7.68 13.4736 8.30437 12.7651 8.30437 11.52C8.30437 11.0996 8.05047 10.7517 7.80094 10.5525C7.5514 10.3533 7.29674 10.2238 7.0725 10.0622C6.62403 9.73887 6.24 9.38114 6.24 8.16C6.24 6.23939 6.45128 5.19721 6.54094 4.8ZM13.92 5.23875C15.4943 6.36672 15.84 7.9348 15.84 8.92781C15.84 9.87472 15.5265 10.5574 15.1744 11.2322C14.8223 11.907 14.4 12.5785 14.4 13.44C14.4 14.4442 14.88 14.9867 14.88 16.32C14.88 17.0133 14.8131 17.5769 14.6981 17.8987C14.6407 18.0597 14.575 18.1524 14.5312 18.1922C14.4875 18.232 14.4733 18.24 14.4 18.24C14.284 18.24 14.2522 18.2235 14.2284 18.2062C14.2047 18.189 14.1581 18.1435 14.1037 17.9869C13.9949 17.6735 13.92 16.9753 13.92 15.84V5.23875Z" fill="#1CBD8D"/>
</svg>
