<svg width="24" height="24" viewBox="0 0 24 24" fill="none" xmlns="http://www.w3.org/2000/svg">
<circle cx="12" cy="12" r="12" fill="#FFDF36"/>
<path d="M11.2947 7.50376C11.2947 8.93239 10.1365 10.0905 8.70791 10.0905C7.27928 10.0905 6.12115 8.93239 6.12115 7.50376C6.12115 6.07513 7.27928 4.91699 8.70791 4.91699C10.1365 4.91699 11.2947 6.07513 11.2947 7.50376Z" fill="#373737"/>
<path d="M21.1987 10.7712C21.2693 11.1435 20.9553 11.4536 20.5763 11.4536H14.6665C14.2875 11.4536 13.9735 11.1435 14.0441 10.7712C14.3635 9.0864 15.8437 7.81246 17.6214 7.81246C19.3991 7.81246 20.8793 9.0864 21.1987 10.7712Z" fill="#373737"/>
<path fill-rule="evenodd" clip-rule="evenodd" d="M7.33088 19.0836C6.38336 19.0836 5.61523 18.3155 5.61523 17.3679V11.8062C5.61523 10.8586 6.38335 10.0905 7.33088 10.0905L8.70791 15.1644L10.0863 10.0905H10.6204C11.209 10.0905 11.7565 10.3922 12.0708 10.8898L14.2724 14.3742L15.2332 12.8804C15.5489 12.3896 16.0925 12.0929 16.6761 12.0929H19.0064C19.1911 12.0929 19.2362 12.35 19.0625 12.4128L17.074 13.1313L15.493 15.9978C15.1841 16.5578 14.5893 16.8996 13.9499 16.8843L13.7728 16.8801C13.1903 16.8663 12.6547 16.5577 12.3504 16.0608L11.8016 15.1644L11.8019 17.3676C11.8021 18.3153 11.0339 19.0836 10.0863 19.0836H7.33088Z" fill="#373737"/>
</svg>
