<svg width="15" height="14" viewBox="0 0 15 14" fill="none" xmlns="http://www.w3.org/2000/svg">
    <path d="M8.79614 0.336623C7.65211 1.86972 6.18015 3.23861 5.14519 4.09023C4.6485 4.49894 4.33683 5.09939 4.33683 5.74335V12.4407C4.33683 13.7169 5.27768 14.0117 5.7481 13.9996H9.87215C11.4353 13.9996 12.1243 13.7025 12.5483 13.0746C13.6198 11.4876 14.28 9.29732 14.6124 8.30785C15.4974 5.67252 14.7895 4.71872 13.2735 4.71872H9.78425C9.61767 4.71872 9.48887 4.57684 9.51829 4.41256C9.59903 3.96168 9.79715 3.15934 10.1988 2.1085C10.5604 1.16258 10.1995 0.511117 9.75925 0.132307C9.46002 -0.125184 9.03233 0.0201068 8.79614 0.336623Z" fill="#47D7AC"/>
    <path d="M3.10759e-05 12.7489V5.96948C3.10759e-05 5.27871 0.558952 4.71872 1.24842 4.71872C1.93788 4.71872 2.4968 5.27871 2.4968 5.96948V12.7489C2.4968 13.4397 1.93788 13.9996 1.24842 13.9996C0.558952 13.9996 3.10759e-05 13.4397 3.10759e-05 12.7489Z" fill="#47D7AC"/>
</svg>
