<svg viewBox="0 0 30 29" xmlns="http://www.w3.org/2000/svg">
<g clip-path="url(#clip0)">
    <path d="M30.0375 6.05359C28.9289 6.52938 27.7406 6.84883 26.4914 6.99383C27.7664 6.25523 28.7461 5.08617 29.2055 3.69508C28.0148 4.37703 26.6906 4.8732 25.2867 5.14055C24.1617 3.98055 22.5586 3.25781 20.7844 3.25781C17.3766 3.25781 14.6133 5.92672 14.6133 9.22094C14.6133 9.68766 14.6695 10.143 14.775 10.5803C9.64688 10.3311 5.10234 7.95672 2.05781 4.34758C1.52578 5.23117 1.22344 6.25523 1.22344 7.34727C1.22344 9.41578 2.31094 11.2419 3.96797 12.3135C2.95547 12.2818 2.00391 12.0122 1.17188 11.5659C1.17188 11.5908 1.17188 11.6157 1.17188 11.6406C1.17188 14.5316 3.3 16.9399 6.11953 17.4905C5.60391 17.6264 5.05781 17.6989 4.49531 17.6989C4.09688 17.6989 3.71016 17.6627 3.33281 17.5902C4.12031 19.9577 6.39844 21.6864 9.09609 21.734C6.98672 23.3335 4.32656 24.2851 1.43438 24.2851C0.935156 24.2851 0.445313 24.2579 -0.0351562 24.2013C2.69297 25.8959 5.93672 26.8815 9.42188 26.8815C20.7703 26.8815 26.9766 17.7941 26.9766 9.91422C26.9766 9.65594 26.9695 9.39539 26.9602 9.14164C28.1648 8.30109 29.2102 7.24984 30.0375 6.05359Z"/>
</g>
<defs>
<clipPath id="clip0">
<rect width="30" height="29"/>
</clipPath>
</defs>
</svg>
