<svg width="18" height="12" viewBox="0 0 18 12" fill="none" xmlns="http://www.w3.org/2000/svg">
<path d="M16.0741 0H5V5H18V2.22222C18 1.63285 17.7971 1.06762 17.4359 0.650874C17.0747 0.234126 16.5849 0 16.0741 0V0Z" fill="#068241"/>
<path d="M5 5H18V8H5V5Z" fill="#EEEEEE"/>
<path d="M5 12H16.0741C16.5849 12 17.0747 11.8127 17.4359 11.4793C17.7971 11.1459 18 10.6937 18 10.2222V8H5V12Z" fill="#141414"/>
<path d="M2.22222 0C1.63285 0 1.06762 0.194505 0.650874 0.540726C0.234126 0.886947 0 1.35652 0 1.84615L0 10.1538C0 10.6435 0.234126 11.1131 0.650874 11.4593C1.06762 11.8055 1.63285 12 2.22222 12H5V0H2.22222Z" fill="#EC2028"/>
</svg>
