<svg width="18" height="12" viewBox="0 0 18 12" fill="none" xmlns="http://www.w3.org/2000/svg">
<path d="M0 0.0416565H18V11.9583H0V0.0416565Z" fill="white"/>
<path d="M0 0.0416565H18V0.958336H0V0.0416565ZM0 1.87502H18V2.79169H0V1.87502ZM0 3.7083H18V4.62498H0V3.7083ZM0 5.54166H18V6.45834H0V5.54166ZM0 7.37494H18V8.29162H0V7.37494ZM0 9.2083H18V10.125H0V9.2083ZM0 11.0416H18V11.9583H0V11.0416Z" fill="#B22234"/>
<path d="M0 0.0416565H7.2V6.45825H0V0.0416565Z" fill="#3C3B6E"/>
<path d="M0.338379 0.562575L0.509919 0.71933L0.444399 0.972991L0.615879 0.816236L0.787419 0.972991L0.721899 0.71933L0.893379 0.562575H0.681399L0.615879 0.30899L0.550359 0.562575H0.338379ZM1.53208 0.562575L1.70356 0.71933L1.63804 0.972991L1.80958 0.816236L1.98112 0.972991L1.9156 0.71933L2.08708 0.562575H1.8751L1.80958 0.30899L1.74406 0.562575H1.53208ZM2.72578 0.562575L2.89726 0.71933L2.83174 0.972991L3.00328 0.816236L3.17476 0.972991L3.10924 0.71933L3.28078 0.562575H3.0688L3.00328 0.30899L2.93776 0.562575H2.72578ZM3.91948 0.562575L4.09096 0.71933L4.02544 0.972991L4.19698 0.816236L4.36846 0.972991L4.30294 0.71933L4.47448 0.562575H4.26244L4.19698 0.30899L4.13146 0.562575H3.91948ZM5.11312 0.562575L5.28466 0.71933L5.21914 0.972991L5.39062 0.816236L5.56216 0.972991L5.49664 0.71933L5.66812 0.562575H5.45614L5.39062 0.30899L5.3251 0.562575H5.11312ZM6.30682 0.562575L6.4783 0.71933L6.41278 0.972991L6.58432 0.816236L6.7558 0.972991L6.69028 0.71933L6.86182 0.562575H6.64984L6.58432 0.30899L6.5188 0.562575H6.30682ZM0.935199 1.20612L1.10674 1.36288L1.04122 1.61646L1.21276 1.45971L1.38424 1.61646L1.31872 1.36288L1.49026 1.20612H1.27822L1.21276 0.952462L1.14724 1.20612H0.935199ZM2.1289 1.20612L2.30044 1.36288L2.23492 1.61646L2.4064 1.45971L2.57794 1.61646L2.51242 1.36288L2.6839 1.20612H2.47192L2.4064 0.952462L2.34088 1.20612H2.1289ZM3.3226 1.20612L3.49414 1.36288L3.42862 1.61646L3.6001 1.45971L3.77164 1.61646L3.70612 1.36288L3.8776 1.20612H3.66562L3.6001 0.952462L3.53458 1.20612H3.3226ZM4.5163 1.20612L4.68778 1.36288L4.62226 1.61646L4.7938 1.45971L4.96528 1.61646L4.89976 1.36288L5.0713 1.20612H4.85932L4.7938 0.952462L4.72828 1.20612H4.5163ZM5.70994 1.20612L5.88148 1.36288L5.81596 1.61646L5.98744 1.45971L6.15898 1.61646L6.09346 1.36288L6.26494 1.20612H6.05296L5.98744 0.952462L5.92198 1.20612H5.70994ZM0.338379 1.84959L0.509919 2.00635L0.444399 2.26001L0.615879 2.10325L0.787419 2.26001L0.721899 2.00635L0.893379 1.84959H0.681399L0.615879 1.59601L0.550359 1.84959H0.338379ZM1.53208 1.84959L1.70356 2.00635L1.63804 2.26001L1.80958 2.10325L1.98112 2.26001L1.9156 2.00635L2.08708 1.84959H1.8751L1.80958 1.59601L1.74406 1.84959H1.53208ZM2.72578 1.84959L2.89726 2.00635L2.83174 2.26001L3.00328 2.10325L3.17476 2.26001L3.10924 2.00635L3.28078 1.84959H3.0688L3.00328 1.59601L2.93776 1.84959H2.72578ZM3.91948 1.84959L4.09096 2.00635L4.02544 2.26001L4.19698 2.10325L4.36846 2.26001L4.30294 2.00635L4.47448 1.84959H4.26244L4.19698 1.59601L4.13146 1.84959H3.91948ZM5.11312 1.84959L5.28466 2.00635L5.21914 2.26001L5.39062 2.10325L5.56216 2.26001L5.49664 2.00635L5.66812 1.84959H5.45614L5.39062 1.59601L5.3251 1.84959H5.11312ZM6.30682 1.84959L6.4783 2.00635L6.41278 2.26001L6.58432 2.10325L6.7558 2.26001L6.69028 2.00635L6.86182 1.84959H6.64984L6.58432 1.59601L6.5188 1.84959H6.30682ZM0.949959 2.49525L1.12144 2.65201L1.05598 2.90559L1.22746 2.74884L1.399 2.90559L1.33348 2.65193L1.50496 2.49525H1.29298L1.22746 2.24159L1.16194 2.49525H0.949959ZM2.14366 2.49525L2.31514 2.65201L2.24962 2.90559L2.42116 2.74884L2.59264 2.90559L2.52712 2.65193L2.69866 2.49525H2.48668L2.42116 2.24159L2.35564 2.49525H2.14366ZM3.33736 2.49525L3.50884 2.65201L3.44332 2.90559L3.61486 2.74884L3.78634 2.90559L3.72082 2.65193L3.89236 2.49525H3.68032L3.61486 2.24159L3.54934 2.49525H3.33736ZM4.531 2.49525L4.70254 2.65201L4.63702 2.90559L4.8085 2.74884L4.98004 2.90559L4.91452 2.65193L5.086 2.49525H4.87402L4.8085 2.24159L4.74298 2.49525H4.531ZM5.7247 2.49525L5.89618 2.65201L5.83066 2.90559L6.0022 2.74884L6.17368 2.90559L6.10816 2.65193L6.2797 2.49525H6.06772L6.0022 2.24159L5.93668 2.49525H5.7247ZM0.356499 3.13337L0.528039 3.29005L0.462519 3.54371L0.633999 3.38695L0.805539 3.54371L0.740019 3.29005L0.911499 3.13337H0.699519L0.633999 2.87971L0.568479 3.13337H0.356499ZM1.5502 3.13337L1.72168 3.29005L1.65616 3.54371L1.8277 3.38695L1.99918 3.54371L1.93372 3.29005L2.1052 3.13337H1.89322L1.8277 2.87971L1.76218 3.13337H1.5502ZM2.7439 3.13337L2.91538 3.29005L2.84986 3.54371L3.0214 3.38695L3.19288 3.54371L3.12736 3.29005L3.2989 3.13337H3.08692L3.0214 2.87971L2.95588 3.13337H2.7439ZM3.93754 3.13337L4.10908 3.29005L4.04356 3.54371L4.21504 3.38695L4.38658 3.54371L4.32106 3.29005L4.4926 3.13337H4.28056L4.21504 2.87971L4.14958 3.13337H3.93754ZM5.13124 3.13337L5.30272 3.29005L5.23726 3.54371L5.40874 3.38695L5.58028 3.54371L5.51476 3.29005L5.68624 3.13337H5.47426L5.40874 2.87971L5.34322 3.13337H5.13124ZM6.32494 3.13337L6.49642 3.29005L6.4309 3.54371L6.60244 3.38695L6.77392 3.54371L6.7084 3.29005L6.87994 3.13337H6.66796L6.60244 2.87971L6.53692 3.13337H6.32494ZM0.367719 4.39993L0.539199 4.55669L0.473679 4.81035L0.645219 4.65359L0.816699 4.81035L0.751179 4.55669L0.922719 4.39993H0.710739L0.645219 4.14635L0.579699 4.39993H0.367719ZM1.56136 4.39993L1.7329 4.55669L1.66738 4.81035L1.83886 4.65359L2.0104 4.81035L1.94488 4.55669L2.11636 4.39993H1.90438L1.83886 4.14635L1.77334 4.39993H1.56136ZM2.75506 4.39993L2.92654 4.55669L2.86108 4.81035L3.03256 4.65359L3.2041 4.81035L3.13858 4.55669L3.31006 4.39993H3.09808L3.03256 4.14635L2.96704 4.39993H2.75506ZM3.94876 4.39993L4.12024 4.55669L4.05472 4.81035L4.22626 4.65359L4.39774 4.81035L4.33228 4.55669L4.50376 4.39993H4.29178L4.22626 4.14635L4.16074 4.39993H3.94876ZM5.1424 4.39993L5.31394 4.55669L5.24842 4.81035L5.4199 4.65359L5.59144 4.81035L5.52592 4.55669L5.69746 4.39993H5.48542L5.4199 4.14635L5.35444 4.39993H5.1424ZM6.3361 4.39993L6.50758 4.55669L6.44212 4.81035L6.6136 4.65359L6.78514 4.81035L6.71962 4.55669L6.8911 4.39993H6.67912L6.6136 4.14635L6.54808 4.39993H6.3361ZM0.353139 5.68144L0.524619 5.8382L0.459099 6.09186L0.630639 5.9351L0.802119 6.09186L0.736599 5.8382L0.908139 5.68144H0.696099L0.630639 5.42786L0.565119 5.68144H0.353139ZM1.54678 5.68144L1.71832 5.8382L1.6528 6.09186L1.82428 5.9351L1.99582 6.09186L1.9303 5.8382L2.10178 5.68144H1.8898L1.82428 5.42786L1.75876 5.68144H1.54678ZM2.74048 5.68144L2.91196 5.8382L2.8465 6.09186L3.01798 5.9351L3.18952 6.09186L3.124 5.8382L3.29548 5.68144H3.0835L3.01798 5.42786L2.95246 5.68144H2.74048ZM3.93418 5.68144L4.10566 5.8382L4.04014 6.09186L4.21168 5.9351L4.38316 6.09186L4.3177 5.8382L4.48918 5.68144H4.2772L4.21168 5.42786L4.14616 5.68144H3.93418ZM5.12782 5.68144L5.29936 5.8382L5.23384 6.09186L5.40532 5.9351L5.57686 6.09186L5.51134 5.8382L5.68288 5.68144H5.47084L5.40532 5.42786L5.33986 5.68144H5.12782ZM6.32152 5.68144L6.493 5.8382L6.42754 6.09186L6.59902 5.9351L6.77056 6.09186L6.70504 5.8382L6.87652 5.68144H6.66454L6.59902 5.42786L6.5335 5.68144H6.32152ZM0.953499 3.76031L1.12498 3.91707L1.05952 4.17065L1.231 4.0139L1.40254 4.17065L1.33702 3.91707L1.5085 3.76031H1.29652L1.231 3.50665L1.16548 3.76031H0.953499ZM2.1472 3.76031L2.31868 3.91707L2.25316 4.17065L2.4247 4.0139L2.59618 4.17065L2.53072 3.91707L2.7022 3.76031H2.49022L2.4247 3.50665L2.35918 3.76031H2.1472ZM3.3409 3.76031L3.51238 3.91707L3.44686 4.17065L3.6184 4.0139L3.78988 4.17065L3.72436 3.91707L3.8959 3.76031H3.68392L3.6184 3.50665L3.55288 3.76031H3.3409ZM4.53454 3.76031L4.70608 3.91707L4.64056 4.17065L4.81204 4.0139L4.98358 4.17065L4.91806 3.91707L5.08954 3.76031H4.87756L4.81204 3.50665L4.74652 3.76031H4.53454ZM5.72824 3.76031L5.89972 3.91707L5.8342 4.17065L6.00574 4.0139L6.17722 4.17065L6.11176 3.91707L6.28324 3.76031H6.07126L6.00574 3.50665L5.94022 3.76031H5.72824ZM0.949959 5.03978L1.1215 5.19654L1.05598 5.4502L1.22746 5.29344L1.399 5.4502L1.33348 5.19654L1.50496 5.03978H1.29298L1.22746 4.7862L1.16194 5.03978H0.949959ZM2.14366 5.03978L2.31514 5.19654L2.24962 5.4502L2.42116 5.29344L2.5927 5.4502L2.52718 5.19654L2.69866 5.03978H2.48668L2.42116 4.7862L2.35564 5.03978H2.14366ZM3.33736 5.03978L3.50884 5.19654L3.44332 5.4502L3.61486 5.29344L3.78634 5.4502L3.72082 5.19654L3.89236 5.03978H3.68038L3.61486 4.7862L3.54934 5.03978H3.33736ZM4.531 5.03978L4.70254 5.19654L4.63702 5.4502L4.8085 5.29344L4.98004 5.4502L4.91452 5.19654L5.086 5.03978H4.87402L4.8085 4.7862L4.74298 5.03978H4.531ZM5.7247 5.03978L5.89618 5.19654L5.83066 5.4502L6.0022 5.29344L6.17368 5.4502L6.10822 5.19654L6.2797 5.03978H6.06772L6.0022 4.7862L5.93668 5.03978H5.7247Z" fill="white"/>
</svg>
