<svg width="21" height="18" viewBox="0 0 21 18" fill="none" xmlns="http://www.w3.org/2000/svg">
<ellipse cx="8.57031" cy="5.35834" rx="4.5" ry="4.38763" stroke="#8B8B8B"/>
<path d="M14.0433 11.137C15.6257 13.4213 15.9728 14.9177 16.0489 16.1607C16.0827 16.712 15.6226 17.1603 15.0703 17.1603H2.07031C1.51803 17.1603 1.05819 16.7121 1.09142 16.1608C1.16877 14.8775 1.52964 13.3193 3.21317 10.9727" stroke="#8B8B8B" stroke-linecap="round"/>
<path d="M14.1562 0.753906C16.0071 0.753906 17.5075 2.21685 17.5075 4.02148C17.5075 5.31167 16.7406 6.42721 15.627 6.95837" stroke="#8B8B8B" stroke-linecap="round"/>
<path d="M18.2331 8.32422C19.3057 9.87261 19.6161 10.9349 19.706 11.8112C19.7623 12.3606 19.2949 12.8098 18.7426 12.8098H18.0625" stroke="#8B8B8B" stroke-linecap="round"/>
</svg>
