<svg width="21" height="25" viewBox="0 0 21 25" fill="none" xmlns="http://www.w3.org/2000/svg">
<path d="M19.5725 10.9319L20.0306 10.7315H20.0306L19.5725 10.9319ZM11.0527 10.9319L11.5108 11.1322L11.0527 10.9319ZM7.00241 11.4369L6.55827 11.6666C6.67613 11.8945 6.94742 11.9962 7.1861 11.902C7.42477 11.8077 7.55333 11.548 7.4836 11.3011L7.00241 11.4369ZM9.40545 8.43415L9.78107 8.10413C9.6873 7.9974 9.55255 7.93561 9.41049 7.93417L9.40545 8.43415ZM9.40545 11.4369L9.02941 11.1074C8.90006 11.255 8.86903 11.4646 8.95006 11.6434C9.03109 11.8221 9.20919 11.9369 9.40545 11.9369V11.4369ZM12.1551 13.4387L12.4394 13.85C12.5745 13.7566 12.6551 13.6029 12.6551 13.4387H12.1551ZM8.77609 13.4387L9.00612 12.9948C8.7949 12.8853 8.53582 12.9398 8.38663 13.1251C8.23745 13.3104 8.23947 13.5752 8.39147 13.7582L8.77609 13.4387ZM8.62232 16.5175L8.48182 16.9974C8.69303 17.0592 8.91985 16.9757 9.0405 16.7916L8.62232 16.5175ZM6.58967 13.6113L7.08496 13.6798C7.11629 13.4532 6.98993 13.2343 6.77811 13.1481C6.56629 13.062 6.32299 13.1305 6.18726 13.3145L6.58967 13.6113ZM2.87935 15.5096L2.38218 15.5627C2.40802 15.8043 2.60381 15.9924 2.84626 16.0085L2.87935 15.5096ZM5.36406 12.4378L5.42687 12.9338C5.6887 12.9007 5.87968 12.6697 5.86307 12.4063C5.84645 12.1429 5.62798 11.9378 5.36406 11.9378V12.4378ZM3.23022 9.92294L3.13764 9.43158C2.90135 9.4761 2.73022 9.6825 2.73022 9.92294H3.23022ZM20.5 22.6889V12.9834H19.5V22.6889H20.5ZM20.0306 10.7315L18.2377 6.63243L17.3215 7.03316L19.1144 11.1322L20.0306 10.7315ZM18.2796 6.83279V4.28073H17.2796V6.83279H18.2796ZM20.5 12.9834C20.5 12.2071 20.3401 11.4392 20.0306 10.7315L19.1144 11.1322C19.3683 11.7127 19.5 12.344 19.5 12.9834H20.5ZM18.8128 24.4258C19.7638 24.4258 20.5 23.6286 20.5 22.6889H19.5C19.5 23.1154 19.1732 23.4258 18.8128 23.4258V24.4258ZM11.5108 11.1322L13.3037 7.03316L12.3875 6.63243L10.5946 10.7315L11.5108 11.1322ZM13.3456 6.83281L13.3457 4.28075L12.3457 4.28072L12.3456 6.83278L13.3456 6.83281ZM13.0717 1.42578H17.5536V0.425781H13.0717V1.42578ZM18.2408 2.16264V3.06626H19.2408V2.16264H18.2408ZM17.5536 3.80312H13.0717V4.80312H17.5536V3.80312ZM12.3845 3.06626V2.16264H11.3845V3.06626H12.3845ZM13.0717 3.80312C12.7113 3.80312 12.3845 3.49274 12.3845 3.06626H11.3845C11.3845 4.00598 12.1208 4.80312 13.0717 4.80312V3.80312ZM18.2408 3.06626C18.2408 3.49274 17.914 3.80312 17.5536 3.80312V4.80312C18.5046 4.80312 19.2408 4.00598 19.2408 3.06626H18.2408ZM17.5536 1.42578C17.914 1.42578 18.2408 1.73616 18.2408 2.16264H19.2408C19.2408 1.22292 18.5046 0.425781 17.5536 0.425781V1.42578ZM13.0717 0.425781C12.1208 0.425781 11.3845 1.22292 11.3845 2.16264H12.3845C12.3845 1.73616 12.7113 1.42578 13.0717 1.42578V0.425781ZM12.8456 7.33279H17.7796V6.33279H12.8456V7.33279ZM11.8124 24.4258H18.8128V23.4258H11.8124V24.4258ZM11.8124 23.4258C11.5253 23.4258 11.263 23.2325 11.1645 22.9353L10.2152 23.2498C10.438 23.9224 11.0595 24.4258 11.8124 24.4258V23.4258ZM11.2921 11.7492C11.3503 11.5386 11.4233 11.3324 11.5108 11.1322L10.5946 10.7315C10.4879 10.9756 10.3989 11.2269 10.3282 11.4832L11.2921 11.7492ZM13.0831 17.3709C13.0831 20.7344 10.471 23.4258 7.29155 23.4258V24.4258C11.0616 24.4258 14.0831 21.2477 14.0831 17.3709H13.0831ZM7.29155 23.4258C4.11209 23.4258 1.5 20.7344 1.5 17.3709H0.5C0.5 21.2477 3.52155 24.4258 7.29155 24.4258V23.4258ZM1.5 17.3709C1.5 15.2368 2.55485 13.3671 4.14036 12.2899L3.57837 11.4627C1.72093 12.7247 0.5 14.9031 0.5 17.3709H1.5ZM11.8101 13.5831C12.6057 14.6189 13.0831 15.935 13.0831 17.3709H14.0831C14.0831 15.7106 13.5304 14.1812 12.6032 12.974L11.8101 13.5831ZM7.4836 11.3011C7.36428 10.8785 7.5236 10.2882 7.93747 9.76577C8.34846 9.247 8.90609 8.92914 9.40041 8.93412L9.41049 7.93417C8.50674 7.92506 7.68405 8.4753 7.15364 9.14479C6.62611 9.81065 6.28294 10.7288 6.52122 11.5728L7.4836 11.3011ZM9.02983 8.76417C9.54162 9.34667 9.71246 10.3279 9.02941 11.1074L9.78149 11.7664C10.8568 10.5393 10.5588 8.98933 9.78107 8.10413L9.02983 8.76417ZM9.40545 11.9369C10.0029 11.9369 10.591 12.0598 11.0115 12.3135C11.407 12.5522 11.6551 12.9008 11.6551 13.4387H12.6551C12.6551 12.5036 12.1811 11.8513 11.5281 11.4573C10.9001 11.0784 10.1134 10.9369 9.40545 10.9369V11.9369ZM11.8708 13.0274C11.3143 13.4121 10.9265 13.5364 10.5544 13.527C10.1589 13.517 9.70311 13.3559 9.00612 12.9948L8.54607 13.8826C9.26214 14.2537 9.89098 14.5106 10.5292 14.5267C11.1909 14.5433 11.7861 14.3015 12.4394 13.85L11.8708 13.0274ZM8.39147 13.7582C8.70435 14.1348 8.79436 14.5166 8.75183 14.9099C8.70715 15.323 8.51207 15.7736 8.20414 16.2434L9.0405 16.7916C9.39324 16.2535 9.67767 15.6494 9.74603 15.0174C9.81653 14.3656 9.6531 13.712 9.16071 13.1192L8.39147 13.7582ZM8.76282 16.0377C7.9979 15.8137 7.56049 15.4956 7.32287 15.1383C7.08701 14.7836 6.99725 14.314 7.08496 13.6798L6.09439 13.5428C5.98518 14.3324 6.0776 15.0717 6.49022 15.6921C6.90107 16.3098 7.57844 16.7329 8.48182 16.9974L8.76282 16.0377ZM6.18726 13.3145C5.63421 14.0645 5.30027 14.4833 4.87904 14.7315C4.48141 14.9659 3.94365 15.079 2.91244 15.0107L2.84626 16.0085C3.95632 16.0821 4.73428 15.9776 5.38678 15.593C6.01567 15.2224 6.46625 14.6211 6.99208 13.908L6.18726 13.3145ZM3.37652 15.4564C3.297 14.7126 3.46981 14.1389 3.80078 13.7327C4.13335 13.3246 4.67142 13.0295 5.42687 12.9338L5.30124 11.9417C4.34909 12.0623 3.55389 12.4526 3.02554 13.1011C2.49559 13.7515 2.27985 14.6056 2.38218 15.5627L3.37652 15.4564ZM5.36406 11.9378C4.62784 11.9378 4.26615 11.6957 4.06098 11.3969C3.83015 11.0608 3.73022 10.5566 3.73022 9.92294H2.73022C2.73022 10.6215 2.83274 11.3748 3.23661 11.963C3.66613 12.5885 4.37136 12.9378 5.36406 12.9378V11.9378ZM3.3228 10.4143C4.29395 10.2313 4.92729 10.2516 5.38932 10.4353C5.83161 10.6111 6.19822 10.9702 6.55827 11.6666L7.44656 11.2073C7.02383 10.3897 6.506 9.80305 5.75871 9.506C5.03117 9.21679 4.1698 9.2371 3.13764 9.43158L3.3228 10.4143Z" fill="#373737"/>
</svg>
