<svg width="28" height="27" viewBox="0 0 28 27" fill="none" xmlns="http://www.w3.org/2000/svg">
<path d="M15.2862 11.9933L16.6082 10.6714M15.2862 11.9933L14.125 10.8321C13.033 9.74018 13.033 7.96985 14.125 6.87794L15.4469 5.55601L16.6082 6.71727C17.7001 7.80918 17.7001 9.57951 16.6082 10.6714M15.2862 11.9933L16.4474 13.1545C17.5393 14.2464 19.3096 14.2464 20.4015 13.1545L21.7235 11.8326L20.5622 10.6713C19.4703 9.57942 17.7001 9.57951 16.6082 10.6714M11.4235 15.8531L12.7455 14.5312M11.4235 15.8531L10.2623 14.6919C9.17037 13.6 9.17037 11.8296 10.2623 10.7377L11.5842 9.41579L12.7455 10.5771C13.8374 11.669 13.8374 13.4393 12.7455 14.5312M11.4235 15.8531L12.5847 17.0143C13.6766 18.1062 15.447 18.1062 16.5389 17.0143L17.8608 15.6924L16.6995 14.5311C15.6076 13.4392 13.8374 13.4393 12.7455 14.5312M7.56304 19.7136L8.88497 18.3917M7.56304 19.7136L6.40177 18.5524C5.30987 17.4605 5.30987 15.6901 6.40177 14.5982L7.72371 13.2763L8.88497 14.4376C9.97688 15.5295 9.97688 17.2998 8.88497 18.3917M7.56304 19.7136L8.72421 20.8748C9.81612 21.9667 11.5864 21.9667 12.6784 20.8748L14.0003 19.5529L12.839 18.3916C11.7471 17.2997 9.97688 17.2998 8.88497 18.3917M18.5855 8.69466L4.08392 23.1963M22.283 8.37018C20.8783 9.77495 18.051 9.22525 18.051 9.22525C18.051 9.22525 17.5013 6.39796 18.9061 4.99319C20.3108 3.58842 23.1381 4.13811 23.1381 4.13811C23.1381 4.13811 23.6878 6.9654 22.283 8.37018Z" stroke="#373737"/>
</svg>
