<svg width="40" height="40" viewBox="0 0 40 40" fill="none" xmlns="http://www.w3.org/2000/svg">
<path d="M20 0C15.5719 0 12 3.57188 12 8C12 9.57813 12.45 11.0313 13.225 12.25C10.3781 11.6594 6.73438 11.2 2.4 11.2C2.375 11.2 2.35 11.2 2.325 11.2C1.9125 11.2375 1.59688 11.5844 1.6 12V17.75C0.675 18.0844 0 18.9656 0 20V23.2C0 24.5156 1.08438 25.6 2.4 25.6H3.2C4.96875 25.6 6.4 24.1688 6.4 22.4V20.8C6.4 19.0313 4.96875 17.6 3.2 17.6V12.85C13.15 13.0031 18.6313 15.5031 19.2 15.775V37.75C16.8594 36.3906 11.3156 33.8219 3.2 33.65V26.4H1.6V34.4C1.6 34.8406 1.95938 35.2 2.4 35.2C13.0875 35.2 19.0625 39.4875 19.45 39.775C19.4875 39.8125 19.5312 39.8469 19.575 39.875C19.5844 39.875 19.5906 39.875 19.6 39.875C19.6625 39.9094 19.7313 39.9344 19.8 39.95C19.8094 39.95 19.8156 39.95 19.825 39.95C19.8406 39.9594 19.8594 39.9688 19.875 39.975C19.8844 39.975 19.8906 39.975 19.9 39.975C19.9156 39.975 19.9344 39.975 19.95 39.975C19.9594 39.975 19.9656 39.975 19.975 39.975C20.025 39.9813 20.075 39.9813 20.125 39.975C20.2313 39.9531 20.3344 39.9125 20.425 39.85C20.4406 39.8438 20.4594 39.8344 20.475 39.825C20.5031 39.8031 20.5281 39.7781 20.55 39.75C20.9969 39.4219 26.9719 35.2 37.6 35.2C38.0406 35.2 38.4 34.8406 38.4 34.4V26.4H36.8V33.65C28.6844 33.8219 23.1406 36.3906 20.8 37.75V15.775C21.3688 15.5031 26.85 13.0031 36.8 12.85V17.6C35.0312 17.6 33.6 19.0313 33.6 20.8V22.4C33.6 24.1688 35.0312 25.6 36.8 25.6H37.6C38.9156 25.6 40 24.5156 40 23.2V20C40 18.9656 39.325 18.0844 38.4 17.75V12C38.4 11.5594 38.0406 11.2 37.6 11.2C33.2531 11.2 29.6 11.6563 26.75 12.25C27.5375 11.0094 28 9.54688 28 8C28 3.57188 24.4281 0 20 0ZM20 1.6C23.5719 1.6 26.4 4.42812 26.4 8C26.4 9.97813 25.4844 11.825 24.025 12.95C24.0156 12.9531 24.0094 12.9719 24 12.975C21.975 13.5375 20.5906 14.0406 20 14.3C19.4094 14.0406 18.025 13.5375 16 12.975C15.9906 12.9688 15.9844 12.9563 15.975 12.95C14.5063 11.8156 13.6 10.0688 13.6 8C13.6 4.42812 16.4281 1.6 20 1.6ZM2.4 19.2H3.2C4.15312 19.2 4.8 19.8469 4.8 20.8V22.4C4.8 23.3531 4.15312 24 3.2 24H2.4C1.95625 24 1.6 23.6438 1.6 23.2V20C1.6 19.5563 1.95625 19.2 2.4 19.2ZM36.8 19.2H37.6C38.0438 19.2 38.4 19.5563 38.4 20V23.2C38.4 23.6438 38.0438 24 37.6 24H36.8C35.8469 24 35.2 23.3531 35.2 22.4V20.8C35.2 19.8469 35.8469 19.2 36.8 19.2Z" fill="#373737"/>
</svg>
