<svg width="40" height="40" viewBox="0 0 40 40" fill="none" xmlns="http://www.w3.org/2000/svg">
<path d="M12.0023 3.18164C9.34297 3.18164 6.68359 4.20039 4.64297 6.24102C0.561719 10.3223 0.561719 16.8785 4.64297 20.9598L7.09609 23.4129C7.06172 23.5816 7.04297 23.7504 7.04297 23.9223C7.04297 24.5598 7.28047 25.1191 7.76172 25.6004L8.88047 26.7223C9.26797 27.1848 9.88047 27.4191 10.5023 27.4348C10.543 27.9848 10.7711 28.5285 11.2023 28.9598L12.3242 30.0785C12.7617 30.5191 13.2742 30.7473 13.8492 30.7848C13.8648 31.3973 14.0992 31.9379 14.5617 32.4004L15.6805 33.5223C16.068 33.9848 16.6805 34.2191 17.2992 34.2348C17.3336 34.8098 17.5617 35.3191 18.0023 35.7598L19.1242 36.8785C19.6023 37.3598 20.1617 37.6004 20.8023 37.6004C21.3617 37.6004 22.0023 37.3598 22.4805 36.8785L24.8805 34.4785C25.293 34.1035 25.5148 33.6098 25.5773 33.091C26.093 33.0285 26.5586 32.8035 26.9617 32.4004L28.4023 30.9598C28.8336 30.5285 29.0617 29.9848 29.1023 29.4348C29.7242 29.4191 30.3367 29.1848 30.7242 28.7223L31.843 27.6004C32.293 27.1879 32.5211 26.6348 32.5523 26.066C33.1398 26.0316 33.718 25.7973 34.1617 25.2785L35.2805 24.1598C36.1742 23.341 36.2273 21.9754 35.4586 21.0129C37.318 19.1035 38.4023 16.5098 38.4023 13.7598C38.4023 10.9598 37.3617 8.24102 35.3617 6.31914C31.2805 2.24101 24.643 2.24101 20.5617 6.24102L19.9617 6.84102L19.3617 6.24102C17.3211 4.20039 14.6617 3.18164 12.0023 3.18164ZM12.0023 4.80039C14.243 4.80039 16.4836 5.67852 18.243 7.35977L18.8023 7.91914L14.7242 12.0004C13.2836 13.441 13.2836 15.7598 14.7242 17.2004C15.443 17.9191 16.4023 18.3223 17.3617 18.3223C18.3211 18.3223 19.2023 18.0004 19.9242 17.2785L24.718 12.4848L34.0805 22.0004C34.4023 22.3191 34.4023 22.8004 34.0805 23.1223L32.9617 24.241C32.643 24.5598 32.1617 24.5598 31.843 24.241L26.9617 19.441C26.643 19.1223 26.1617 19.1223 25.843 19.441C25.5242 19.7598 25.5242 20.241 25.843 20.5598L30.7242 25.3598C31.043 25.6785 31.043 26.1598 30.7242 26.4785L29.6023 27.6004C29.2836 27.9191 28.8023 27.9191 28.4805 27.6004L23.6805 22.8004C23.5117 22.6285 23.2961 22.5566 23.0805 22.566C22.868 22.5566 22.6523 22.6285 22.4805 22.8004C22.1617 23.1191 22.1617 23.6004 22.4805 23.9223L27.2805 28.7223C27.443 28.8816 27.5242 29.041 27.5242 29.2785C27.5242 29.5191 27.443 29.6816 27.2805 29.841L25.843 31.2785C25.6586 31.4629 25.4242 31.5285 25.1992 31.5035C25.1086 31.3691 25.0023 31.241 24.8805 31.1223L23.7617 30.0004C23.3367 29.5754 22.7461 29.3629 22.1492 29.3473C22.118 28.7785 21.8898 28.2066 21.443 27.7598L20.3242 26.641C19.9117 26.1941 19.3617 25.9629 18.7961 25.9348C18.7805 25.3223 18.5461 24.7848 18.0805 24.3223L16.9617 23.2004C16.5367 22.7754 15.9461 22.5629 15.3492 22.5473C15.318 21.9785 15.0898 21.4066 14.643 20.9598L13.5242 19.841C12.643 18.8816 11.1211 18.8816 10.1617 19.841L7.96172 22.041L5.76172 19.841C2.32109 16.4004 2.32109 10.8004 5.76172 7.35977C7.52109 5.67852 9.76172 4.80039 12.0023 4.80039ZM27.9242 4.88164C30.1617 4.88164 32.4023 5.75977 34.1617 7.44102L34.243 7.51914C35.9242 9.20039 36.8023 11.3598 36.8023 13.7598C36.8023 16.0254 35.9586 18.2098 34.3555 19.8754L25.3617 10.8785C25.3461 10.866 25.3273 10.8598 25.3148 10.8473C25.2992 10.8316 25.2961 10.8129 25.2805 10.8004C24.9617 10.4816 24.4805 10.4816 24.1617 10.8004L18.8023 16.1598C18.0023 16.9598 16.643 16.9598 15.843 16.1598C15.443 15.7598 15.2023 15.2004 15.2023 14.641C15.2023 14.0816 15.443 13.5223 15.843 13.1223L20.443 8.52227L20.4805 8.55977L21.6805 7.44102C23.3617 5.75977 25.6836 4.88164 27.9242 4.88164ZM11.9242 20.641C12.0836 20.641 12.3211 20.7191 12.4805 20.8785L13.6023 22.0004C13.9211 22.3191 13.9211 22.8004 13.6023 23.1223L11.2023 25.5223C10.8836 25.841 10.4023 25.841 10.0805 25.5223L8.96172 24.4004C8.80234 24.241 8.72422 24.0816 8.72422 23.841C8.72422 23.6004 8.80234 23.441 8.96172 23.2785L11.3617 20.8785C11.5211 20.7191 11.6836 20.641 11.9242 20.641ZM15.2805 24.0785C15.5211 24.0785 15.6836 24.1598 15.843 24.3223L16.9617 25.441C17.1211 25.6004 17.2023 25.7598 17.2023 26.0004C17.2023 26.241 17.1211 26.4004 16.9617 26.5598L14.5617 28.9598C14.243 29.2785 13.7617 29.2785 13.443 28.9598L12.3242 27.841C12.0023 27.5223 12.0023 27.041 12.3242 26.7223L14.7242 24.3223C14.8836 24.1598 15.043 24.0785 15.2805 24.0785ZM18.6742 27.441C18.8836 27.441 19.0836 27.5191 19.2023 27.6785L20.3242 28.8004C20.643 29.1191 20.643 29.6004 20.3242 29.9223L17.9242 32.3223C17.6023 32.641 17.1211 32.641 16.8023 32.3223L15.6805 31.2004C15.5211 31.041 15.443 30.8816 15.443 30.641C15.443 30.4004 15.5211 30.241 15.6805 30.0785L18.0805 27.6785C18.243 27.5191 18.4617 27.441 18.6742 27.441ZM22.0805 30.8785C22.3211 30.8785 22.4836 30.9598 22.643 31.1223L23.7617 32.241C23.9211 32.4004 24.0023 32.5598 24.0023 32.8004C24.0023 33.041 23.9211 33.2004 23.7617 33.3598L21.3617 35.7598C21.043 36.0785 20.5617 36.0785 20.243 35.7598L19.1242 34.641C18.9617 34.4816 18.8805 34.3191 18.8805 34.0785C18.8805 33.841 18.9617 33.6816 19.1242 33.5223L21.5242 31.1223C21.6836 30.9598 21.843 30.8785 22.0805 30.8785Z" fill="#373737"/>
</svg>
